%TF.GenerationSoftware,KiCad,Pcbnew,(5.1.12)-1*%
%TF.CreationDate,2021-12-10T12:11:04+01:00*%
%TF.ProjectId,standalone,7374616e-6461-46c6-9f6e-652e6b696361,rev?*%
%TF.SameCoordinates,Original*%
%TF.FileFunction,Copper,L2,Bot*%
%TF.FilePolarity,Positive*%
%FSLAX46Y46*%
G04 Gerber Fmt 4.6, Leading zero omitted, Abs format (unit mm)*
G04 Created by KiCad (PCBNEW (5.1.12)-1) date 2021-12-10 12:11:04*
%MOMM*%
%LPD*%
G01*
G04 APERTURE LIST*
%TA.AperFunction,ComponentPad*%
%ADD10O,1.700000X1.700000*%
%TD*%
%TA.AperFunction,ComponentPad*%
%ADD11R,1.700000X1.700000*%
%TD*%
%TA.AperFunction,ComponentPad*%
%ADD12O,2.500000X1.600000*%
%TD*%
%TA.AperFunction,ComponentPad*%
%ADD13O,7.000000X3.500000*%
%TD*%
%TA.AperFunction,ViaPad*%
%ADD14C,0.800000*%
%TD*%
%TA.AperFunction,Conductor*%
%ADD15C,0.250000*%
%TD*%
%TA.AperFunction,Conductor*%
%ADD16C,0.200000*%
%TD*%
%TA.AperFunction,Conductor*%
%ADD17C,0.100000*%
%TD*%
G04 APERTURE END LIST*
D10*
%TO.P,J7,4*%
%TO.N,Net-(J7-Pad4)*%
X134820000Y-64100000D03*
%TO.P,J7,3*%
%TO.N,Net-(J7-Pad3)*%
X132280000Y-64100000D03*
%TO.P,J7,2*%
%TO.N,Net-(J7-Pad2)*%
X129740000Y-64100000D03*
D11*
%TO.P,J7,1*%
%TO.N,GND*%
X127200000Y-64100000D03*
%TD*%
D10*
%TO.P,J9,2*%
%TO.N,GND*%
X138100000Y-44540000D03*
D11*
%TO.P,J9,1*%
%TO.N,IFI_ST2*%
X138100000Y-42000000D03*
%TD*%
D10*
%TO.P,J8,2*%
%TO.N,GND*%
X138400000Y-56540000D03*
D11*
%TO.P,J8,1*%
%TO.N,IFQ_ST2*%
X138400000Y-54000000D03*
%TD*%
D12*
%TO.P,J6,2*%
%TO.N,GND*%
X146700000Y-57060000D03*
%TO.P,J6,1*%
%TO.N,IFQ_ST2*%
X146700000Y-59600000D03*
D13*
%TO.P,J6,2*%
%TO.N,GND*%
X151780000Y-64680000D03*
X151780000Y-54520000D03*
%TD*%
D12*
%TO.P,J5,2*%
%TO.N,GND*%
X146700000Y-32160000D03*
%TO.P,J5,1*%
%TO.N,IFI_ST2*%
X146700000Y-34700000D03*
D13*
%TO.P,J5,2*%
%TO.N,GND*%
X151780000Y-39780000D03*
X151780000Y-29620000D03*
%TD*%
D10*
%TO.P,J4,2*%
%TO.N,GND*%
X118260000Y-60100000D03*
D11*
%TO.P,J4,1*%
%TO.N,IFQ_ST1*%
X120800000Y-60100000D03*
%TD*%
D10*
%TO.P,J3,2*%
%TO.N,GND*%
X117760000Y-36200000D03*
D11*
%TO.P,J3,1*%
%TO.N,IFI_ST1*%
X120300000Y-36200000D03*
%TD*%
D10*
%TO.P,J2,2*%
%TO.N,GND*%
X133800000Y-33240000D03*
D11*
%TO.P,J2,1*%
%TO.N,+5V*%
X133800000Y-30700000D03*
%TD*%
D10*
%TO.P,J1,4*%
%TO.N,IFQ*%
X103600000Y-53620000D03*
%TO.P,J1,3*%
%TO.N,IFQX*%
X103600000Y-51080000D03*
%TO.P,J1,2*%
%TO.N,IFI*%
X103600000Y-48540000D03*
D11*
%TO.P,J1,1*%
%TO.N,IFIX*%
X103600000Y-46000000D03*
%TD*%
D14*
%TO.N,Net-(C7-Pad2)*%
X129500000Y-38700000D03*
X131000000Y-43700000D03*
%TO.N,+5V*%
X135300000Y-41200000D03*
X135300000Y-38900000D03*
X135300000Y-53300000D03*
X135400000Y-50700000D03*
X133500000Y-47600000D03*
X120400000Y-39200000D03*
X127200000Y-29900000D03*
X121400000Y-48700000D03*
%TO.N,REF*%
X125400000Y-46900000D03*
X130500000Y-55000000D03*
X119100000Y-55500000D03*
%TD*%
D15*
%TO.N,Net-(C7-Pad2)*%
X129500000Y-38700000D02*
X131000000Y-40200000D01*
X131000000Y-40200000D02*
X131000000Y-43700000D01*
%TO.N,+5V*%
X135300000Y-41200000D02*
X135300000Y-38900000D01*
X135300000Y-50800000D02*
X135400000Y-50700000D01*
X135300000Y-53300000D02*
X135300000Y-50800000D01*
X133500000Y-47600000D02*
X134500000Y-47600000D01*
X135300000Y-46800000D02*
X135300000Y-41200000D01*
X134500000Y-47600000D02*
X135300000Y-46800000D01*
X120400000Y-39200000D02*
X124100000Y-35500000D01*
X124100000Y-33000000D02*
X127200000Y-29900000D01*
X124100000Y-35500000D02*
X124100000Y-33000000D01*
X120400000Y-47700000D02*
X121400000Y-48700000D01*
X120400000Y-39200000D02*
X120400000Y-47700000D01*
%TO.N,REF*%
X130500000Y-52000000D02*
X130500000Y-55000000D01*
X125400000Y-46900000D02*
X130500000Y-52000000D01*
X125400000Y-46900000D02*
X124200000Y-46900000D01*
X124200000Y-46900000D02*
X122700000Y-48400000D01*
X122700000Y-48400000D02*
X122700000Y-50400000D01*
X119100000Y-54000000D02*
X119100000Y-55500000D01*
X122700000Y-50400000D02*
X119100000Y-54000000D01*
%TD*%
D16*
%TO.N,GND*%
X159575000Y-69575000D02*
X100425000Y-69575000D01*
X100425000Y-64950000D01*
X125739058Y-64950000D01*
X125750797Y-65069189D01*
X125785563Y-65183797D01*
X125842020Y-65289421D01*
X125917999Y-65382001D01*
X126010579Y-65457980D01*
X126116203Y-65514437D01*
X126230811Y-65549203D01*
X126350000Y-65560942D01*
X126894000Y-65558000D01*
X127046000Y-65406000D01*
X127046000Y-64254000D01*
X125894000Y-64254000D01*
X125742000Y-64406000D01*
X125739058Y-64950000D01*
X100425000Y-64950000D01*
X100425000Y-63250000D01*
X125739058Y-63250000D01*
X125742000Y-63794000D01*
X125894000Y-63946000D01*
X127046000Y-63946000D01*
X127046000Y-62794000D01*
X127354000Y-62794000D01*
X127354000Y-63946000D01*
X127374000Y-63946000D01*
X127374000Y-64254000D01*
X127354000Y-64254000D01*
X127354000Y-65406000D01*
X127506000Y-65558000D01*
X128050000Y-65560942D01*
X128169189Y-65549203D01*
X128283797Y-65514437D01*
X128389421Y-65457980D01*
X128482001Y-65382001D01*
X128557980Y-65289421D01*
X128614437Y-65183797D01*
X128649203Y-65069189D01*
X128660942Y-64950000D01*
X128659770Y-64733261D01*
X128769062Y-64896828D01*
X128943172Y-65070938D01*
X129147903Y-65207735D01*
X129375389Y-65301963D01*
X129616886Y-65350000D01*
X129863114Y-65350000D01*
X130104611Y-65301963D01*
X130332097Y-65207735D01*
X130536828Y-65070938D01*
X130710938Y-64896828D01*
X130847735Y-64692097D01*
X130941963Y-64464611D01*
X130990000Y-64223114D01*
X130990000Y-63976886D01*
X131030000Y-63976886D01*
X131030000Y-64223114D01*
X131078037Y-64464611D01*
X131172265Y-64692097D01*
X131309062Y-64896828D01*
X131483172Y-65070938D01*
X131687903Y-65207735D01*
X131915389Y-65301963D01*
X132156886Y-65350000D01*
X132403114Y-65350000D01*
X132644611Y-65301963D01*
X132872097Y-65207735D01*
X133076828Y-65070938D01*
X133250938Y-64896828D01*
X133387735Y-64692097D01*
X133481963Y-64464611D01*
X133530000Y-64223114D01*
X133530000Y-63976886D01*
X133570000Y-63976886D01*
X133570000Y-64223114D01*
X133618037Y-64464611D01*
X133712265Y-64692097D01*
X133849062Y-64896828D01*
X134023172Y-65070938D01*
X134227903Y-65207735D01*
X134455389Y-65301963D01*
X134696886Y-65350000D01*
X134943114Y-65350000D01*
X135184611Y-65301963D01*
X135412097Y-65207735D01*
X135423390Y-65200189D01*
X147730094Y-65200189D01*
X147792559Y-65440091D01*
X147983837Y-65861989D01*
X148253748Y-66238464D01*
X148591919Y-66555048D01*
X148985355Y-66799575D01*
X149418936Y-66962648D01*
X149876000Y-67038000D01*
X151626000Y-67038000D01*
X151626000Y-64834000D01*
X151934000Y-64834000D01*
X151934000Y-67038000D01*
X153684000Y-67038000D01*
X154141064Y-66962648D01*
X154574645Y-66799575D01*
X154968081Y-66555048D01*
X155306252Y-66238464D01*
X155576163Y-65861989D01*
X155767441Y-65440091D01*
X155829906Y-65200189D01*
X155730618Y-64834000D01*
X151934000Y-64834000D01*
X151626000Y-64834000D01*
X147829382Y-64834000D01*
X147730094Y-65200189D01*
X135423390Y-65200189D01*
X135616828Y-65070938D01*
X135790938Y-64896828D01*
X135927735Y-64692097D01*
X136021963Y-64464611D01*
X136070000Y-64223114D01*
X136070000Y-64159811D01*
X147730094Y-64159811D01*
X147829382Y-64526000D01*
X151626000Y-64526000D01*
X151626000Y-62322000D01*
X151934000Y-62322000D01*
X151934000Y-64526000D01*
X155730618Y-64526000D01*
X155829906Y-64159811D01*
X155767441Y-63919909D01*
X155576163Y-63498011D01*
X155306252Y-63121536D01*
X154968081Y-62804952D01*
X154574645Y-62560425D01*
X154141064Y-62397352D01*
X153684000Y-62322000D01*
X151934000Y-62322000D01*
X151626000Y-62322000D01*
X149876000Y-62322000D01*
X149418936Y-62397352D01*
X148985355Y-62560425D01*
X148591919Y-62804952D01*
X148253748Y-63121536D01*
X147983837Y-63498011D01*
X147792559Y-63919909D01*
X147730094Y-64159811D01*
X136070000Y-64159811D01*
X136070000Y-63976886D01*
X136021963Y-63735389D01*
X135927735Y-63507903D01*
X135790938Y-63303172D01*
X135616828Y-63129062D01*
X135412097Y-62992265D01*
X135184611Y-62898037D01*
X134943114Y-62850000D01*
X134696886Y-62850000D01*
X134455389Y-62898037D01*
X134227903Y-62992265D01*
X134023172Y-63129062D01*
X133849062Y-63303172D01*
X133712265Y-63507903D01*
X133618037Y-63735389D01*
X133570000Y-63976886D01*
X133530000Y-63976886D01*
X133481963Y-63735389D01*
X133387735Y-63507903D01*
X133250938Y-63303172D01*
X133076828Y-63129062D01*
X132872097Y-62992265D01*
X132644611Y-62898037D01*
X132403114Y-62850000D01*
X132156886Y-62850000D01*
X131915389Y-62898037D01*
X131687903Y-62992265D01*
X131483172Y-63129062D01*
X131309062Y-63303172D01*
X131172265Y-63507903D01*
X131078037Y-63735389D01*
X131030000Y-63976886D01*
X130990000Y-63976886D01*
X130941963Y-63735389D01*
X130847735Y-63507903D01*
X130710938Y-63303172D01*
X130536828Y-63129062D01*
X130332097Y-62992265D01*
X130104611Y-62898037D01*
X129863114Y-62850000D01*
X129616886Y-62850000D01*
X129375389Y-62898037D01*
X129147903Y-62992265D01*
X128943172Y-63129062D01*
X128769062Y-63303172D01*
X128659770Y-63466739D01*
X128660942Y-63250000D01*
X128649203Y-63130811D01*
X128614437Y-63016203D01*
X128557980Y-62910579D01*
X128482001Y-62817999D01*
X128389421Y-62742020D01*
X128283797Y-62685563D01*
X128169189Y-62650797D01*
X128050000Y-62639058D01*
X127506000Y-62642000D01*
X127354000Y-62794000D01*
X127046000Y-62794000D01*
X126894000Y-62642000D01*
X126350000Y-62639058D01*
X126230811Y-62650797D01*
X126116203Y-62685563D01*
X126010579Y-62742020D01*
X125917999Y-62817999D01*
X125842020Y-62910579D01*
X125785563Y-63016203D01*
X125750797Y-63130811D01*
X125739058Y-63250000D01*
X100425000Y-63250000D01*
X100425000Y-60478911D01*
X116852091Y-60478911D01*
X116953065Y-60746300D01*
X117104264Y-60988852D01*
X117299878Y-61197246D01*
X117532389Y-61363473D01*
X117792861Y-61481146D01*
X117881090Y-61507903D01*
X118106000Y-61396889D01*
X118106000Y-60254000D01*
X116962150Y-60254000D01*
X116852091Y-60478911D01*
X100425000Y-60478911D01*
X100425000Y-59721089D01*
X116852091Y-59721089D01*
X116962150Y-59946000D01*
X118106000Y-59946000D01*
X118106000Y-58803111D01*
X118414000Y-58803111D01*
X118414000Y-59946000D01*
X118434000Y-59946000D01*
X118434000Y-60254000D01*
X118414000Y-60254000D01*
X118414000Y-61396889D01*
X118638910Y-61507903D01*
X118727139Y-61481146D01*
X118987611Y-61363473D01*
X119220122Y-61197246D01*
X119415736Y-60988852D01*
X119548065Y-60776571D01*
X119548065Y-60950000D01*
X119555788Y-61028414D01*
X119578660Y-61103814D01*
X119615803Y-61173303D01*
X119665789Y-61234211D01*
X119726697Y-61284197D01*
X119796186Y-61321340D01*
X119871586Y-61344212D01*
X119950000Y-61351935D01*
X121650000Y-61351935D01*
X121728414Y-61344212D01*
X121803814Y-61321340D01*
X121873303Y-61284197D01*
X121934211Y-61234211D01*
X121984197Y-61173303D01*
X122021340Y-61103814D01*
X122044212Y-61028414D01*
X122051935Y-60950000D01*
X122051935Y-59250000D01*
X122044212Y-59171586D01*
X122021340Y-59096186D01*
X121984197Y-59026697D01*
X121934211Y-58965789D01*
X121873303Y-58915803D01*
X121803814Y-58878660D01*
X121728414Y-58855788D01*
X121650000Y-58848065D01*
X119950000Y-58848065D01*
X119871586Y-58855788D01*
X119796186Y-58878660D01*
X119726697Y-58915803D01*
X119665789Y-58965789D01*
X119615803Y-59026697D01*
X119578660Y-59096186D01*
X119555788Y-59171586D01*
X119548065Y-59250000D01*
X119548065Y-59423429D01*
X119415736Y-59211148D01*
X119220122Y-59002754D01*
X118987611Y-58836527D01*
X118727139Y-58718854D01*
X118638910Y-58692097D01*
X118414000Y-58803111D01*
X118106000Y-58803111D01*
X117881090Y-58692097D01*
X117792861Y-58718854D01*
X117532389Y-58836527D01*
X117299878Y-59002754D01*
X117104264Y-59211148D01*
X116953065Y-59453700D01*
X116852091Y-59721089D01*
X100425000Y-59721089D01*
X100425000Y-56918910D01*
X136992097Y-56918910D01*
X137018854Y-57007139D01*
X137136527Y-57267611D01*
X137302754Y-57500122D01*
X137511148Y-57695736D01*
X137753700Y-57846935D01*
X138021089Y-57947909D01*
X138246000Y-57837850D01*
X138246000Y-56694000D01*
X138554000Y-56694000D01*
X138554000Y-57837850D01*
X138778911Y-57947909D01*
X139046300Y-57846935D01*
X139288852Y-57695736D01*
X139497246Y-57500122D01*
X139546632Y-57431042D01*
X144891769Y-57431042D01*
X144993733Y-57714197D01*
X145145499Y-57946712D01*
X145339711Y-58145151D01*
X145568904Y-58301889D01*
X145824272Y-58410902D01*
X145949389Y-58437193D01*
X145788558Y-58485981D01*
X145580090Y-58597409D01*
X145397366Y-58747366D01*
X145247409Y-58930090D01*
X145135981Y-59138558D01*
X145067363Y-59364759D01*
X145044194Y-59600000D01*
X145067363Y-59835241D01*
X145135981Y-60061442D01*
X145247409Y-60269910D01*
X145397366Y-60452634D01*
X145580090Y-60602591D01*
X145788558Y-60714019D01*
X146014759Y-60782637D01*
X146191050Y-60800000D01*
X147208950Y-60800000D01*
X147385241Y-60782637D01*
X147611442Y-60714019D01*
X147819910Y-60602591D01*
X148002634Y-60452634D01*
X148152591Y-60269910D01*
X148264019Y-60061442D01*
X148332637Y-59835241D01*
X148355806Y-59600000D01*
X148332637Y-59364759D01*
X148264019Y-59138558D01*
X148152591Y-58930090D01*
X148002634Y-58747366D01*
X147819910Y-58597409D01*
X147611442Y-58485981D01*
X147450611Y-58437193D01*
X147575728Y-58410902D01*
X147831096Y-58301889D01*
X148060289Y-58145151D01*
X148254501Y-57946712D01*
X148406267Y-57714197D01*
X148508231Y-57431042D01*
X148396523Y-57214000D01*
X146854000Y-57214000D01*
X146854000Y-57234000D01*
X146546000Y-57234000D01*
X146546000Y-57214000D01*
X145003477Y-57214000D01*
X144891769Y-57431042D01*
X139546632Y-57431042D01*
X139663473Y-57267611D01*
X139781146Y-57007139D01*
X139807903Y-56918910D01*
X139696889Y-56694000D01*
X138554000Y-56694000D01*
X138246000Y-56694000D01*
X137103111Y-56694000D01*
X136992097Y-56918910D01*
X100425000Y-56918910D01*
X100425000Y-56688958D01*
X144891769Y-56688958D01*
X145003477Y-56906000D01*
X146546000Y-56906000D01*
X146546000Y-55652000D01*
X146854000Y-55652000D01*
X146854000Y-56906000D01*
X148396523Y-56906000D01*
X148508231Y-56688958D01*
X148406267Y-56405803D01*
X148254501Y-56173288D01*
X148060289Y-55974849D01*
X147831096Y-55818111D01*
X147575728Y-55709098D01*
X147304000Y-55652000D01*
X146854000Y-55652000D01*
X146546000Y-55652000D01*
X146096000Y-55652000D01*
X145824272Y-55709098D01*
X145568904Y-55818111D01*
X145339711Y-55974849D01*
X145145499Y-56173288D01*
X144993733Y-56405803D01*
X144891769Y-56688958D01*
X100425000Y-56688958D01*
X100425000Y-55421207D01*
X118300000Y-55421207D01*
X118300000Y-55578793D01*
X118330743Y-55733351D01*
X118391049Y-55878942D01*
X118478599Y-56009970D01*
X118590030Y-56121401D01*
X118721058Y-56208951D01*
X118866649Y-56269257D01*
X119021207Y-56300000D01*
X119178793Y-56300000D01*
X119333351Y-56269257D01*
X119478942Y-56208951D01*
X119550571Y-56161090D01*
X136992097Y-56161090D01*
X137103111Y-56386000D01*
X138246000Y-56386000D01*
X138246000Y-56366000D01*
X138554000Y-56366000D01*
X138554000Y-56386000D01*
X139696889Y-56386000D01*
X139807903Y-56161090D01*
X139781146Y-56072861D01*
X139663473Y-55812389D01*
X139497246Y-55579878D01*
X139288852Y-55384264D01*
X139076571Y-55251935D01*
X139250000Y-55251935D01*
X139328414Y-55244212D01*
X139403814Y-55221340D01*
X139473303Y-55184197D01*
X139534211Y-55134211D01*
X139584197Y-55073303D01*
X139601896Y-55040189D01*
X147730094Y-55040189D01*
X147792559Y-55280091D01*
X147983837Y-55701989D01*
X148253748Y-56078464D01*
X148591919Y-56395048D01*
X148985355Y-56639575D01*
X149418936Y-56802648D01*
X149876000Y-56878000D01*
X151626000Y-56878000D01*
X151626000Y-54674000D01*
X151934000Y-54674000D01*
X151934000Y-56878000D01*
X153684000Y-56878000D01*
X154141064Y-56802648D01*
X154574645Y-56639575D01*
X154968081Y-56395048D01*
X155306252Y-56078464D01*
X155576163Y-55701989D01*
X155767441Y-55280091D01*
X155829906Y-55040189D01*
X155730618Y-54674000D01*
X151934000Y-54674000D01*
X151626000Y-54674000D01*
X147829382Y-54674000D01*
X147730094Y-55040189D01*
X139601896Y-55040189D01*
X139621340Y-55003814D01*
X139644212Y-54928414D01*
X139651935Y-54850000D01*
X139651935Y-53999811D01*
X147730094Y-53999811D01*
X147829382Y-54366000D01*
X151626000Y-54366000D01*
X151626000Y-52162000D01*
X151934000Y-52162000D01*
X151934000Y-54366000D01*
X155730618Y-54366000D01*
X155829906Y-53999811D01*
X155767441Y-53759909D01*
X155576163Y-53338011D01*
X155306252Y-52961536D01*
X154968081Y-52644952D01*
X154574645Y-52400425D01*
X154141064Y-52237352D01*
X153684000Y-52162000D01*
X151934000Y-52162000D01*
X151626000Y-52162000D01*
X149876000Y-52162000D01*
X149418936Y-52237352D01*
X148985355Y-52400425D01*
X148591919Y-52644952D01*
X148253748Y-52961536D01*
X147983837Y-53338011D01*
X147792559Y-53759909D01*
X147730094Y-53999811D01*
X139651935Y-53999811D01*
X139651935Y-53150000D01*
X139644212Y-53071586D01*
X139621340Y-52996186D01*
X139584197Y-52926697D01*
X139534211Y-52865789D01*
X139473303Y-52815803D01*
X139403814Y-52778660D01*
X139328414Y-52755788D01*
X139250000Y-52748065D01*
X137550000Y-52748065D01*
X137471586Y-52755788D01*
X137396186Y-52778660D01*
X137326697Y-52815803D01*
X137265789Y-52865789D01*
X137215803Y-52926697D01*
X137178660Y-52996186D01*
X137155788Y-53071586D01*
X137148065Y-53150000D01*
X137148065Y-54850000D01*
X137155788Y-54928414D01*
X137178660Y-55003814D01*
X137215803Y-55073303D01*
X137265789Y-55134211D01*
X137326697Y-55184197D01*
X137396186Y-55221340D01*
X137471586Y-55244212D01*
X137550000Y-55251935D01*
X137723429Y-55251935D01*
X137511148Y-55384264D01*
X137302754Y-55579878D01*
X137136527Y-55812389D01*
X137018854Y-56072861D01*
X136992097Y-56161090D01*
X119550571Y-56161090D01*
X119609970Y-56121401D01*
X119721401Y-56009970D01*
X119808951Y-55878942D01*
X119869257Y-55733351D01*
X119900000Y-55578793D01*
X119900000Y-55421207D01*
X119869257Y-55266649D01*
X119808951Y-55121058D01*
X119721401Y-54990030D01*
X119625000Y-54893629D01*
X119625000Y-54217461D01*
X123053001Y-50789462D01*
X123073027Y-50773027D01*
X123089462Y-50753001D01*
X123089466Y-50752997D01*
X123138633Y-50693086D01*
X123187383Y-50601881D01*
X123217403Y-50502918D01*
X123224883Y-50426973D01*
X123225000Y-50425788D01*
X123225000Y-50425780D01*
X123227539Y-50400000D01*
X123225000Y-50374220D01*
X123225000Y-48617461D01*
X124417462Y-47425000D01*
X124793629Y-47425000D01*
X124890030Y-47521401D01*
X125021058Y-47608951D01*
X125166649Y-47669257D01*
X125321207Y-47700000D01*
X125457539Y-47700000D01*
X129975000Y-52217462D01*
X129975001Y-54393628D01*
X129878599Y-54490030D01*
X129791049Y-54621058D01*
X129730743Y-54766649D01*
X129700000Y-54921207D01*
X129700000Y-55078793D01*
X129730743Y-55233351D01*
X129791049Y-55378942D01*
X129878599Y-55509970D01*
X129990030Y-55621401D01*
X130121058Y-55708951D01*
X130266649Y-55769257D01*
X130421207Y-55800000D01*
X130578793Y-55800000D01*
X130733351Y-55769257D01*
X130878942Y-55708951D01*
X131009970Y-55621401D01*
X131121401Y-55509970D01*
X131208951Y-55378942D01*
X131269257Y-55233351D01*
X131300000Y-55078793D01*
X131300000Y-54921207D01*
X131269257Y-54766649D01*
X131208951Y-54621058D01*
X131121401Y-54490030D01*
X131025000Y-54393629D01*
X131025000Y-53221207D01*
X134500000Y-53221207D01*
X134500000Y-53378793D01*
X134530743Y-53533351D01*
X134591049Y-53678942D01*
X134678599Y-53809970D01*
X134790030Y-53921401D01*
X134921058Y-54008951D01*
X135066649Y-54069257D01*
X135221207Y-54100000D01*
X135378793Y-54100000D01*
X135533351Y-54069257D01*
X135678942Y-54008951D01*
X135809970Y-53921401D01*
X135921401Y-53809970D01*
X136008951Y-53678942D01*
X136069257Y-53533351D01*
X136100000Y-53378793D01*
X136100000Y-53221207D01*
X136069257Y-53066649D01*
X136008951Y-52921058D01*
X135921401Y-52790030D01*
X135825000Y-52693629D01*
X135825000Y-51378176D01*
X135909970Y-51321401D01*
X136021401Y-51209970D01*
X136108951Y-51078942D01*
X136169257Y-50933351D01*
X136200000Y-50778793D01*
X136200000Y-50621207D01*
X136169257Y-50466649D01*
X136108951Y-50321058D01*
X136021401Y-50190030D01*
X135909970Y-50078599D01*
X135778942Y-49991049D01*
X135633351Y-49930743D01*
X135478793Y-49900000D01*
X135321207Y-49900000D01*
X135166649Y-49930743D01*
X135021058Y-49991049D01*
X134890030Y-50078599D01*
X134778599Y-50190030D01*
X134691049Y-50321058D01*
X134630743Y-50466649D01*
X134600000Y-50621207D01*
X134600000Y-50778793D01*
X134630743Y-50933351D01*
X134691049Y-51078942D01*
X134775001Y-51204585D01*
X134775000Y-52693629D01*
X134678599Y-52790030D01*
X134591049Y-52921058D01*
X134530743Y-53066649D01*
X134500000Y-53221207D01*
X131025000Y-53221207D01*
X131025000Y-52025779D01*
X131027539Y-51999999D01*
X131025000Y-51974219D01*
X131025000Y-51974212D01*
X131017403Y-51897082D01*
X130987383Y-51798119D01*
X130938633Y-51706914D01*
X130873027Y-51626973D01*
X130852996Y-51610534D01*
X126763669Y-47521207D01*
X132700000Y-47521207D01*
X132700000Y-47678793D01*
X132730743Y-47833351D01*
X132791049Y-47978942D01*
X132878599Y-48109970D01*
X132990030Y-48221401D01*
X133121058Y-48308951D01*
X133266649Y-48369257D01*
X133421207Y-48400000D01*
X133578793Y-48400000D01*
X133733351Y-48369257D01*
X133878942Y-48308951D01*
X134009970Y-48221401D01*
X134106371Y-48125000D01*
X134474220Y-48125000D01*
X134500000Y-48127539D01*
X134525780Y-48125000D01*
X134525788Y-48125000D01*
X134602918Y-48117403D01*
X134701881Y-48087383D01*
X134793086Y-48038633D01*
X134873027Y-47973027D01*
X134889470Y-47952991D01*
X135653001Y-47189462D01*
X135673027Y-47173027D01*
X135689462Y-47153001D01*
X135689466Y-47152997D01*
X135738633Y-47093086D01*
X135787383Y-47001881D01*
X135817403Y-46902918D01*
X135822615Y-46850000D01*
X135825000Y-46825788D01*
X135825000Y-46825780D01*
X135827539Y-46800000D01*
X135825000Y-46774220D01*
X135825000Y-44918910D01*
X136692097Y-44918910D01*
X136718854Y-45007139D01*
X136836527Y-45267611D01*
X137002754Y-45500122D01*
X137211148Y-45695736D01*
X137453700Y-45846935D01*
X137721089Y-45947909D01*
X137946000Y-45837850D01*
X137946000Y-44694000D01*
X138254000Y-44694000D01*
X138254000Y-45837850D01*
X138478911Y-45947909D01*
X138746300Y-45846935D01*
X138988852Y-45695736D01*
X139197246Y-45500122D01*
X139363473Y-45267611D01*
X139481146Y-45007139D01*
X139507903Y-44918910D01*
X139396889Y-44694000D01*
X138254000Y-44694000D01*
X137946000Y-44694000D01*
X136803111Y-44694000D01*
X136692097Y-44918910D01*
X135825000Y-44918910D01*
X135825000Y-44161090D01*
X136692097Y-44161090D01*
X136803111Y-44386000D01*
X137946000Y-44386000D01*
X137946000Y-44366000D01*
X138254000Y-44366000D01*
X138254000Y-44386000D01*
X139396889Y-44386000D01*
X139507903Y-44161090D01*
X139481146Y-44072861D01*
X139363473Y-43812389D01*
X139197246Y-43579878D01*
X138988852Y-43384264D01*
X138776571Y-43251935D01*
X138950000Y-43251935D01*
X139028414Y-43244212D01*
X139103814Y-43221340D01*
X139173303Y-43184197D01*
X139234211Y-43134211D01*
X139284197Y-43073303D01*
X139321340Y-43003814D01*
X139344212Y-42928414D01*
X139351935Y-42850000D01*
X139351935Y-41150000D01*
X139344212Y-41071586D01*
X139321340Y-40996186D01*
X139284197Y-40926697D01*
X139234211Y-40865789D01*
X139173303Y-40815803D01*
X139103814Y-40778660D01*
X139028414Y-40755788D01*
X138950000Y-40748065D01*
X137250000Y-40748065D01*
X137171586Y-40755788D01*
X137096186Y-40778660D01*
X137026697Y-40815803D01*
X136965789Y-40865789D01*
X136915803Y-40926697D01*
X136878660Y-40996186D01*
X136855788Y-41071586D01*
X136848065Y-41150000D01*
X136848065Y-42850000D01*
X136855788Y-42928414D01*
X136878660Y-43003814D01*
X136915803Y-43073303D01*
X136965789Y-43134211D01*
X137026697Y-43184197D01*
X137096186Y-43221340D01*
X137171586Y-43244212D01*
X137250000Y-43251935D01*
X137423429Y-43251935D01*
X137211148Y-43384264D01*
X137002754Y-43579878D01*
X136836527Y-43812389D01*
X136718854Y-44072861D01*
X136692097Y-44161090D01*
X135825000Y-44161090D01*
X135825000Y-41806371D01*
X135921401Y-41709970D01*
X136008951Y-41578942D01*
X136069257Y-41433351D01*
X136100000Y-41278793D01*
X136100000Y-41121207D01*
X136069257Y-40966649D01*
X136008951Y-40821058D01*
X135921401Y-40690030D01*
X135825000Y-40593629D01*
X135825000Y-40300189D01*
X147730094Y-40300189D01*
X147792559Y-40540091D01*
X147983837Y-40961989D01*
X148253748Y-41338464D01*
X148591919Y-41655048D01*
X148985355Y-41899575D01*
X149418936Y-42062648D01*
X149876000Y-42138000D01*
X151626000Y-42138000D01*
X151626000Y-39934000D01*
X151934000Y-39934000D01*
X151934000Y-42138000D01*
X153684000Y-42138000D01*
X154141064Y-42062648D01*
X154574645Y-41899575D01*
X154968081Y-41655048D01*
X155306252Y-41338464D01*
X155576163Y-40961989D01*
X155767441Y-40540091D01*
X155829906Y-40300189D01*
X155730618Y-39934000D01*
X151934000Y-39934000D01*
X151626000Y-39934000D01*
X147829382Y-39934000D01*
X147730094Y-40300189D01*
X135825000Y-40300189D01*
X135825000Y-39506371D01*
X135921401Y-39409970D01*
X136008951Y-39278942D01*
X136016875Y-39259811D01*
X147730094Y-39259811D01*
X147829382Y-39626000D01*
X151626000Y-39626000D01*
X151626000Y-37422000D01*
X151934000Y-37422000D01*
X151934000Y-39626000D01*
X155730618Y-39626000D01*
X155829906Y-39259811D01*
X155767441Y-39019909D01*
X155576163Y-38598011D01*
X155306252Y-38221536D01*
X154968081Y-37904952D01*
X154574645Y-37660425D01*
X154141064Y-37497352D01*
X153684000Y-37422000D01*
X151934000Y-37422000D01*
X151626000Y-37422000D01*
X149876000Y-37422000D01*
X149418936Y-37497352D01*
X148985355Y-37660425D01*
X148591919Y-37904952D01*
X148253748Y-38221536D01*
X147983837Y-38598011D01*
X147792559Y-39019909D01*
X147730094Y-39259811D01*
X136016875Y-39259811D01*
X136069257Y-39133351D01*
X136100000Y-38978793D01*
X136100000Y-38821207D01*
X136069257Y-38666649D01*
X136008951Y-38521058D01*
X135921401Y-38390030D01*
X135809970Y-38278599D01*
X135678942Y-38191049D01*
X135533351Y-38130743D01*
X135378793Y-38100000D01*
X135221207Y-38100000D01*
X135066649Y-38130743D01*
X134921058Y-38191049D01*
X134790030Y-38278599D01*
X134678599Y-38390030D01*
X134591049Y-38521058D01*
X134530743Y-38666649D01*
X134500000Y-38821207D01*
X134500000Y-38978793D01*
X134530743Y-39133351D01*
X134591049Y-39278942D01*
X134678599Y-39409970D01*
X134775001Y-39506372D01*
X134775000Y-40593629D01*
X134678599Y-40690030D01*
X134591049Y-40821058D01*
X134530743Y-40966649D01*
X134500000Y-41121207D01*
X134500000Y-41278793D01*
X134530743Y-41433351D01*
X134591049Y-41578942D01*
X134678599Y-41709970D01*
X134775001Y-41806372D01*
X134775000Y-46582537D01*
X134282539Y-47075000D01*
X134106371Y-47075000D01*
X134009970Y-46978599D01*
X133878942Y-46891049D01*
X133733351Y-46830743D01*
X133578793Y-46800000D01*
X133421207Y-46800000D01*
X133266649Y-46830743D01*
X133121058Y-46891049D01*
X132990030Y-46978599D01*
X132878599Y-47090030D01*
X132791049Y-47221058D01*
X132730743Y-47366649D01*
X132700000Y-47521207D01*
X126763669Y-47521207D01*
X126200000Y-46957539D01*
X126200000Y-46821207D01*
X126169257Y-46666649D01*
X126108951Y-46521058D01*
X126021401Y-46390030D01*
X125909970Y-46278599D01*
X125778942Y-46191049D01*
X125633351Y-46130743D01*
X125478793Y-46100000D01*
X125321207Y-46100000D01*
X125166649Y-46130743D01*
X125021058Y-46191049D01*
X124890030Y-46278599D01*
X124793629Y-46375000D01*
X124225779Y-46375000D01*
X124199999Y-46372461D01*
X124174219Y-46375000D01*
X124174212Y-46375000D01*
X124097082Y-46382597D01*
X123998119Y-46412617D01*
X123906914Y-46461367D01*
X123826973Y-46526973D01*
X123810534Y-46547004D01*
X122347010Y-48010529D01*
X122326973Y-48026973D01*
X122261367Y-48106914D01*
X122212617Y-48198120D01*
X122182597Y-48297083D01*
X122175000Y-48374213D01*
X122175000Y-48374220D01*
X122172461Y-48400000D01*
X122175000Y-48425780D01*
X122175000Y-48495522D01*
X122169257Y-48466649D01*
X122108951Y-48321058D01*
X122021401Y-48190030D01*
X121909970Y-48078599D01*
X121778942Y-47991049D01*
X121633351Y-47930743D01*
X121478793Y-47900000D01*
X121342462Y-47900000D01*
X120925000Y-47482539D01*
X120925000Y-39806371D01*
X121021401Y-39709970D01*
X121108951Y-39578942D01*
X121169257Y-39433351D01*
X121200000Y-39278793D01*
X121200000Y-39142461D01*
X121721254Y-38621207D01*
X128700000Y-38621207D01*
X128700000Y-38778793D01*
X128730743Y-38933351D01*
X128791049Y-39078942D01*
X128878599Y-39209970D01*
X128990030Y-39321401D01*
X129121058Y-39408951D01*
X129266649Y-39469257D01*
X129421207Y-39500000D01*
X129557539Y-39500000D01*
X130475000Y-40417462D01*
X130475001Y-43093628D01*
X130378599Y-43190030D01*
X130291049Y-43321058D01*
X130230743Y-43466649D01*
X130200000Y-43621207D01*
X130200000Y-43778793D01*
X130230743Y-43933351D01*
X130291049Y-44078942D01*
X130378599Y-44209970D01*
X130490030Y-44321401D01*
X130621058Y-44408951D01*
X130766649Y-44469257D01*
X130921207Y-44500000D01*
X131078793Y-44500000D01*
X131233351Y-44469257D01*
X131378942Y-44408951D01*
X131509970Y-44321401D01*
X131621401Y-44209970D01*
X131708951Y-44078942D01*
X131769257Y-43933351D01*
X131800000Y-43778793D01*
X131800000Y-43621207D01*
X131769257Y-43466649D01*
X131708951Y-43321058D01*
X131621401Y-43190030D01*
X131525000Y-43093629D01*
X131525000Y-40225779D01*
X131527539Y-40199999D01*
X131525000Y-40174219D01*
X131525000Y-40174212D01*
X131517403Y-40097082D01*
X131487383Y-39998119D01*
X131438633Y-39906914D01*
X131373027Y-39826973D01*
X131352996Y-39810534D01*
X130300000Y-38757539D01*
X130300000Y-38621207D01*
X130269257Y-38466649D01*
X130208951Y-38321058D01*
X130121401Y-38190030D01*
X130009970Y-38078599D01*
X129878942Y-37991049D01*
X129733351Y-37930743D01*
X129578793Y-37900000D01*
X129421207Y-37900000D01*
X129266649Y-37930743D01*
X129121058Y-37991049D01*
X128990030Y-38078599D01*
X128878599Y-38190030D01*
X128791049Y-38321058D01*
X128730743Y-38466649D01*
X128700000Y-38621207D01*
X121721254Y-38621207D01*
X124452996Y-35889466D01*
X124473027Y-35873027D01*
X124538633Y-35793086D01*
X124587383Y-35701881D01*
X124617403Y-35602918D01*
X124625000Y-35525788D01*
X124625000Y-35525781D01*
X124627539Y-35500001D01*
X124625000Y-35474221D01*
X124625000Y-33618910D01*
X132392097Y-33618910D01*
X132418854Y-33707139D01*
X132536527Y-33967611D01*
X132702754Y-34200122D01*
X132911148Y-34395736D01*
X133153700Y-34546935D01*
X133421089Y-34647909D01*
X133646000Y-34537850D01*
X133646000Y-33394000D01*
X133954000Y-33394000D01*
X133954000Y-34537850D01*
X134178911Y-34647909D01*
X134446300Y-34546935D01*
X134688852Y-34395736D01*
X134897246Y-34200122D01*
X135063473Y-33967611D01*
X135181146Y-33707139D01*
X135207903Y-33618910D01*
X135096889Y-33394000D01*
X133954000Y-33394000D01*
X133646000Y-33394000D01*
X132503111Y-33394000D01*
X132392097Y-33618910D01*
X124625000Y-33618910D01*
X124625000Y-33217461D01*
X124981371Y-32861090D01*
X132392097Y-32861090D01*
X132503111Y-33086000D01*
X133646000Y-33086000D01*
X133646000Y-33066000D01*
X133954000Y-33066000D01*
X133954000Y-33086000D01*
X135096889Y-33086000D01*
X135207903Y-32861090D01*
X135181146Y-32772861D01*
X135071900Y-32531042D01*
X144891769Y-32531042D01*
X144993733Y-32814197D01*
X145145499Y-33046712D01*
X145339711Y-33245151D01*
X145568904Y-33401889D01*
X145824272Y-33510902D01*
X145949389Y-33537193D01*
X145788558Y-33585981D01*
X145580090Y-33697409D01*
X145397366Y-33847366D01*
X145247409Y-34030090D01*
X145135981Y-34238558D01*
X145067363Y-34464759D01*
X145044194Y-34700000D01*
X145067363Y-34935241D01*
X145135981Y-35161442D01*
X145247409Y-35369910D01*
X145397366Y-35552634D01*
X145580090Y-35702591D01*
X145788558Y-35814019D01*
X146014759Y-35882637D01*
X146191050Y-35900000D01*
X147208950Y-35900000D01*
X147385241Y-35882637D01*
X147611442Y-35814019D01*
X147819910Y-35702591D01*
X148002634Y-35552634D01*
X148152591Y-35369910D01*
X148264019Y-35161442D01*
X148332637Y-34935241D01*
X148355806Y-34700000D01*
X148332637Y-34464759D01*
X148264019Y-34238558D01*
X148152591Y-34030090D01*
X148002634Y-33847366D01*
X147819910Y-33697409D01*
X147611442Y-33585981D01*
X147450611Y-33537193D01*
X147575728Y-33510902D01*
X147831096Y-33401889D01*
X148060289Y-33245151D01*
X148254501Y-33046712D01*
X148406267Y-32814197D01*
X148508231Y-32531042D01*
X148396523Y-32314000D01*
X146854000Y-32314000D01*
X146854000Y-32334000D01*
X146546000Y-32334000D01*
X146546000Y-32314000D01*
X145003477Y-32314000D01*
X144891769Y-32531042D01*
X135071900Y-32531042D01*
X135063473Y-32512389D01*
X134897246Y-32279878D01*
X134688852Y-32084264D01*
X134476571Y-31951935D01*
X134650000Y-31951935D01*
X134728414Y-31944212D01*
X134803814Y-31921340D01*
X134873303Y-31884197D01*
X134934211Y-31834211D01*
X134971349Y-31788958D01*
X144891769Y-31788958D01*
X145003477Y-32006000D01*
X146546000Y-32006000D01*
X146546000Y-30752000D01*
X146854000Y-30752000D01*
X146854000Y-32006000D01*
X148396523Y-32006000D01*
X148508231Y-31788958D01*
X148406267Y-31505803D01*
X148254501Y-31273288D01*
X148060289Y-31074849D01*
X147831096Y-30918111D01*
X147575728Y-30809098D01*
X147304000Y-30752000D01*
X146854000Y-30752000D01*
X146546000Y-30752000D01*
X146096000Y-30752000D01*
X145824272Y-30809098D01*
X145568904Y-30918111D01*
X145339711Y-31074849D01*
X145145499Y-31273288D01*
X144993733Y-31505803D01*
X144891769Y-31788958D01*
X134971349Y-31788958D01*
X134984197Y-31773303D01*
X135021340Y-31703814D01*
X135044212Y-31628414D01*
X135051935Y-31550000D01*
X135051935Y-30140189D01*
X147730094Y-30140189D01*
X147792559Y-30380091D01*
X147983837Y-30801989D01*
X148253748Y-31178464D01*
X148591919Y-31495048D01*
X148985355Y-31739575D01*
X149418936Y-31902648D01*
X149876000Y-31978000D01*
X151626000Y-31978000D01*
X151626000Y-29774000D01*
X151934000Y-29774000D01*
X151934000Y-31978000D01*
X153684000Y-31978000D01*
X154141064Y-31902648D01*
X154574645Y-31739575D01*
X154968081Y-31495048D01*
X155306252Y-31178464D01*
X155576163Y-30801989D01*
X155767441Y-30380091D01*
X155829906Y-30140189D01*
X155730618Y-29774000D01*
X151934000Y-29774000D01*
X151626000Y-29774000D01*
X147829382Y-29774000D01*
X147730094Y-30140189D01*
X135051935Y-30140189D01*
X135051935Y-29850000D01*
X135044212Y-29771586D01*
X135021340Y-29696186D01*
X134984197Y-29626697D01*
X134934211Y-29565789D01*
X134873303Y-29515803D01*
X134803814Y-29478660D01*
X134728414Y-29455788D01*
X134650000Y-29448065D01*
X132950000Y-29448065D01*
X132871586Y-29455788D01*
X132796186Y-29478660D01*
X132726697Y-29515803D01*
X132665789Y-29565789D01*
X132615803Y-29626697D01*
X132578660Y-29696186D01*
X132555788Y-29771586D01*
X132548065Y-29850000D01*
X132548065Y-31550000D01*
X132555788Y-31628414D01*
X132578660Y-31703814D01*
X132615803Y-31773303D01*
X132665789Y-31834211D01*
X132726697Y-31884197D01*
X132796186Y-31921340D01*
X132871586Y-31944212D01*
X132950000Y-31951935D01*
X133123429Y-31951935D01*
X132911148Y-32084264D01*
X132702754Y-32279878D01*
X132536527Y-32512389D01*
X132418854Y-32772861D01*
X132392097Y-32861090D01*
X124981371Y-32861090D01*
X127142462Y-30700000D01*
X127278793Y-30700000D01*
X127433351Y-30669257D01*
X127578942Y-30608951D01*
X127709970Y-30521401D01*
X127821401Y-30409970D01*
X127908951Y-30278942D01*
X127969257Y-30133351D01*
X128000000Y-29978793D01*
X128000000Y-29821207D01*
X127969257Y-29666649D01*
X127908951Y-29521058D01*
X127821401Y-29390030D01*
X127709970Y-29278599D01*
X127578942Y-29191049D01*
X127433351Y-29130743D01*
X127278793Y-29100000D01*
X127121207Y-29100000D01*
X126966649Y-29130743D01*
X126821058Y-29191049D01*
X126690030Y-29278599D01*
X126578599Y-29390030D01*
X126491049Y-29521058D01*
X126430743Y-29666649D01*
X126400000Y-29821207D01*
X126400000Y-29957538D01*
X123747005Y-32610534D01*
X123726974Y-32626973D01*
X123710535Y-32647004D01*
X123661367Y-32706915D01*
X123612617Y-32798120D01*
X123582597Y-32897083D01*
X123572461Y-33000000D01*
X123575001Y-33025790D01*
X123575000Y-35282538D01*
X120457539Y-38400000D01*
X120321207Y-38400000D01*
X120166649Y-38430743D01*
X120021058Y-38491049D01*
X119890030Y-38578599D01*
X119778599Y-38690030D01*
X119691049Y-38821058D01*
X119630743Y-38966649D01*
X119600000Y-39121207D01*
X119600000Y-39278793D01*
X119630743Y-39433351D01*
X119691049Y-39578942D01*
X119778599Y-39709970D01*
X119875000Y-39806371D01*
X119875001Y-47674210D01*
X119872461Y-47700000D01*
X119882597Y-47802917D01*
X119912617Y-47901880D01*
X119960279Y-47991049D01*
X119961368Y-47993086D01*
X120026974Y-48073027D01*
X120047005Y-48089466D01*
X120600000Y-48642462D01*
X120600000Y-48778793D01*
X120630743Y-48933351D01*
X120691049Y-49078942D01*
X120778599Y-49209970D01*
X120890030Y-49321401D01*
X121021058Y-49408951D01*
X121166649Y-49469257D01*
X121321207Y-49500000D01*
X121478793Y-49500000D01*
X121633351Y-49469257D01*
X121778942Y-49408951D01*
X121909970Y-49321401D01*
X122021401Y-49209970D01*
X122108951Y-49078942D01*
X122169257Y-48933351D01*
X122175000Y-48904477D01*
X122175001Y-50182536D01*
X118747010Y-53610529D01*
X118726973Y-53626973D01*
X118661367Y-53706914D01*
X118612617Y-53798120D01*
X118582597Y-53897083D01*
X118575000Y-53974213D01*
X118575000Y-53974220D01*
X118572461Y-54000000D01*
X118575000Y-54025780D01*
X118575001Y-54893628D01*
X118478599Y-54990030D01*
X118391049Y-55121058D01*
X118330743Y-55266649D01*
X118300000Y-55421207D01*
X100425000Y-55421207D01*
X100425000Y-53496886D01*
X102350000Y-53496886D01*
X102350000Y-53743114D01*
X102398037Y-53984611D01*
X102492265Y-54212097D01*
X102629062Y-54416828D01*
X102803172Y-54590938D01*
X103007903Y-54727735D01*
X103235389Y-54821963D01*
X103476886Y-54870000D01*
X103723114Y-54870000D01*
X103964611Y-54821963D01*
X104192097Y-54727735D01*
X104396828Y-54590938D01*
X104570938Y-54416828D01*
X104707735Y-54212097D01*
X104801963Y-53984611D01*
X104850000Y-53743114D01*
X104850000Y-53496886D01*
X104801963Y-53255389D01*
X104707735Y-53027903D01*
X104570938Y-52823172D01*
X104396828Y-52649062D01*
X104192097Y-52512265D01*
X103964611Y-52418037D01*
X103723114Y-52370000D01*
X103476886Y-52370000D01*
X103235389Y-52418037D01*
X103007903Y-52512265D01*
X102803172Y-52649062D01*
X102629062Y-52823172D01*
X102492265Y-53027903D01*
X102398037Y-53255389D01*
X102350000Y-53496886D01*
X100425000Y-53496886D01*
X100425000Y-50956886D01*
X102350000Y-50956886D01*
X102350000Y-51203114D01*
X102398037Y-51444611D01*
X102492265Y-51672097D01*
X102629062Y-51876828D01*
X102803172Y-52050938D01*
X103007903Y-52187735D01*
X103235389Y-52281963D01*
X103476886Y-52330000D01*
X103723114Y-52330000D01*
X103964611Y-52281963D01*
X104192097Y-52187735D01*
X104396828Y-52050938D01*
X104570938Y-51876828D01*
X104707735Y-51672097D01*
X104801963Y-51444611D01*
X104850000Y-51203114D01*
X104850000Y-50956886D01*
X104801963Y-50715389D01*
X104707735Y-50487903D01*
X104570938Y-50283172D01*
X104396828Y-50109062D01*
X104192097Y-49972265D01*
X103964611Y-49878037D01*
X103723114Y-49830000D01*
X103476886Y-49830000D01*
X103235389Y-49878037D01*
X103007903Y-49972265D01*
X102803172Y-50109062D01*
X102629062Y-50283172D01*
X102492265Y-50487903D01*
X102398037Y-50715389D01*
X102350000Y-50956886D01*
X100425000Y-50956886D01*
X100425000Y-48416886D01*
X102350000Y-48416886D01*
X102350000Y-48663114D01*
X102398037Y-48904611D01*
X102492265Y-49132097D01*
X102629062Y-49336828D01*
X102803172Y-49510938D01*
X103007903Y-49647735D01*
X103235389Y-49741963D01*
X103476886Y-49790000D01*
X103723114Y-49790000D01*
X103964611Y-49741963D01*
X104192097Y-49647735D01*
X104396828Y-49510938D01*
X104570938Y-49336828D01*
X104707735Y-49132097D01*
X104801963Y-48904611D01*
X104850000Y-48663114D01*
X104850000Y-48416886D01*
X104801963Y-48175389D01*
X104707735Y-47947903D01*
X104570938Y-47743172D01*
X104396828Y-47569062D01*
X104192097Y-47432265D01*
X103964611Y-47338037D01*
X103723114Y-47290000D01*
X103476886Y-47290000D01*
X103235389Y-47338037D01*
X103007903Y-47432265D01*
X102803172Y-47569062D01*
X102629062Y-47743172D01*
X102492265Y-47947903D01*
X102398037Y-48175389D01*
X102350000Y-48416886D01*
X100425000Y-48416886D01*
X100425000Y-45150000D01*
X102348065Y-45150000D01*
X102348065Y-46850000D01*
X102355788Y-46928414D01*
X102378660Y-47003814D01*
X102415803Y-47073303D01*
X102465789Y-47134211D01*
X102526697Y-47184197D01*
X102596186Y-47221340D01*
X102671586Y-47244212D01*
X102750000Y-47251935D01*
X104450000Y-47251935D01*
X104528414Y-47244212D01*
X104603814Y-47221340D01*
X104673303Y-47184197D01*
X104734211Y-47134211D01*
X104784197Y-47073303D01*
X104821340Y-47003814D01*
X104844212Y-46928414D01*
X104851935Y-46850000D01*
X104851935Y-45150000D01*
X104844212Y-45071586D01*
X104821340Y-44996186D01*
X104784197Y-44926697D01*
X104734211Y-44865789D01*
X104673303Y-44815803D01*
X104603814Y-44778660D01*
X104528414Y-44755788D01*
X104450000Y-44748065D01*
X102750000Y-44748065D01*
X102671586Y-44755788D01*
X102596186Y-44778660D01*
X102526697Y-44815803D01*
X102465789Y-44865789D01*
X102415803Y-44926697D01*
X102378660Y-44996186D01*
X102355788Y-45071586D01*
X102348065Y-45150000D01*
X100425000Y-45150000D01*
X100425000Y-36578911D01*
X116352091Y-36578911D01*
X116453065Y-36846300D01*
X116604264Y-37088852D01*
X116799878Y-37297246D01*
X117032389Y-37463473D01*
X117292861Y-37581146D01*
X117381090Y-37607903D01*
X117606000Y-37496889D01*
X117606000Y-36354000D01*
X116462150Y-36354000D01*
X116352091Y-36578911D01*
X100425000Y-36578911D01*
X100425000Y-35821089D01*
X116352091Y-35821089D01*
X116462150Y-36046000D01*
X117606000Y-36046000D01*
X117606000Y-34903111D01*
X117914000Y-34903111D01*
X117914000Y-36046000D01*
X117934000Y-36046000D01*
X117934000Y-36354000D01*
X117914000Y-36354000D01*
X117914000Y-37496889D01*
X118138910Y-37607903D01*
X118227139Y-37581146D01*
X118487611Y-37463473D01*
X118720122Y-37297246D01*
X118915736Y-37088852D01*
X119048065Y-36876571D01*
X119048065Y-37050000D01*
X119055788Y-37128414D01*
X119078660Y-37203814D01*
X119115803Y-37273303D01*
X119165789Y-37334211D01*
X119226697Y-37384197D01*
X119296186Y-37421340D01*
X119371586Y-37444212D01*
X119450000Y-37451935D01*
X121150000Y-37451935D01*
X121228414Y-37444212D01*
X121303814Y-37421340D01*
X121373303Y-37384197D01*
X121434211Y-37334211D01*
X121484197Y-37273303D01*
X121521340Y-37203814D01*
X121544212Y-37128414D01*
X121551935Y-37050000D01*
X121551935Y-35350000D01*
X121544212Y-35271586D01*
X121521340Y-35196186D01*
X121484197Y-35126697D01*
X121434211Y-35065789D01*
X121373303Y-35015803D01*
X121303814Y-34978660D01*
X121228414Y-34955788D01*
X121150000Y-34948065D01*
X119450000Y-34948065D01*
X119371586Y-34955788D01*
X119296186Y-34978660D01*
X119226697Y-35015803D01*
X119165789Y-35065789D01*
X119115803Y-35126697D01*
X119078660Y-35196186D01*
X119055788Y-35271586D01*
X119048065Y-35350000D01*
X119048065Y-35523429D01*
X118915736Y-35311148D01*
X118720122Y-35102754D01*
X118487611Y-34936527D01*
X118227139Y-34818854D01*
X118138910Y-34792097D01*
X117914000Y-34903111D01*
X117606000Y-34903111D01*
X117381090Y-34792097D01*
X117292861Y-34818854D01*
X117032389Y-34936527D01*
X116799878Y-35102754D01*
X116604264Y-35311148D01*
X116453065Y-35553700D01*
X116352091Y-35821089D01*
X100425000Y-35821089D01*
X100425000Y-29099811D01*
X147730094Y-29099811D01*
X147829382Y-29466000D01*
X151626000Y-29466000D01*
X151626000Y-27262000D01*
X151934000Y-27262000D01*
X151934000Y-29466000D01*
X155730618Y-29466000D01*
X155829906Y-29099811D01*
X155767441Y-28859909D01*
X155576163Y-28438011D01*
X155306252Y-28061536D01*
X154968081Y-27744952D01*
X154574645Y-27500425D01*
X154141064Y-27337352D01*
X153684000Y-27262000D01*
X151934000Y-27262000D01*
X151626000Y-27262000D01*
X149876000Y-27262000D01*
X149418936Y-27337352D01*
X148985355Y-27500425D01*
X148591919Y-27744952D01*
X148253748Y-28061536D01*
X147983837Y-28438011D01*
X147792559Y-28859909D01*
X147730094Y-29099811D01*
X100425000Y-29099811D01*
X100425000Y-25425000D01*
X159575001Y-25425000D01*
X159575000Y-69575000D01*
%TA.AperFunction,Conductor*%
D17*
G36*
X159575000Y-69575000D02*
G01*
X100425000Y-69575000D01*
X100425000Y-64950000D01*
X125739058Y-64950000D01*
X125750797Y-65069189D01*
X125785563Y-65183797D01*
X125842020Y-65289421D01*
X125917999Y-65382001D01*
X126010579Y-65457980D01*
X126116203Y-65514437D01*
X126230811Y-65549203D01*
X126350000Y-65560942D01*
X126894000Y-65558000D01*
X127046000Y-65406000D01*
X127046000Y-64254000D01*
X125894000Y-64254000D01*
X125742000Y-64406000D01*
X125739058Y-64950000D01*
X100425000Y-64950000D01*
X100425000Y-63250000D01*
X125739058Y-63250000D01*
X125742000Y-63794000D01*
X125894000Y-63946000D01*
X127046000Y-63946000D01*
X127046000Y-62794000D01*
X127354000Y-62794000D01*
X127354000Y-63946000D01*
X127374000Y-63946000D01*
X127374000Y-64254000D01*
X127354000Y-64254000D01*
X127354000Y-65406000D01*
X127506000Y-65558000D01*
X128050000Y-65560942D01*
X128169189Y-65549203D01*
X128283797Y-65514437D01*
X128389421Y-65457980D01*
X128482001Y-65382001D01*
X128557980Y-65289421D01*
X128614437Y-65183797D01*
X128649203Y-65069189D01*
X128660942Y-64950000D01*
X128659770Y-64733261D01*
X128769062Y-64896828D01*
X128943172Y-65070938D01*
X129147903Y-65207735D01*
X129375389Y-65301963D01*
X129616886Y-65350000D01*
X129863114Y-65350000D01*
X130104611Y-65301963D01*
X130332097Y-65207735D01*
X130536828Y-65070938D01*
X130710938Y-64896828D01*
X130847735Y-64692097D01*
X130941963Y-64464611D01*
X130990000Y-64223114D01*
X130990000Y-63976886D01*
X131030000Y-63976886D01*
X131030000Y-64223114D01*
X131078037Y-64464611D01*
X131172265Y-64692097D01*
X131309062Y-64896828D01*
X131483172Y-65070938D01*
X131687903Y-65207735D01*
X131915389Y-65301963D01*
X132156886Y-65350000D01*
X132403114Y-65350000D01*
X132644611Y-65301963D01*
X132872097Y-65207735D01*
X133076828Y-65070938D01*
X133250938Y-64896828D01*
X133387735Y-64692097D01*
X133481963Y-64464611D01*
X133530000Y-64223114D01*
X133530000Y-63976886D01*
X133570000Y-63976886D01*
X133570000Y-64223114D01*
X133618037Y-64464611D01*
X133712265Y-64692097D01*
X133849062Y-64896828D01*
X134023172Y-65070938D01*
X134227903Y-65207735D01*
X134455389Y-65301963D01*
X134696886Y-65350000D01*
X134943114Y-65350000D01*
X135184611Y-65301963D01*
X135412097Y-65207735D01*
X135423390Y-65200189D01*
X147730094Y-65200189D01*
X147792559Y-65440091D01*
X147983837Y-65861989D01*
X148253748Y-66238464D01*
X148591919Y-66555048D01*
X148985355Y-66799575D01*
X149418936Y-66962648D01*
X149876000Y-67038000D01*
X151626000Y-67038000D01*
X151626000Y-64834000D01*
X151934000Y-64834000D01*
X151934000Y-67038000D01*
X153684000Y-67038000D01*
X154141064Y-66962648D01*
X154574645Y-66799575D01*
X154968081Y-66555048D01*
X155306252Y-66238464D01*
X155576163Y-65861989D01*
X155767441Y-65440091D01*
X155829906Y-65200189D01*
X155730618Y-64834000D01*
X151934000Y-64834000D01*
X151626000Y-64834000D01*
X147829382Y-64834000D01*
X147730094Y-65200189D01*
X135423390Y-65200189D01*
X135616828Y-65070938D01*
X135790938Y-64896828D01*
X135927735Y-64692097D01*
X136021963Y-64464611D01*
X136070000Y-64223114D01*
X136070000Y-64159811D01*
X147730094Y-64159811D01*
X147829382Y-64526000D01*
X151626000Y-64526000D01*
X151626000Y-62322000D01*
X151934000Y-62322000D01*
X151934000Y-64526000D01*
X155730618Y-64526000D01*
X155829906Y-64159811D01*
X155767441Y-63919909D01*
X155576163Y-63498011D01*
X155306252Y-63121536D01*
X154968081Y-62804952D01*
X154574645Y-62560425D01*
X154141064Y-62397352D01*
X153684000Y-62322000D01*
X151934000Y-62322000D01*
X151626000Y-62322000D01*
X149876000Y-62322000D01*
X149418936Y-62397352D01*
X148985355Y-62560425D01*
X148591919Y-62804952D01*
X148253748Y-63121536D01*
X147983837Y-63498011D01*
X147792559Y-63919909D01*
X147730094Y-64159811D01*
X136070000Y-64159811D01*
X136070000Y-63976886D01*
X136021963Y-63735389D01*
X135927735Y-63507903D01*
X135790938Y-63303172D01*
X135616828Y-63129062D01*
X135412097Y-62992265D01*
X135184611Y-62898037D01*
X134943114Y-62850000D01*
X134696886Y-62850000D01*
X134455389Y-62898037D01*
X134227903Y-62992265D01*
X134023172Y-63129062D01*
X133849062Y-63303172D01*
X133712265Y-63507903D01*
X133618037Y-63735389D01*
X133570000Y-63976886D01*
X133530000Y-63976886D01*
X133481963Y-63735389D01*
X133387735Y-63507903D01*
X133250938Y-63303172D01*
X133076828Y-63129062D01*
X132872097Y-62992265D01*
X132644611Y-62898037D01*
X132403114Y-62850000D01*
X132156886Y-62850000D01*
X131915389Y-62898037D01*
X131687903Y-62992265D01*
X131483172Y-63129062D01*
X131309062Y-63303172D01*
X131172265Y-63507903D01*
X131078037Y-63735389D01*
X131030000Y-63976886D01*
X130990000Y-63976886D01*
X130941963Y-63735389D01*
X130847735Y-63507903D01*
X130710938Y-63303172D01*
X130536828Y-63129062D01*
X130332097Y-62992265D01*
X130104611Y-62898037D01*
X129863114Y-62850000D01*
X129616886Y-62850000D01*
X129375389Y-62898037D01*
X129147903Y-62992265D01*
X128943172Y-63129062D01*
X128769062Y-63303172D01*
X128659770Y-63466739D01*
X128660942Y-63250000D01*
X128649203Y-63130811D01*
X128614437Y-63016203D01*
X128557980Y-62910579D01*
X128482001Y-62817999D01*
X128389421Y-62742020D01*
X128283797Y-62685563D01*
X128169189Y-62650797D01*
X128050000Y-62639058D01*
X127506000Y-62642000D01*
X127354000Y-62794000D01*
X127046000Y-62794000D01*
X126894000Y-62642000D01*
X126350000Y-62639058D01*
X126230811Y-62650797D01*
X126116203Y-62685563D01*
X126010579Y-62742020D01*
X125917999Y-62817999D01*
X125842020Y-62910579D01*
X125785563Y-63016203D01*
X125750797Y-63130811D01*
X125739058Y-63250000D01*
X100425000Y-63250000D01*
X100425000Y-60478911D01*
X116852091Y-60478911D01*
X116953065Y-60746300D01*
X117104264Y-60988852D01*
X117299878Y-61197246D01*
X117532389Y-61363473D01*
X117792861Y-61481146D01*
X117881090Y-61507903D01*
X118106000Y-61396889D01*
X118106000Y-60254000D01*
X116962150Y-60254000D01*
X116852091Y-60478911D01*
X100425000Y-60478911D01*
X100425000Y-59721089D01*
X116852091Y-59721089D01*
X116962150Y-59946000D01*
X118106000Y-59946000D01*
X118106000Y-58803111D01*
X118414000Y-58803111D01*
X118414000Y-59946000D01*
X118434000Y-59946000D01*
X118434000Y-60254000D01*
X118414000Y-60254000D01*
X118414000Y-61396889D01*
X118638910Y-61507903D01*
X118727139Y-61481146D01*
X118987611Y-61363473D01*
X119220122Y-61197246D01*
X119415736Y-60988852D01*
X119548065Y-60776571D01*
X119548065Y-60950000D01*
X119555788Y-61028414D01*
X119578660Y-61103814D01*
X119615803Y-61173303D01*
X119665789Y-61234211D01*
X119726697Y-61284197D01*
X119796186Y-61321340D01*
X119871586Y-61344212D01*
X119950000Y-61351935D01*
X121650000Y-61351935D01*
X121728414Y-61344212D01*
X121803814Y-61321340D01*
X121873303Y-61284197D01*
X121934211Y-61234211D01*
X121984197Y-61173303D01*
X122021340Y-61103814D01*
X122044212Y-61028414D01*
X122051935Y-60950000D01*
X122051935Y-59250000D01*
X122044212Y-59171586D01*
X122021340Y-59096186D01*
X121984197Y-59026697D01*
X121934211Y-58965789D01*
X121873303Y-58915803D01*
X121803814Y-58878660D01*
X121728414Y-58855788D01*
X121650000Y-58848065D01*
X119950000Y-58848065D01*
X119871586Y-58855788D01*
X119796186Y-58878660D01*
X119726697Y-58915803D01*
X119665789Y-58965789D01*
X119615803Y-59026697D01*
X119578660Y-59096186D01*
X119555788Y-59171586D01*
X119548065Y-59250000D01*
X119548065Y-59423429D01*
X119415736Y-59211148D01*
X119220122Y-59002754D01*
X118987611Y-58836527D01*
X118727139Y-58718854D01*
X118638910Y-58692097D01*
X118414000Y-58803111D01*
X118106000Y-58803111D01*
X117881090Y-58692097D01*
X117792861Y-58718854D01*
X117532389Y-58836527D01*
X117299878Y-59002754D01*
X117104264Y-59211148D01*
X116953065Y-59453700D01*
X116852091Y-59721089D01*
X100425000Y-59721089D01*
X100425000Y-56918910D01*
X136992097Y-56918910D01*
X137018854Y-57007139D01*
X137136527Y-57267611D01*
X137302754Y-57500122D01*
X137511148Y-57695736D01*
X137753700Y-57846935D01*
X138021089Y-57947909D01*
X138246000Y-57837850D01*
X138246000Y-56694000D01*
X138554000Y-56694000D01*
X138554000Y-57837850D01*
X138778911Y-57947909D01*
X139046300Y-57846935D01*
X139288852Y-57695736D01*
X139497246Y-57500122D01*
X139546632Y-57431042D01*
X144891769Y-57431042D01*
X144993733Y-57714197D01*
X145145499Y-57946712D01*
X145339711Y-58145151D01*
X145568904Y-58301889D01*
X145824272Y-58410902D01*
X145949389Y-58437193D01*
X145788558Y-58485981D01*
X145580090Y-58597409D01*
X145397366Y-58747366D01*
X145247409Y-58930090D01*
X145135981Y-59138558D01*
X145067363Y-59364759D01*
X145044194Y-59600000D01*
X145067363Y-59835241D01*
X145135981Y-60061442D01*
X145247409Y-60269910D01*
X145397366Y-60452634D01*
X145580090Y-60602591D01*
X145788558Y-60714019D01*
X146014759Y-60782637D01*
X146191050Y-60800000D01*
X147208950Y-60800000D01*
X147385241Y-60782637D01*
X147611442Y-60714019D01*
X147819910Y-60602591D01*
X148002634Y-60452634D01*
X148152591Y-60269910D01*
X148264019Y-60061442D01*
X148332637Y-59835241D01*
X148355806Y-59600000D01*
X148332637Y-59364759D01*
X148264019Y-59138558D01*
X148152591Y-58930090D01*
X148002634Y-58747366D01*
X147819910Y-58597409D01*
X147611442Y-58485981D01*
X147450611Y-58437193D01*
X147575728Y-58410902D01*
X147831096Y-58301889D01*
X148060289Y-58145151D01*
X148254501Y-57946712D01*
X148406267Y-57714197D01*
X148508231Y-57431042D01*
X148396523Y-57214000D01*
X146854000Y-57214000D01*
X146854000Y-57234000D01*
X146546000Y-57234000D01*
X146546000Y-57214000D01*
X145003477Y-57214000D01*
X144891769Y-57431042D01*
X139546632Y-57431042D01*
X139663473Y-57267611D01*
X139781146Y-57007139D01*
X139807903Y-56918910D01*
X139696889Y-56694000D01*
X138554000Y-56694000D01*
X138246000Y-56694000D01*
X137103111Y-56694000D01*
X136992097Y-56918910D01*
X100425000Y-56918910D01*
X100425000Y-56688958D01*
X144891769Y-56688958D01*
X145003477Y-56906000D01*
X146546000Y-56906000D01*
X146546000Y-55652000D01*
X146854000Y-55652000D01*
X146854000Y-56906000D01*
X148396523Y-56906000D01*
X148508231Y-56688958D01*
X148406267Y-56405803D01*
X148254501Y-56173288D01*
X148060289Y-55974849D01*
X147831096Y-55818111D01*
X147575728Y-55709098D01*
X147304000Y-55652000D01*
X146854000Y-55652000D01*
X146546000Y-55652000D01*
X146096000Y-55652000D01*
X145824272Y-55709098D01*
X145568904Y-55818111D01*
X145339711Y-55974849D01*
X145145499Y-56173288D01*
X144993733Y-56405803D01*
X144891769Y-56688958D01*
X100425000Y-56688958D01*
X100425000Y-55421207D01*
X118300000Y-55421207D01*
X118300000Y-55578793D01*
X118330743Y-55733351D01*
X118391049Y-55878942D01*
X118478599Y-56009970D01*
X118590030Y-56121401D01*
X118721058Y-56208951D01*
X118866649Y-56269257D01*
X119021207Y-56300000D01*
X119178793Y-56300000D01*
X119333351Y-56269257D01*
X119478942Y-56208951D01*
X119550571Y-56161090D01*
X136992097Y-56161090D01*
X137103111Y-56386000D01*
X138246000Y-56386000D01*
X138246000Y-56366000D01*
X138554000Y-56366000D01*
X138554000Y-56386000D01*
X139696889Y-56386000D01*
X139807903Y-56161090D01*
X139781146Y-56072861D01*
X139663473Y-55812389D01*
X139497246Y-55579878D01*
X139288852Y-55384264D01*
X139076571Y-55251935D01*
X139250000Y-55251935D01*
X139328414Y-55244212D01*
X139403814Y-55221340D01*
X139473303Y-55184197D01*
X139534211Y-55134211D01*
X139584197Y-55073303D01*
X139601896Y-55040189D01*
X147730094Y-55040189D01*
X147792559Y-55280091D01*
X147983837Y-55701989D01*
X148253748Y-56078464D01*
X148591919Y-56395048D01*
X148985355Y-56639575D01*
X149418936Y-56802648D01*
X149876000Y-56878000D01*
X151626000Y-56878000D01*
X151626000Y-54674000D01*
X151934000Y-54674000D01*
X151934000Y-56878000D01*
X153684000Y-56878000D01*
X154141064Y-56802648D01*
X154574645Y-56639575D01*
X154968081Y-56395048D01*
X155306252Y-56078464D01*
X155576163Y-55701989D01*
X155767441Y-55280091D01*
X155829906Y-55040189D01*
X155730618Y-54674000D01*
X151934000Y-54674000D01*
X151626000Y-54674000D01*
X147829382Y-54674000D01*
X147730094Y-55040189D01*
X139601896Y-55040189D01*
X139621340Y-55003814D01*
X139644212Y-54928414D01*
X139651935Y-54850000D01*
X139651935Y-53999811D01*
X147730094Y-53999811D01*
X147829382Y-54366000D01*
X151626000Y-54366000D01*
X151626000Y-52162000D01*
X151934000Y-52162000D01*
X151934000Y-54366000D01*
X155730618Y-54366000D01*
X155829906Y-53999811D01*
X155767441Y-53759909D01*
X155576163Y-53338011D01*
X155306252Y-52961536D01*
X154968081Y-52644952D01*
X154574645Y-52400425D01*
X154141064Y-52237352D01*
X153684000Y-52162000D01*
X151934000Y-52162000D01*
X151626000Y-52162000D01*
X149876000Y-52162000D01*
X149418936Y-52237352D01*
X148985355Y-52400425D01*
X148591919Y-52644952D01*
X148253748Y-52961536D01*
X147983837Y-53338011D01*
X147792559Y-53759909D01*
X147730094Y-53999811D01*
X139651935Y-53999811D01*
X139651935Y-53150000D01*
X139644212Y-53071586D01*
X139621340Y-52996186D01*
X139584197Y-52926697D01*
X139534211Y-52865789D01*
X139473303Y-52815803D01*
X139403814Y-52778660D01*
X139328414Y-52755788D01*
X139250000Y-52748065D01*
X137550000Y-52748065D01*
X137471586Y-52755788D01*
X137396186Y-52778660D01*
X137326697Y-52815803D01*
X137265789Y-52865789D01*
X137215803Y-52926697D01*
X137178660Y-52996186D01*
X137155788Y-53071586D01*
X137148065Y-53150000D01*
X137148065Y-54850000D01*
X137155788Y-54928414D01*
X137178660Y-55003814D01*
X137215803Y-55073303D01*
X137265789Y-55134211D01*
X137326697Y-55184197D01*
X137396186Y-55221340D01*
X137471586Y-55244212D01*
X137550000Y-55251935D01*
X137723429Y-55251935D01*
X137511148Y-55384264D01*
X137302754Y-55579878D01*
X137136527Y-55812389D01*
X137018854Y-56072861D01*
X136992097Y-56161090D01*
X119550571Y-56161090D01*
X119609970Y-56121401D01*
X119721401Y-56009970D01*
X119808951Y-55878942D01*
X119869257Y-55733351D01*
X119900000Y-55578793D01*
X119900000Y-55421207D01*
X119869257Y-55266649D01*
X119808951Y-55121058D01*
X119721401Y-54990030D01*
X119625000Y-54893629D01*
X119625000Y-54217461D01*
X123053001Y-50789462D01*
X123073027Y-50773027D01*
X123089462Y-50753001D01*
X123089466Y-50752997D01*
X123138633Y-50693086D01*
X123187383Y-50601881D01*
X123217403Y-50502918D01*
X123224883Y-50426973D01*
X123225000Y-50425788D01*
X123225000Y-50425780D01*
X123227539Y-50400000D01*
X123225000Y-50374220D01*
X123225000Y-48617461D01*
X124417462Y-47425000D01*
X124793629Y-47425000D01*
X124890030Y-47521401D01*
X125021058Y-47608951D01*
X125166649Y-47669257D01*
X125321207Y-47700000D01*
X125457539Y-47700000D01*
X129975000Y-52217462D01*
X129975001Y-54393628D01*
X129878599Y-54490030D01*
X129791049Y-54621058D01*
X129730743Y-54766649D01*
X129700000Y-54921207D01*
X129700000Y-55078793D01*
X129730743Y-55233351D01*
X129791049Y-55378942D01*
X129878599Y-55509970D01*
X129990030Y-55621401D01*
X130121058Y-55708951D01*
X130266649Y-55769257D01*
X130421207Y-55800000D01*
X130578793Y-55800000D01*
X130733351Y-55769257D01*
X130878942Y-55708951D01*
X131009970Y-55621401D01*
X131121401Y-55509970D01*
X131208951Y-55378942D01*
X131269257Y-55233351D01*
X131300000Y-55078793D01*
X131300000Y-54921207D01*
X131269257Y-54766649D01*
X131208951Y-54621058D01*
X131121401Y-54490030D01*
X131025000Y-54393629D01*
X131025000Y-53221207D01*
X134500000Y-53221207D01*
X134500000Y-53378793D01*
X134530743Y-53533351D01*
X134591049Y-53678942D01*
X134678599Y-53809970D01*
X134790030Y-53921401D01*
X134921058Y-54008951D01*
X135066649Y-54069257D01*
X135221207Y-54100000D01*
X135378793Y-54100000D01*
X135533351Y-54069257D01*
X135678942Y-54008951D01*
X135809970Y-53921401D01*
X135921401Y-53809970D01*
X136008951Y-53678942D01*
X136069257Y-53533351D01*
X136100000Y-53378793D01*
X136100000Y-53221207D01*
X136069257Y-53066649D01*
X136008951Y-52921058D01*
X135921401Y-52790030D01*
X135825000Y-52693629D01*
X135825000Y-51378176D01*
X135909970Y-51321401D01*
X136021401Y-51209970D01*
X136108951Y-51078942D01*
X136169257Y-50933351D01*
X136200000Y-50778793D01*
X136200000Y-50621207D01*
X136169257Y-50466649D01*
X136108951Y-50321058D01*
X136021401Y-50190030D01*
X135909970Y-50078599D01*
X135778942Y-49991049D01*
X135633351Y-49930743D01*
X135478793Y-49900000D01*
X135321207Y-49900000D01*
X135166649Y-49930743D01*
X135021058Y-49991049D01*
X134890030Y-50078599D01*
X134778599Y-50190030D01*
X134691049Y-50321058D01*
X134630743Y-50466649D01*
X134600000Y-50621207D01*
X134600000Y-50778793D01*
X134630743Y-50933351D01*
X134691049Y-51078942D01*
X134775001Y-51204585D01*
X134775000Y-52693629D01*
X134678599Y-52790030D01*
X134591049Y-52921058D01*
X134530743Y-53066649D01*
X134500000Y-53221207D01*
X131025000Y-53221207D01*
X131025000Y-52025779D01*
X131027539Y-51999999D01*
X131025000Y-51974219D01*
X131025000Y-51974212D01*
X131017403Y-51897082D01*
X130987383Y-51798119D01*
X130938633Y-51706914D01*
X130873027Y-51626973D01*
X130852996Y-51610534D01*
X126763669Y-47521207D01*
X132700000Y-47521207D01*
X132700000Y-47678793D01*
X132730743Y-47833351D01*
X132791049Y-47978942D01*
X132878599Y-48109970D01*
X132990030Y-48221401D01*
X133121058Y-48308951D01*
X133266649Y-48369257D01*
X133421207Y-48400000D01*
X133578793Y-48400000D01*
X133733351Y-48369257D01*
X133878942Y-48308951D01*
X134009970Y-48221401D01*
X134106371Y-48125000D01*
X134474220Y-48125000D01*
X134500000Y-48127539D01*
X134525780Y-48125000D01*
X134525788Y-48125000D01*
X134602918Y-48117403D01*
X134701881Y-48087383D01*
X134793086Y-48038633D01*
X134873027Y-47973027D01*
X134889470Y-47952991D01*
X135653001Y-47189462D01*
X135673027Y-47173027D01*
X135689462Y-47153001D01*
X135689466Y-47152997D01*
X135738633Y-47093086D01*
X135787383Y-47001881D01*
X135817403Y-46902918D01*
X135822615Y-46850000D01*
X135825000Y-46825788D01*
X135825000Y-46825780D01*
X135827539Y-46800000D01*
X135825000Y-46774220D01*
X135825000Y-44918910D01*
X136692097Y-44918910D01*
X136718854Y-45007139D01*
X136836527Y-45267611D01*
X137002754Y-45500122D01*
X137211148Y-45695736D01*
X137453700Y-45846935D01*
X137721089Y-45947909D01*
X137946000Y-45837850D01*
X137946000Y-44694000D01*
X138254000Y-44694000D01*
X138254000Y-45837850D01*
X138478911Y-45947909D01*
X138746300Y-45846935D01*
X138988852Y-45695736D01*
X139197246Y-45500122D01*
X139363473Y-45267611D01*
X139481146Y-45007139D01*
X139507903Y-44918910D01*
X139396889Y-44694000D01*
X138254000Y-44694000D01*
X137946000Y-44694000D01*
X136803111Y-44694000D01*
X136692097Y-44918910D01*
X135825000Y-44918910D01*
X135825000Y-44161090D01*
X136692097Y-44161090D01*
X136803111Y-44386000D01*
X137946000Y-44386000D01*
X137946000Y-44366000D01*
X138254000Y-44366000D01*
X138254000Y-44386000D01*
X139396889Y-44386000D01*
X139507903Y-44161090D01*
X139481146Y-44072861D01*
X139363473Y-43812389D01*
X139197246Y-43579878D01*
X138988852Y-43384264D01*
X138776571Y-43251935D01*
X138950000Y-43251935D01*
X139028414Y-43244212D01*
X139103814Y-43221340D01*
X139173303Y-43184197D01*
X139234211Y-43134211D01*
X139284197Y-43073303D01*
X139321340Y-43003814D01*
X139344212Y-42928414D01*
X139351935Y-42850000D01*
X139351935Y-41150000D01*
X139344212Y-41071586D01*
X139321340Y-40996186D01*
X139284197Y-40926697D01*
X139234211Y-40865789D01*
X139173303Y-40815803D01*
X139103814Y-40778660D01*
X139028414Y-40755788D01*
X138950000Y-40748065D01*
X137250000Y-40748065D01*
X137171586Y-40755788D01*
X137096186Y-40778660D01*
X137026697Y-40815803D01*
X136965789Y-40865789D01*
X136915803Y-40926697D01*
X136878660Y-40996186D01*
X136855788Y-41071586D01*
X136848065Y-41150000D01*
X136848065Y-42850000D01*
X136855788Y-42928414D01*
X136878660Y-43003814D01*
X136915803Y-43073303D01*
X136965789Y-43134211D01*
X137026697Y-43184197D01*
X137096186Y-43221340D01*
X137171586Y-43244212D01*
X137250000Y-43251935D01*
X137423429Y-43251935D01*
X137211148Y-43384264D01*
X137002754Y-43579878D01*
X136836527Y-43812389D01*
X136718854Y-44072861D01*
X136692097Y-44161090D01*
X135825000Y-44161090D01*
X135825000Y-41806371D01*
X135921401Y-41709970D01*
X136008951Y-41578942D01*
X136069257Y-41433351D01*
X136100000Y-41278793D01*
X136100000Y-41121207D01*
X136069257Y-40966649D01*
X136008951Y-40821058D01*
X135921401Y-40690030D01*
X135825000Y-40593629D01*
X135825000Y-40300189D01*
X147730094Y-40300189D01*
X147792559Y-40540091D01*
X147983837Y-40961989D01*
X148253748Y-41338464D01*
X148591919Y-41655048D01*
X148985355Y-41899575D01*
X149418936Y-42062648D01*
X149876000Y-42138000D01*
X151626000Y-42138000D01*
X151626000Y-39934000D01*
X151934000Y-39934000D01*
X151934000Y-42138000D01*
X153684000Y-42138000D01*
X154141064Y-42062648D01*
X154574645Y-41899575D01*
X154968081Y-41655048D01*
X155306252Y-41338464D01*
X155576163Y-40961989D01*
X155767441Y-40540091D01*
X155829906Y-40300189D01*
X155730618Y-39934000D01*
X151934000Y-39934000D01*
X151626000Y-39934000D01*
X147829382Y-39934000D01*
X147730094Y-40300189D01*
X135825000Y-40300189D01*
X135825000Y-39506371D01*
X135921401Y-39409970D01*
X136008951Y-39278942D01*
X136016875Y-39259811D01*
X147730094Y-39259811D01*
X147829382Y-39626000D01*
X151626000Y-39626000D01*
X151626000Y-37422000D01*
X151934000Y-37422000D01*
X151934000Y-39626000D01*
X155730618Y-39626000D01*
X155829906Y-39259811D01*
X155767441Y-39019909D01*
X155576163Y-38598011D01*
X155306252Y-38221536D01*
X154968081Y-37904952D01*
X154574645Y-37660425D01*
X154141064Y-37497352D01*
X153684000Y-37422000D01*
X151934000Y-37422000D01*
X151626000Y-37422000D01*
X149876000Y-37422000D01*
X149418936Y-37497352D01*
X148985355Y-37660425D01*
X148591919Y-37904952D01*
X148253748Y-38221536D01*
X147983837Y-38598011D01*
X147792559Y-39019909D01*
X147730094Y-39259811D01*
X136016875Y-39259811D01*
X136069257Y-39133351D01*
X136100000Y-38978793D01*
X136100000Y-38821207D01*
X136069257Y-38666649D01*
X136008951Y-38521058D01*
X135921401Y-38390030D01*
X135809970Y-38278599D01*
X135678942Y-38191049D01*
X135533351Y-38130743D01*
X135378793Y-38100000D01*
X135221207Y-38100000D01*
X135066649Y-38130743D01*
X134921058Y-38191049D01*
X134790030Y-38278599D01*
X134678599Y-38390030D01*
X134591049Y-38521058D01*
X134530743Y-38666649D01*
X134500000Y-38821207D01*
X134500000Y-38978793D01*
X134530743Y-39133351D01*
X134591049Y-39278942D01*
X134678599Y-39409970D01*
X134775001Y-39506372D01*
X134775000Y-40593629D01*
X134678599Y-40690030D01*
X134591049Y-40821058D01*
X134530743Y-40966649D01*
X134500000Y-41121207D01*
X134500000Y-41278793D01*
X134530743Y-41433351D01*
X134591049Y-41578942D01*
X134678599Y-41709970D01*
X134775001Y-41806372D01*
X134775000Y-46582537D01*
X134282539Y-47075000D01*
X134106371Y-47075000D01*
X134009970Y-46978599D01*
X133878942Y-46891049D01*
X133733351Y-46830743D01*
X133578793Y-46800000D01*
X133421207Y-46800000D01*
X133266649Y-46830743D01*
X133121058Y-46891049D01*
X132990030Y-46978599D01*
X132878599Y-47090030D01*
X132791049Y-47221058D01*
X132730743Y-47366649D01*
X132700000Y-47521207D01*
X126763669Y-47521207D01*
X126200000Y-46957539D01*
X126200000Y-46821207D01*
X126169257Y-46666649D01*
X126108951Y-46521058D01*
X126021401Y-46390030D01*
X125909970Y-46278599D01*
X125778942Y-46191049D01*
X125633351Y-46130743D01*
X125478793Y-46100000D01*
X125321207Y-46100000D01*
X125166649Y-46130743D01*
X125021058Y-46191049D01*
X124890030Y-46278599D01*
X124793629Y-46375000D01*
X124225779Y-46375000D01*
X124199999Y-46372461D01*
X124174219Y-46375000D01*
X124174212Y-46375000D01*
X124097082Y-46382597D01*
X123998119Y-46412617D01*
X123906914Y-46461367D01*
X123826973Y-46526973D01*
X123810534Y-46547004D01*
X122347010Y-48010529D01*
X122326973Y-48026973D01*
X122261367Y-48106914D01*
X122212617Y-48198120D01*
X122182597Y-48297083D01*
X122175000Y-48374213D01*
X122175000Y-48374220D01*
X122172461Y-48400000D01*
X122175000Y-48425780D01*
X122175000Y-48495522D01*
X122169257Y-48466649D01*
X122108951Y-48321058D01*
X122021401Y-48190030D01*
X121909970Y-48078599D01*
X121778942Y-47991049D01*
X121633351Y-47930743D01*
X121478793Y-47900000D01*
X121342462Y-47900000D01*
X120925000Y-47482539D01*
X120925000Y-39806371D01*
X121021401Y-39709970D01*
X121108951Y-39578942D01*
X121169257Y-39433351D01*
X121200000Y-39278793D01*
X121200000Y-39142461D01*
X121721254Y-38621207D01*
X128700000Y-38621207D01*
X128700000Y-38778793D01*
X128730743Y-38933351D01*
X128791049Y-39078942D01*
X128878599Y-39209970D01*
X128990030Y-39321401D01*
X129121058Y-39408951D01*
X129266649Y-39469257D01*
X129421207Y-39500000D01*
X129557539Y-39500000D01*
X130475000Y-40417462D01*
X130475001Y-43093628D01*
X130378599Y-43190030D01*
X130291049Y-43321058D01*
X130230743Y-43466649D01*
X130200000Y-43621207D01*
X130200000Y-43778793D01*
X130230743Y-43933351D01*
X130291049Y-44078942D01*
X130378599Y-44209970D01*
X130490030Y-44321401D01*
X130621058Y-44408951D01*
X130766649Y-44469257D01*
X130921207Y-44500000D01*
X131078793Y-44500000D01*
X131233351Y-44469257D01*
X131378942Y-44408951D01*
X131509970Y-44321401D01*
X131621401Y-44209970D01*
X131708951Y-44078942D01*
X131769257Y-43933351D01*
X131800000Y-43778793D01*
X131800000Y-43621207D01*
X131769257Y-43466649D01*
X131708951Y-43321058D01*
X131621401Y-43190030D01*
X131525000Y-43093629D01*
X131525000Y-40225779D01*
X131527539Y-40199999D01*
X131525000Y-40174219D01*
X131525000Y-40174212D01*
X131517403Y-40097082D01*
X131487383Y-39998119D01*
X131438633Y-39906914D01*
X131373027Y-39826973D01*
X131352996Y-39810534D01*
X130300000Y-38757539D01*
X130300000Y-38621207D01*
X130269257Y-38466649D01*
X130208951Y-38321058D01*
X130121401Y-38190030D01*
X130009970Y-38078599D01*
X129878942Y-37991049D01*
X129733351Y-37930743D01*
X129578793Y-37900000D01*
X129421207Y-37900000D01*
X129266649Y-37930743D01*
X129121058Y-37991049D01*
X128990030Y-38078599D01*
X128878599Y-38190030D01*
X128791049Y-38321058D01*
X128730743Y-38466649D01*
X128700000Y-38621207D01*
X121721254Y-38621207D01*
X124452996Y-35889466D01*
X124473027Y-35873027D01*
X124538633Y-35793086D01*
X124587383Y-35701881D01*
X124617403Y-35602918D01*
X124625000Y-35525788D01*
X124625000Y-35525781D01*
X124627539Y-35500001D01*
X124625000Y-35474221D01*
X124625000Y-33618910D01*
X132392097Y-33618910D01*
X132418854Y-33707139D01*
X132536527Y-33967611D01*
X132702754Y-34200122D01*
X132911148Y-34395736D01*
X133153700Y-34546935D01*
X133421089Y-34647909D01*
X133646000Y-34537850D01*
X133646000Y-33394000D01*
X133954000Y-33394000D01*
X133954000Y-34537850D01*
X134178911Y-34647909D01*
X134446300Y-34546935D01*
X134688852Y-34395736D01*
X134897246Y-34200122D01*
X135063473Y-33967611D01*
X135181146Y-33707139D01*
X135207903Y-33618910D01*
X135096889Y-33394000D01*
X133954000Y-33394000D01*
X133646000Y-33394000D01*
X132503111Y-33394000D01*
X132392097Y-33618910D01*
X124625000Y-33618910D01*
X124625000Y-33217461D01*
X124981371Y-32861090D01*
X132392097Y-32861090D01*
X132503111Y-33086000D01*
X133646000Y-33086000D01*
X133646000Y-33066000D01*
X133954000Y-33066000D01*
X133954000Y-33086000D01*
X135096889Y-33086000D01*
X135207903Y-32861090D01*
X135181146Y-32772861D01*
X135071900Y-32531042D01*
X144891769Y-32531042D01*
X144993733Y-32814197D01*
X145145499Y-33046712D01*
X145339711Y-33245151D01*
X145568904Y-33401889D01*
X145824272Y-33510902D01*
X145949389Y-33537193D01*
X145788558Y-33585981D01*
X145580090Y-33697409D01*
X145397366Y-33847366D01*
X145247409Y-34030090D01*
X145135981Y-34238558D01*
X145067363Y-34464759D01*
X145044194Y-34700000D01*
X145067363Y-34935241D01*
X145135981Y-35161442D01*
X145247409Y-35369910D01*
X145397366Y-35552634D01*
X145580090Y-35702591D01*
X145788558Y-35814019D01*
X146014759Y-35882637D01*
X146191050Y-35900000D01*
X147208950Y-35900000D01*
X147385241Y-35882637D01*
X147611442Y-35814019D01*
X147819910Y-35702591D01*
X148002634Y-35552634D01*
X148152591Y-35369910D01*
X148264019Y-35161442D01*
X148332637Y-34935241D01*
X148355806Y-34700000D01*
X148332637Y-34464759D01*
X148264019Y-34238558D01*
X148152591Y-34030090D01*
X148002634Y-33847366D01*
X147819910Y-33697409D01*
X147611442Y-33585981D01*
X147450611Y-33537193D01*
X147575728Y-33510902D01*
X147831096Y-33401889D01*
X148060289Y-33245151D01*
X148254501Y-33046712D01*
X148406267Y-32814197D01*
X148508231Y-32531042D01*
X148396523Y-32314000D01*
X146854000Y-32314000D01*
X146854000Y-32334000D01*
X146546000Y-32334000D01*
X146546000Y-32314000D01*
X145003477Y-32314000D01*
X144891769Y-32531042D01*
X135071900Y-32531042D01*
X135063473Y-32512389D01*
X134897246Y-32279878D01*
X134688852Y-32084264D01*
X134476571Y-31951935D01*
X134650000Y-31951935D01*
X134728414Y-31944212D01*
X134803814Y-31921340D01*
X134873303Y-31884197D01*
X134934211Y-31834211D01*
X134971349Y-31788958D01*
X144891769Y-31788958D01*
X145003477Y-32006000D01*
X146546000Y-32006000D01*
X146546000Y-30752000D01*
X146854000Y-30752000D01*
X146854000Y-32006000D01*
X148396523Y-32006000D01*
X148508231Y-31788958D01*
X148406267Y-31505803D01*
X148254501Y-31273288D01*
X148060289Y-31074849D01*
X147831096Y-30918111D01*
X147575728Y-30809098D01*
X147304000Y-30752000D01*
X146854000Y-30752000D01*
X146546000Y-30752000D01*
X146096000Y-30752000D01*
X145824272Y-30809098D01*
X145568904Y-30918111D01*
X145339711Y-31074849D01*
X145145499Y-31273288D01*
X144993733Y-31505803D01*
X144891769Y-31788958D01*
X134971349Y-31788958D01*
X134984197Y-31773303D01*
X135021340Y-31703814D01*
X135044212Y-31628414D01*
X135051935Y-31550000D01*
X135051935Y-30140189D01*
X147730094Y-30140189D01*
X147792559Y-30380091D01*
X147983837Y-30801989D01*
X148253748Y-31178464D01*
X148591919Y-31495048D01*
X148985355Y-31739575D01*
X149418936Y-31902648D01*
X149876000Y-31978000D01*
X151626000Y-31978000D01*
X151626000Y-29774000D01*
X151934000Y-29774000D01*
X151934000Y-31978000D01*
X153684000Y-31978000D01*
X154141064Y-31902648D01*
X154574645Y-31739575D01*
X154968081Y-31495048D01*
X155306252Y-31178464D01*
X155576163Y-30801989D01*
X155767441Y-30380091D01*
X155829906Y-30140189D01*
X155730618Y-29774000D01*
X151934000Y-29774000D01*
X151626000Y-29774000D01*
X147829382Y-29774000D01*
X147730094Y-30140189D01*
X135051935Y-30140189D01*
X135051935Y-29850000D01*
X135044212Y-29771586D01*
X135021340Y-29696186D01*
X134984197Y-29626697D01*
X134934211Y-29565789D01*
X134873303Y-29515803D01*
X134803814Y-29478660D01*
X134728414Y-29455788D01*
X134650000Y-29448065D01*
X132950000Y-29448065D01*
X132871586Y-29455788D01*
X132796186Y-29478660D01*
X132726697Y-29515803D01*
X132665789Y-29565789D01*
X132615803Y-29626697D01*
X132578660Y-29696186D01*
X132555788Y-29771586D01*
X132548065Y-29850000D01*
X132548065Y-31550000D01*
X132555788Y-31628414D01*
X132578660Y-31703814D01*
X132615803Y-31773303D01*
X132665789Y-31834211D01*
X132726697Y-31884197D01*
X132796186Y-31921340D01*
X132871586Y-31944212D01*
X132950000Y-31951935D01*
X133123429Y-31951935D01*
X132911148Y-32084264D01*
X132702754Y-32279878D01*
X132536527Y-32512389D01*
X132418854Y-32772861D01*
X132392097Y-32861090D01*
X124981371Y-32861090D01*
X127142462Y-30700000D01*
X127278793Y-30700000D01*
X127433351Y-30669257D01*
X127578942Y-30608951D01*
X127709970Y-30521401D01*
X127821401Y-30409970D01*
X127908951Y-30278942D01*
X127969257Y-30133351D01*
X128000000Y-29978793D01*
X128000000Y-29821207D01*
X127969257Y-29666649D01*
X127908951Y-29521058D01*
X127821401Y-29390030D01*
X127709970Y-29278599D01*
X127578942Y-29191049D01*
X127433351Y-29130743D01*
X127278793Y-29100000D01*
X127121207Y-29100000D01*
X126966649Y-29130743D01*
X126821058Y-29191049D01*
X126690030Y-29278599D01*
X126578599Y-29390030D01*
X126491049Y-29521058D01*
X126430743Y-29666649D01*
X126400000Y-29821207D01*
X126400000Y-29957538D01*
X123747005Y-32610534D01*
X123726974Y-32626973D01*
X123710535Y-32647004D01*
X123661367Y-32706915D01*
X123612617Y-32798120D01*
X123582597Y-32897083D01*
X123572461Y-33000000D01*
X123575001Y-33025790D01*
X123575000Y-35282538D01*
X120457539Y-38400000D01*
X120321207Y-38400000D01*
X120166649Y-38430743D01*
X120021058Y-38491049D01*
X119890030Y-38578599D01*
X119778599Y-38690030D01*
X119691049Y-38821058D01*
X119630743Y-38966649D01*
X119600000Y-39121207D01*
X119600000Y-39278793D01*
X119630743Y-39433351D01*
X119691049Y-39578942D01*
X119778599Y-39709970D01*
X119875000Y-39806371D01*
X119875001Y-47674210D01*
X119872461Y-47700000D01*
X119882597Y-47802917D01*
X119912617Y-47901880D01*
X119960279Y-47991049D01*
X119961368Y-47993086D01*
X120026974Y-48073027D01*
X120047005Y-48089466D01*
X120600000Y-48642462D01*
X120600000Y-48778793D01*
X120630743Y-48933351D01*
X120691049Y-49078942D01*
X120778599Y-49209970D01*
X120890030Y-49321401D01*
X121021058Y-49408951D01*
X121166649Y-49469257D01*
X121321207Y-49500000D01*
X121478793Y-49500000D01*
X121633351Y-49469257D01*
X121778942Y-49408951D01*
X121909970Y-49321401D01*
X122021401Y-49209970D01*
X122108951Y-49078942D01*
X122169257Y-48933351D01*
X122175000Y-48904477D01*
X122175001Y-50182536D01*
X118747010Y-53610529D01*
X118726973Y-53626973D01*
X118661367Y-53706914D01*
X118612617Y-53798120D01*
X118582597Y-53897083D01*
X118575000Y-53974213D01*
X118575000Y-53974220D01*
X118572461Y-54000000D01*
X118575000Y-54025780D01*
X118575001Y-54893628D01*
X118478599Y-54990030D01*
X118391049Y-55121058D01*
X118330743Y-55266649D01*
X118300000Y-55421207D01*
X100425000Y-55421207D01*
X100425000Y-53496886D01*
X102350000Y-53496886D01*
X102350000Y-53743114D01*
X102398037Y-53984611D01*
X102492265Y-54212097D01*
X102629062Y-54416828D01*
X102803172Y-54590938D01*
X103007903Y-54727735D01*
X103235389Y-54821963D01*
X103476886Y-54870000D01*
X103723114Y-54870000D01*
X103964611Y-54821963D01*
X104192097Y-54727735D01*
X104396828Y-54590938D01*
X104570938Y-54416828D01*
X104707735Y-54212097D01*
X104801963Y-53984611D01*
X104850000Y-53743114D01*
X104850000Y-53496886D01*
X104801963Y-53255389D01*
X104707735Y-53027903D01*
X104570938Y-52823172D01*
X104396828Y-52649062D01*
X104192097Y-52512265D01*
X103964611Y-52418037D01*
X103723114Y-52370000D01*
X103476886Y-52370000D01*
X103235389Y-52418037D01*
X103007903Y-52512265D01*
X102803172Y-52649062D01*
X102629062Y-52823172D01*
X102492265Y-53027903D01*
X102398037Y-53255389D01*
X102350000Y-53496886D01*
X100425000Y-53496886D01*
X100425000Y-50956886D01*
X102350000Y-50956886D01*
X102350000Y-51203114D01*
X102398037Y-51444611D01*
X102492265Y-51672097D01*
X102629062Y-51876828D01*
X102803172Y-52050938D01*
X103007903Y-52187735D01*
X103235389Y-52281963D01*
X103476886Y-52330000D01*
X103723114Y-52330000D01*
X103964611Y-52281963D01*
X104192097Y-52187735D01*
X104396828Y-52050938D01*
X104570938Y-51876828D01*
X104707735Y-51672097D01*
X104801963Y-51444611D01*
X104850000Y-51203114D01*
X104850000Y-50956886D01*
X104801963Y-50715389D01*
X104707735Y-50487903D01*
X104570938Y-50283172D01*
X104396828Y-50109062D01*
X104192097Y-49972265D01*
X103964611Y-49878037D01*
X103723114Y-49830000D01*
X103476886Y-49830000D01*
X103235389Y-49878037D01*
X103007903Y-49972265D01*
X102803172Y-50109062D01*
X102629062Y-50283172D01*
X102492265Y-50487903D01*
X102398037Y-50715389D01*
X102350000Y-50956886D01*
X100425000Y-50956886D01*
X100425000Y-48416886D01*
X102350000Y-48416886D01*
X102350000Y-48663114D01*
X102398037Y-48904611D01*
X102492265Y-49132097D01*
X102629062Y-49336828D01*
X102803172Y-49510938D01*
X103007903Y-49647735D01*
X103235389Y-49741963D01*
X103476886Y-49790000D01*
X103723114Y-49790000D01*
X103964611Y-49741963D01*
X104192097Y-49647735D01*
X104396828Y-49510938D01*
X104570938Y-49336828D01*
X104707735Y-49132097D01*
X104801963Y-48904611D01*
X104850000Y-48663114D01*
X104850000Y-48416886D01*
X104801963Y-48175389D01*
X104707735Y-47947903D01*
X104570938Y-47743172D01*
X104396828Y-47569062D01*
X104192097Y-47432265D01*
X103964611Y-47338037D01*
X103723114Y-47290000D01*
X103476886Y-47290000D01*
X103235389Y-47338037D01*
X103007903Y-47432265D01*
X102803172Y-47569062D01*
X102629062Y-47743172D01*
X102492265Y-47947903D01*
X102398037Y-48175389D01*
X102350000Y-48416886D01*
X100425000Y-48416886D01*
X100425000Y-45150000D01*
X102348065Y-45150000D01*
X102348065Y-46850000D01*
X102355788Y-46928414D01*
X102378660Y-47003814D01*
X102415803Y-47073303D01*
X102465789Y-47134211D01*
X102526697Y-47184197D01*
X102596186Y-47221340D01*
X102671586Y-47244212D01*
X102750000Y-47251935D01*
X104450000Y-47251935D01*
X104528414Y-47244212D01*
X104603814Y-47221340D01*
X104673303Y-47184197D01*
X104734211Y-47134211D01*
X104784197Y-47073303D01*
X104821340Y-47003814D01*
X104844212Y-46928414D01*
X104851935Y-46850000D01*
X104851935Y-45150000D01*
X104844212Y-45071586D01*
X104821340Y-44996186D01*
X104784197Y-44926697D01*
X104734211Y-44865789D01*
X104673303Y-44815803D01*
X104603814Y-44778660D01*
X104528414Y-44755788D01*
X104450000Y-44748065D01*
X102750000Y-44748065D01*
X102671586Y-44755788D01*
X102596186Y-44778660D01*
X102526697Y-44815803D01*
X102465789Y-44865789D01*
X102415803Y-44926697D01*
X102378660Y-44996186D01*
X102355788Y-45071586D01*
X102348065Y-45150000D01*
X100425000Y-45150000D01*
X100425000Y-36578911D01*
X116352091Y-36578911D01*
X116453065Y-36846300D01*
X116604264Y-37088852D01*
X116799878Y-37297246D01*
X117032389Y-37463473D01*
X117292861Y-37581146D01*
X117381090Y-37607903D01*
X117606000Y-37496889D01*
X117606000Y-36354000D01*
X116462150Y-36354000D01*
X116352091Y-36578911D01*
X100425000Y-36578911D01*
X100425000Y-35821089D01*
X116352091Y-35821089D01*
X116462150Y-36046000D01*
X117606000Y-36046000D01*
X117606000Y-34903111D01*
X117914000Y-34903111D01*
X117914000Y-36046000D01*
X117934000Y-36046000D01*
X117934000Y-36354000D01*
X117914000Y-36354000D01*
X117914000Y-37496889D01*
X118138910Y-37607903D01*
X118227139Y-37581146D01*
X118487611Y-37463473D01*
X118720122Y-37297246D01*
X118915736Y-37088852D01*
X119048065Y-36876571D01*
X119048065Y-37050000D01*
X119055788Y-37128414D01*
X119078660Y-37203814D01*
X119115803Y-37273303D01*
X119165789Y-37334211D01*
X119226697Y-37384197D01*
X119296186Y-37421340D01*
X119371586Y-37444212D01*
X119450000Y-37451935D01*
X121150000Y-37451935D01*
X121228414Y-37444212D01*
X121303814Y-37421340D01*
X121373303Y-37384197D01*
X121434211Y-37334211D01*
X121484197Y-37273303D01*
X121521340Y-37203814D01*
X121544212Y-37128414D01*
X121551935Y-37050000D01*
X121551935Y-35350000D01*
X121544212Y-35271586D01*
X121521340Y-35196186D01*
X121484197Y-35126697D01*
X121434211Y-35065789D01*
X121373303Y-35015803D01*
X121303814Y-34978660D01*
X121228414Y-34955788D01*
X121150000Y-34948065D01*
X119450000Y-34948065D01*
X119371586Y-34955788D01*
X119296186Y-34978660D01*
X119226697Y-35015803D01*
X119165789Y-35065789D01*
X119115803Y-35126697D01*
X119078660Y-35196186D01*
X119055788Y-35271586D01*
X119048065Y-35350000D01*
X119048065Y-35523429D01*
X118915736Y-35311148D01*
X118720122Y-35102754D01*
X118487611Y-34936527D01*
X118227139Y-34818854D01*
X118138910Y-34792097D01*
X117914000Y-34903111D01*
X117606000Y-34903111D01*
X117381090Y-34792097D01*
X117292861Y-34818854D01*
X117032389Y-34936527D01*
X116799878Y-35102754D01*
X116604264Y-35311148D01*
X116453065Y-35553700D01*
X116352091Y-35821089D01*
X100425000Y-35821089D01*
X100425000Y-29099811D01*
X147730094Y-29099811D01*
X147829382Y-29466000D01*
X151626000Y-29466000D01*
X151626000Y-27262000D01*
X151934000Y-27262000D01*
X151934000Y-29466000D01*
X155730618Y-29466000D01*
X155829906Y-29099811D01*
X155767441Y-28859909D01*
X155576163Y-28438011D01*
X155306252Y-28061536D01*
X154968081Y-27744952D01*
X154574645Y-27500425D01*
X154141064Y-27337352D01*
X153684000Y-27262000D01*
X151934000Y-27262000D01*
X151626000Y-27262000D01*
X149876000Y-27262000D01*
X149418936Y-27337352D01*
X148985355Y-27500425D01*
X148591919Y-27744952D01*
X148253748Y-28061536D01*
X147983837Y-28438011D01*
X147792559Y-28859909D01*
X147730094Y-29099811D01*
X100425000Y-29099811D01*
X100425000Y-25425000D01*
X159575001Y-25425000D01*
X159575000Y-69575000D01*
G37*
%TD.AperFunction*%
%TD*%
M02*
