%TF.GenerationSoftware,KiCad,Pcbnew,(5.1.12)-1*%
%TF.CreationDate,2021-12-10T12:11:04+01:00*%
%TF.ProjectId,standalone,7374616e-6461-46c6-9f6e-652e6b696361,rev?*%
%TF.SameCoordinates,Original*%
%TF.FileFunction,Soldermask,Top*%
%TF.FilePolarity,Negative*%
%FSLAX46Y46*%
G04 Gerber Fmt 4.6, Leading zero omitted, Abs format (unit mm)*
G04 Created by KiCad (PCBNEW (5.1.12)-1) date 2021-12-10 12:11:04*
%MOMM*%
%LPD*%
G01*
G04 APERTURE LIST*
%ADD10O,1.700000X1.700000*%
%ADD11R,1.700000X1.700000*%
%ADD12R,1.450000X0.450000*%
%ADD13O,2.500000X1.600000*%
%ADD14O,7.000000X3.500000*%
G04 APERTURE END LIST*
D10*
%TO.C,J7*%
X134820000Y-64100000D03*
X132280000Y-64100000D03*
X129740000Y-64100000D03*
D11*
X127200000Y-64100000D03*
%TD*%
%TO.C,C11*%
G36*
G01*
X121025000Y-51937500D02*
X121025000Y-51462500D01*
G75*
G02*
X121262500Y-51225000I237500J0D01*
G01*
X121862500Y-51225000D01*
G75*
G02*
X122100000Y-51462500I0J-237500D01*
G01*
X122100000Y-51937500D01*
G75*
G02*
X121862500Y-52175000I-237500J0D01*
G01*
X121262500Y-52175000D01*
G75*
G02*
X121025000Y-51937500I0J237500D01*
G01*
G37*
G36*
G01*
X119300000Y-51937500D02*
X119300000Y-51462500D01*
G75*
G02*
X119537500Y-51225000I237500J0D01*
G01*
X120137500Y-51225000D01*
G75*
G02*
X120375000Y-51462500I0J-237500D01*
G01*
X120375000Y-51937500D01*
G75*
G02*
X120137500Y-52175000I-237500J0D01*
G01*
X119537500Y-52175000D01*
G75*
G02*
X119300000Y-51937500I0J237500D01*
G01*
G37*
%TD*%
%TO.C,C10*%
G36*
G01*
X120707800Y-40985700D02*
X120707800Y-40510700D01*
G75*
G02*
X120945300Y-40273200I237500J0D01*
G01*
X121545300Y-40273200D01*
G75*
G02*
X121782800Y-40510700I0J-237500D01*
G01*
X121782800Y-40985700D01*
G75*
G02*
X121545300Y-41223200I-237500J0D01*
G01*
X120945300Y-41223200D01*
G75*
G02*
X120707800Y-40985700I0J237500D01*
G01*
G37*
G36*
G01*
X118982800Y-40985700D02*
X118982800Y-40510700D01*
G75*
G02*
X119220300Y-40273200I237500J0D01*
G01*
X119820300Y-40273200D01*
G75*
G02*
X120057800Y-40510700I0J-237500D01*
G01*
X120057800Y-40985700D01*
G75*
G02*
X119820300Y-41223200I-237500J0D01*
G01*
X119220300Y-41223200D01*
G75*
G02*
X118982800Y-40985700I0J237500D01*
G01*
G37*
%TD*%
%TO.C,C9*%
G36*
G01*
X133025000Y-38537500D02*
X133025000Y-38062500D01*
G75*
G02*
X133262500Y-37825000I237500J0D01*
G01*
X133862500Y-37825000D01*
G75*
G02*
X134100000Y-38062500I0J-237500D01*
G01*
X134100000Y-38537500D01*
G75*
G02*
X133862500Y-38775000I-237500J0D01*
G01*
X133262500Y-38775000D01*
G75*
G02*
X133025000Y-38537500I0J237500D01*
G01*
G37*
G36*
G01*
X131300000Y-38537500D02*
X131300000Y-38062500D01*
G75*
G02*
X131537500Y-37825000I237500J0D01*
G01*
X132137500Y-37825000D01*
G75*
G02*
X132375000Y-38062500I0J-237500D01*
G01*
X132375000Y-38537500D01*
G75*
G02*
X132137500Y-38775000I-237500J0D01*
G01*
X131537500Y-38775000D01*
G75*
G02*
X131300000Y-38537500I0J237500D01*
G01*
G37*
%TD*%
%TO.C,C8*%
G36*
G01*
X133020400Y-50300300D02*
X133020400Y-49825300D01*
G75*
G02*
X133257900Y-49587800I237500J0D01*
G01*
X133857900Y-49587800D01*
G75*
G02*
X134095400Y-49825300I0J-237500D01*
G01*
X134095400Y-50300300D01*
G75*
G02*
X133857900Y-50537800I-237500J0D01*
G01*
X133257900Y-50537800D01*
G75*
G02*
X133020400Y-50300300I0J237500D01*
G01*
G37*
G36*
G01*
X131295400Y-50300300D02*
X131295400Y-49825300D01*
G75*
G02*
X131532900Y-49587800I237500J0D01*
G01*
X132132900Y-49587800D01*
G75*
G02*
X132370400Y-49825300I0J-237500D01*
G01*
X132370400Y-50300300D01*
G75*
G02*
X132132900Y-50537800I-237500J0D01*
G01*
X131532900Y-50537800D01*
G75*
G02*
X131295400Y-50300300I0J237500D01*
G01*
G37*
%TD*%
%TO.C,U4*%
G36*
G01*
X132214200Y-53514800D02*
X132214200Y-53214800D01*
G75*
G02*
X132364200Y-53064800I150000J0D01*
G01*
X134014200Y-53064800D01*
G75*
G02*
X134164200Y-53214800I0J-150000D01*
G01*
X134164200Y-53514800D01*
G75*
G02*
X134014200Y-53664800I-150000J0D01*
G01*
X132364200Y-53664800D01*
G75*
G02*
X132214200Y-53514800I0J150000D01*
G01*
G37*
G36*
G01*
X132214200Y-54784800D02*
X132214200Y-54484800D01*
G75*
G02*
X132364200Y-54334800I150000J0D01*
G01*
X134014200Y-54334800D01*
G75*
G02*
X134164200Y-54484800I0J-150000D01*
G01*
X134164200Y-54784800D01*
G75*
G02*
X134014200Y-54934800I-150000J0D01*
G01*
X132364200Y-54934800D01*
G75*
G02*
X132214200Y-54784800I0J150000D01*
G01*
G37*
G36*
G01*
X132214200Y-56054800D02*
X132214200Y-55754800D01*
G75*
G02*
X132364200Y-55604800I150000J0D01*
G01*
X134014200Y-55604800D01*
G75*
G02*
X134164200Y-55754800I0J-150000D01*
G01*
X134164200Y-56054800D01*
G75*
G02*
X134014200Y-56204800I-150000J0D01*
G01*
X132364200Y-56204800D01*
G75*
G02*
X132214200Y-56054800I0J150000D01*
G01*
G37*
G36*
G01*
X132214200Y-57324800D02*
X132214200Y-57024800D01*
G75*
G02*
X132364200Y-56874800I150000J0D01*
G01*
X134014200Y-56874800D01*
G75*
G02*
X134164200Y-57024800I0J-150000D01*
G01*
X134164200Y-57324800D01*
G75*
G02*
X134014200Y-57474800I-150000J0D01*
G01*
X132364200Y-57474800D01*
G75*
G02*
X132214200Y-57324800I0J150000D01*
G01*
G37*
G36*
G01*
X127264200Y-57324800D02*
X127264200Y-57024800D01*
G75*
G02*
X127414200Y-56874800I150000J0D01*
G01*
X129064200Y-56874800D01*
G75*
G02*
X129214200Y-57024800I0J-150000D01*
G01*
X129214200Y-57324800D01*
G75*
G02*
X129064200Y-57474800I-150000J0D01*
G01*
X127414200Y-57474800D01*
G75*
G02*
X127264200Y-57324800I0J150000D01*
G01*
G37*
G36*
G01*
X127264200Y-56054800D02*
X127264200Y-55754800D01*
G75*
G02*
X127414200Y-55604800I150000J0D01*
G01*
X129064200Y-55604800D01*
G75*
G02*
X129214200Y-55754800I0J-150000D01*
G01*
X129214200Y-56054800D01*
G75*
G02*
X129064200Y-56204800I-150000J0D01*
G01*
X127414200Y-56204800D01*
G75*
G02*
X127264200Y-56054800I0J150000D01*
G01*
G37*
G36*
G01*
X127264200Y-54784800D02*
X127264200Y-54484800D01*
G75*
G02*
X127414200Y-54334800I150000J0D01*
G01*
X129064200Y-54334800D01*
G75*
G02*
X129214200Y-54484800I0J-150000D01*
G01*
X129214200Y-54784800D01*
G75*
G02*
X129064200Y-54934800I-150000J0D01*
G01*
X127414200Y-54934800D01*
G75*
G02*
X127264200Y-54784800I0J150000D01*
G01*
G37*
G36*
G01*
X127264200Y-53514800D02*
X127264200Y-53214800D01*
G75*
G02*
X127414200Y-53064800I150000J0D01*
G01*
X129064200Y-53064800D01*
G75*
G02*
X129214200Y-53214800I0J-150000D01*
G01*
X129214200Y-53514800D01*
G75*
G02*
X129064200Y-53664800I-150000J0D01*
G01*
X127414200Y-53664800D01*
G75*
G02*
X127264200Y-53514800I0J150000D01*
G01*
G37*
%TD*%
%TO.C,U3*%
G36*
G01*
X132493600Y-41526000D02*
X132493600Y-41226000D01*
G75*
G02*
X132643600Y-41076000I150000J0D01*
G01*
X134293600Y-41076000D01*
G75*
G02*
X134443600Y-41226000I0J-150000D01*
G01*
X134443600Y-41526000D01*
G75*
G02*
X134293600Y-41676000I-150000J0D01*
G01*
X132643600Y-41676000D01*
G75*
G02*
X132493600Y-41526000I0J150000D01*
G01*
G37*
G36*
G01*
X132493600Y-42796000D02*
X132493600Y-42496000D01*
G75*
G02*
X132643600Y-42346000I150000J0D01*
G01*
X134293600Y-42346000D01*
G75*
G02*
X134443600Y-42496000I0J-150000D01*
G01*
X134443600Y-42796000D01*
G75*
G02*
X134293600Y-42946000I-150000J0D01*
G01*
X132643600Y-42946000D01*
G75*
G02*
X132493600Y-42796000I0J150000D01*
G01*
G37*
G36*
G01*
X132493600Y-44066000D02*
X132493600Y-43766000D01*
G75*
G02*
X132643600Y-43616000I150000J0D01*
G01*
X134293600Y-43616000D01*
G75*
G02*
X134443600Y-43766000I0J-150000D01*
G01*
X134443600Y-44066000D01*
G75*
G02*
X134293600Y-44216000I-150000J0D01*
G01*
X132643600Y-44216000D01*
G75*
G02*
X132493600Y-44066000I0J150000D01*
G01*
G37*
G36*
G01*
X132493600Y-45336000D02*
X132493600Y-45036000D01*
G75*
G02*
X132643600Y-44886000I150000J0D01*
G01*
X134293600Y-44886000D01*
G75*
G02*
X134443600Y-45036000I0J-150000D01*
G01*
X134443600Y-45336000D01*
G75*
G02*
X134293600Y-45486000I-150000J0D01*
G01*
X132643600Y-45486000D01*
G75*
G02*
X132493600Y-45336000I0J150000D01*
G01*
G37*
G36*
G01*
X127543600Y-45336000D02*
X127543600Y-45036000D01*
G75*
G02*
X127693600Y-44886000I150000J0D01*
G01*
X129343600Y-44886000D01*
G75*
G02*
X129493600Y-45036000I0J-150000D01*
G01*
X129493600Y-45336000D01*
G75*
G02*
X129343600Y-45486000I-150000J0D01*
G01*
X127693600Y-45486000D01*
G75*
G02*
X127543600Y-45336000I0J150000D01*
G01*
G37*
G36*
G01*
X127543600Y-44066000D02*
X127543600Y-43766000D01*
G75*
G02*
X127693600Y-43616000I150000J0D01*
G01*
X129343600Y-43616000D01*
G75*
G02*
X129493600Y-43766000I0J-150000D01*
G01*
X129493600Y-44066000D01*
G75*
G02*
X129343600Y-44216000I-150000J0D01*
G01*
X127693600Y-44216000D01*
G75*
G02*
X127543600Y-44066000I0J150000D01*
G01*
G37*
G36*
G01*
X127543600Y-42796000D02*
X127543600Y-42496000D01*
G75*
G02*
X127693600Y-42346000I150000J0D01*
G01*
X129343600Y-42346000D01*
G75*
G02*
X129493600Y-42496000I0J-150000D01*
G01*
X129493600Y-42796000D01*
G75*
G02*
X129343600Y-42946000I-150000J0D01*
G01*
X127693600Y-42946000D01*
G75*
G02*
X127543600Y-42796000I0J150000D01*
G01*
G37*
G36*
G01*
X127543600Y-41526000D02*
X127543600Y-41226000D01*
G75*
G02*
X127693600Y-41076000I150000J0D01*
G01*
X129343600Y-41076000D01*
G75*
G02*
X129493600Y-41226000I0J-150000D01*
G01*
X129493600Y-41526000D01*
G75*
G02*
X129343600Y-41676000I-150000J0D01*
G01*
X127693600Y-41676000D01*
G75*
G02*
X127543600Y-41526000I0J150000D01*
G01*
G37*
%TD*%
D12*
%TO.C,U2*%
X121230200Y-54929800D03*
X121230200Y-55579800D03*
X121230200Y-56229800D03*
X121230200Y-56879800D03*
X116830200Y-56879800D03*
X116830200Y-56229800D03*
X116830200Y-55579800D03*
X116830200Y-54929800D03*
%TD*%
%TO.C,U1*%
X120576200Y-43964200D03*
X120576200Y-44614200D03*
X120576200Y-45264200D03*
X120576200Y-45914200D03*
X116176200Y-45914200D03*
X116176200Y-45264200D03*
X116176200Y-44614200D03*
X116176200Y-43964200D03*
%TD*%
%TO.C,R12*%
G36*
G01*
X131237500Y-33675000D02*
X130762500Y-33675000D01*
G75*
G02*
X130525000Y-33437500I0J237500D01*
G01*
X130525000Y-32937500D01*
G75*
G02*
X130762500Y-32700000I237500J0D01*
G01*
X131237500Y-32700000D01*
G75*
G02*
X131475000Y-32937500I0J-237500D01*
G01*
X131475000Y-33437500D01*
G75*
G02*
X131237500Y-33675000I-237500J0D01*
G01*
G37*
G36*
G01*
X131237500Y-35500000D02*
X130762500Y-35500000D01*
G75*
G02*
X130525000Y-35262500I0J237500D01*
G01*
X130525000Y-34762500D01*
G75*
G02*
X130762500Y-34525000I237500J0D01*
G01*
X131237500Y-34525000D01*
G75*
G02*
X131475000Y-34762500I0J-237500D01*
G01*
X131475000Y-35262500D01*
G75*
G02*
X131237500Y-35500000I-237500J0D01*
G01*
G37*
%TD*%
%TO.C,R11*%
G36*
G01*
X131227300Y-30161600D02*
X130752300Y-30161600D01*
G75*
G02*
X130514800Y-29924100I0J237500D01*
G01*
X130514800Y-29424100D01*
G75*
G02*
X130752300Y-29186600I237500J0D01*
G01*
X131227300Y-29186600D01*
G75*
G02*
X131464800Y-29424100I0J-237500D01*
G01*
X131464800Y-29924100D01*
G75*
G02*
X131227300Y-30161600I-237500J0D01*
G01*
G37*
G36*
G01*
X131227300Y-31986600D02*
X130752300Y-31986600D01*
G75*
G02*
X130514800Y-31749100I0J237500D01*
G01*
X130514800Y-31249100D01*
G75*
G02*
X130752300Y-31011600I237500J0D01*
G01*
X131227300Y-31011600D01*
G75*
G02*
X131464800Y-31249100I0J-237500D01*
G01*
X131464800Y-31749100D01*
G75*
G02*
X131227300Y-31986600I-237500J0D01*
G01*
G37*
%TD*%
%TO.C,R10*%
G36*
G01*
X124575000Y-49062500D02*
X124575000Y-49537500D01*
G75*
G02*
X124337500Y-49775000I-237500J0D01*
G01*
X123837500Y-49775000D01*
G75*
G02*
X123600000Y-49537500I0J237500D01*
G01*
X123600000Y-49062500D01*
G75*
G02*
X123837500Y-48825000I237500J0D01*
G01*
X124337500Y-48825000D01*
G75*
G02*
X124575000Y-49062500I0J-237500D01*
G01*
G37*
G36*
G01*
X126400000Y-49062500D02*
X126400000Y-49537500D01*
G75*
G02*
X126162500Y-49775000I-237500J0D01*
G01*
X125662500Y-49775000D01*
G75*
G02*
X125425000Y-49537500I0J237500D01*
G01*
X125425000Y-49062500D01*
G75*
G02*
X125662500Y-48825000I237500J0D01*
G01*
X126162500Y-48825000D01*
G75*
G02*
X126400000Y-49062500I0J-237500D01*
G01*
G37*
%TD*%
%TO.C,R9*%
G36*
G01*
X124475000Y-37062500D02*
X124475000Y-37537500D01*
G75*
G02*
X124237500Y-37775000I-237500J0D01*
G01*
X123737500Y-37775000D01*
G75*
G02*
X123500000Y-37537500I0J237500D01*
G01*
X123500000Y-37062500D01*
G75*
G02*
X123737500Y-36825000I237500J0D01*
G01*
X124237500Y-36825000D01*
G75*
G02*
X124475000Y-37062500I0J-237500D01*
G01*
G37*
G36*
G01*
X126300000Y-37062500D02*
X126300000Y-37537500D01*
G75*
G02*
X126062500Y-37775000I-237500J0D01*
G01*
X125562500Y-37775000D01*
G75*
G02*
X125325000Y-37537500I0J237500D01*
G01*
X125325000Y-37062500D01*
G75*
G02*
X125562500Y-36825000I237500J0D01*
G01*
X126062500Y-36825000D01*
G75*
G02*
X126300000Y-37062500I0J-237500D01*
G01*
G37*
%TD*%
%TO.C,R8*%
G36*
G01*
X124617000Y-54325700D02*
X124617000Y-54800700D01*
G75*
G02*
X124379500Y-55038200I-237500J0D01*
G01*
X123879500Y-55038200D01*
G75*
G02*
X123642000Y-54800700I0J237500D01*
G01*
X123642000Y-54325700D01*
G75*
G02*
X123879500Y-54088200I237500J0D01*
G01*
X124379500Y-54088200D01*
G75*
G02*
X124617000Y-54325700I0J-237500D01*
G01*
G37*
G36*
G01*
X126442000Y-54325700D02*
X126442000Y-54800700D01*
G75*
G02*
X126204500Y-55038200I-237500J0D01*
G01*
X125704500Y-55038200D01*
G75*
G02*
X125467000Y-54800700I0J237500D01*
G01*
X125467000Y-54325700D01*
G75*
G02*
X125704500Y-54088200I237500J0D01*
G01*
X126204500Y-54088200D01*
G75*
G02*
X126442000Y-54325700I0J-237500D01*
G01*
G37*
%TD*%
%TO.C,R7*%
G36*
G01*
X124475000Y-42462500D02*
X124475000Y-42937500D01*
G75*
G02*
X124237500Y-43175000I-237500J0D01*
G01*
X123737500Y-43175000D01*
G75*
G02*
X123500000Y-42937500I0J237500D01*
G01*
X123500000Y-42462500D01*
G75*
G02*
X123737500Y-42225000I237500J0D01*
G01*
X124237500Y-42225000D01*
G75*
G02*
X124475000Y-42462500I0J-237500D01*
G01*
G37*
G36*
G01*
X126300000Y-42462500D02*
X126300000Y-42937500D01*
G75*
G02*
X126062500Y-43175000I-237500J0D01*
G01*
X125562500Y-43175000D01*
G75*
G02*
X125325000Y-42937500I0J237500D01*
G01*
X125325000Y-42462500D01*
G75*
G02*
X125562500Y-42225000I237500J0D01*
G01*
X126062500Y-42225000D01*
G75*
G02*
X126300000Y-42462500I0J-237500D01*
G01*
G37*
%TD*%
%TO.C,R6*%
G36*
G01*
X112391900Y-56507600D02*
X112866900Y-56507600D01*
G75*
G02*
X113104400Y-56745100I0J-237500D01*
G01*
X113104400Y-57245100D01*
G75*
G02*
X112866900Y-57482600I-237500J0D01*
G01*
X112391900Y-57482600D01*
G75*
G02*
X112154400Y-57245100I0J237500D01*
G01*
X112154400Y-56745100D01*
G75*
G02*
X112391900Y-56507600I237500J0D01*
G01*
G37*
G36*
G01*
X112391900Y-54682600D02*
X112866900Y-54682600D01*
G75*
G02*
X113104400Y-54920100I0J-237500D01*
G01*
X113104400Y-55420100D01*
G75*
G02*
X112866900Y-55657600I-237500J0D01*
G01*
X112391900Y-55657600D01*
G75*
G02*
X112154400Y-55420100I0J237500D01*
G01*
X112154400Y-54920100D01*
G75*
G02*
X112391900Y-54682600I237500J0D01*
G01*
G37*
%TD*%
%TO.C,R5*%
G36*
G01*
X112398300Y-45542000D02*
X112873300Y-45542000D01*
G75*
G02*
X113110800Y-45779500I0J-237500D01*
G01*
X113110800Y-46279500D01*
G75*
G02*
X112873300Y-46517000I-237500J0D01*
G01*
X112398300Y-46517000D01*
G75*
G02*
X112160800Y-46279500I0J237500D01*
G01*
X112160800Y-45779500D01*
G75*
G02*
X112398300Y-45542000I237500J0D01*
G01*
G37*
G36*
G01*
X112398300Y-43717000D02*
X112873300Y-43717000D01*
G75*
G02*
X113110800Y-43954500I0J-237500D01*
G01*
X113110800Y-44454500D01*
G75*
G02*
X112873300Y-44692000I-237500J0D01*
G01*
X112398300Y-44692000D01*
G75*
G02*
X112160800Y-44454500I0J237500D01*
G01*
X112160800Y-43954500D01*
G75*
G02*
X112398300Y-43717000I237500J0D01*
G01*
G37*
%TD*%
%TO.C,R4*%
G36*
G01*
X109138800Y-59350900D02*
X109138800Y-59825900D01*
G75*
G02*
X108901300Y-60063400I-237500J0D01*
G01*
X108401300Y-60063400D01*
G75*
G02*
X108163800Y-59825900I0J237500D01*
G01*
X108163800Y-59350900D01*
G75*
G02*
X108401300Y-59113400I237500J0D01*
G01*
X108901300Y-59113400D01*
G75*
G02*
X109138800Y-59350900I0J-237500D01*
G01*
G37*
G36*
G01*
X110963800Y-59350900D02*
X110963800Y-59825900D01*
G75*
G02*
X110726300Y-60063400I-237500J0D01*
G01*
X110226300Y-60063400D01*
G75*
G02*
X109988800Y-59825900I0J237500D01*
G01*
X109988800Y-59350900D01*
G75*
G02*
X110226300Y-59113400I237500J0D01*
G01*
X110726300Y-59113400D01*
G75*
G02*
X110963800Y-59350900I0J-237500D01*
G01*
G37*
%TD*%
%TO.C,R3*%
G36*
G01*
X109075000Y-48262500D02*
X109075000Y-48737500D01*
G75*
G02*
X108837500Y-48975000I-237500J0D01*
G01*
X108337500Y-48975000D01*
G75*
G02*
X108100000Y-48737500I0J237500D01*
G01*
X108100000Y-48262500D01*
G75*
G02*
X108337500Y-48025000I237500J0D01*
G01*
X108837500Y-48025000D01*
G75*
G02*
X109075000Y-48262500I0J-237500D01*
G01*
G37*
G36*
G01*
X110900000Y-48262500D02*
X110900000Y-48737500D01*
G75*
G02*
X110662500Y-48975000I-237500J0D01*
G01*
X110162500Y-48975000D01*
G75*
G02*
X109925000Y-48737500I0J237500D01*
G01*
X109925000Y-48262500D01*
G75*
G02*
X110162500Y-48025000I237500J0D01*
G01*
X110662500Y-48025000D01*
G75*
G02*
X110900000Y-48262500I0J-237500D01*
G01*
G37*
%TD*%
%TO.C,R2*%
G36*
G01*
X109175000Y-51162500D02*
X109175000Y-51637500D01*
G75*
G02*
X108937500Y-51875000I-237500J0D01*
G01*
X108437500Y-51875000D01*
G75*
G02*
X108200000Y-51637500I0J237500D01*
G01*
X108200000Y-51162500D01*
G75*
G02*
X108437500Y-50925000I237500J0D01*
G01*
X108937500Y-50925000D01*
G75*
G02*
X109175000Y-51162500I0J-237500D01*
G01*
G37*
G36*
G01*
X111000000Y-51162500D02*
X111000000Y-51637500D01*
G75*
G02*
X110762500Y-51875000I-237500J0D01*
G01*
X110262500Y-51875000D01*
G75*
G02*
X110025000Y-51637500I0J237500D01*
G01*
X110025000Y-51162500D01*
G75*
G02*
X110262500Y-50925000I237500J0D01*
G01*
X110762500Y-50925000D01*
G75*
G02*
X111000000Y-51162500I0J-237500D01*
G01*
G37*
%TD*%
%TO.C,R1*%
G36*
G01*
X109175000Y-39962500D02*
X109175000Y-40437500D01*
G75*
G02*
X108937500Y-40675000I-237500J0D01*
G01*
X108437500Y-40675000D01*
G75*
G02*
X108200000Y-40437500I0J237500D01*
G01*
X108200000Y-39962500D01*
G75*
G02*
X108437500Y-39725000I237500J0D01*
G01*
X108937500Y-39725000D01*
G75*
G02*
X109175000Y-39962500I0J-237500D01*
G01*
G37*
G36*
G01*
X111000000Y-39962500D02*
X111000000Y-40437500D01*
G75*
G02*
X110762500Y-40675000I-237500J0D01*
G01*
X110262500Y-40675000D01*
G75*
G02*
X110025000Y-40437500I0J237500D01*
G01*
X110025000Y-39962500D01*
G75*
G02*
X110262500Y-39725000I237500J0D01*
G01*
X110762500Y-39725000D01*
G75*
G02*
X111000000Y-39962500I0J-237500D01*
G01*
G37*
%TD*%
D10*
%TO.C,J9*%
X138100000Y-44540000D03*
D11*
X138100000Y-42000000D03*
%TD*%
D10*
%TO.C,J8*%
X138400000Y-56540000D03*
D11*
X138400000Y-54000000D03*
%TD*%
D13*
%TO.C,J6*%
X146700000Y-57060000D03*
X146700000Y-59600000D03*
D14*
X151780000Y-64680000D03*
X151780000Y-54520000D03*
%TD*%
D13*
%TO.C,J5*%
X146700000Y-32160000D03*
X146700000Y-34700000D03*
D14*
X151780000Y-39780000D03*
X151780000Y-29620000D03*
%TD*%
D10*
%TO.C,J4*%
X118260000Y-60100000D03*
D11*
X120800000Y-60100000D03*
%TD*%
D10*
%TO.C,J3*%
X117760000Y-36200000D03*
D11*
X120300000Y-36200000D03*
%TD*%
D10*
%TO.C,J2*%
X133800000Y-33240000D03*
D11*
X133800000Y-30700000D03*
%TD*%
D10*
%TO.C,J1*%
X103600000Y-53620000D03*
X103600000Y-51080000D03*
X103600000Y-48540000D03*
D11*
X103600000Y-46000000D03*
%TD*%
%TO.C,C7*%
G36*
G01*
X128437500Y-33775000D02*
X127962500Y-33775000D01*
G75*
G02*
X127725000Y-33537500I0J237500D01*
G01*
X127725000Y-32937500D01*
G75*
G02*
X127962500Y-32700000I237500J0D01*
G01*
X128437500Y-32700000D01*
G75*
G02*
X128675000Y-32937500I0J-237500D01*
G01*
X128675000Y-33537500D01*
G75*
G02*
X128437500Y-33775000I-237500J0D01*
G01*
G37*
G36*
G01*
X128437500Y-35500000D02*
X127962500Y-35500000D01*
G75*
G02*
X127725000Y-35262500I0J237500D01*
G01*
X127725000Y-34662500D01*
G75*
G02*
X127962500Y-34425000I237500J0D01*
G01*
X128437500Y-34425000D01*
G75*
G02*
X128675000Y-34662500I0J-237500D01*
G01*
X128675000Y-35262500D01*
G75*
G02*
X128437500Y-35500000I-237500J0D01*
G01*
G37*
%TD*%
%TO.C,C6*%
G36*
G01*
X124675000Y-51762500D02*
X124675000Y-52237500D01*
G75*
G02*
X124437500Y-52475000I-237500J0D01*
G01*
X123837500Y-52475000D01*
G75*
G02*
X123600000Y-52237500I0J237500D01*
G01*
X123600000Y-51762500D01*
G75*
G02*
X123837500Y-51525000I237500J0D01*
G01*
X124437500Y-51525000D01*
G75*
G02*
X124675000Y-51762500I0J-237500D01*
G01*
G37*
G36*
G01*
X126400000Y-51762500D02*
X126400000Y-52237500D01*
G75*
G02*
X126162500Y-52475000I-237500J0D01*
G01*
X125562500Y-52475000D01*
G75*
G02*
X125325000Y-52237500I0J237500D01*
G01*
X125325000Y-51762500D01*
G75*
G02*
X125562500Y-51525000I237500J0D01*
G01*
X126162500Y-51525000D01*
G75*
G02*
X126400000Y-51762500I0J-237500D01*
G01*
G37*
%TD*%
%TO.C,C5*%
G36*
G01*
X124475000Y-39762500D02*
X124475000Y-40237500D01*
G75*
G02*
X124237500Y-40475000I-237500J0D01*
G01*
X123637500Y-40475000D01*
G75*
G02*
X123400000Y-40237500I0J237500D01*
G01*
X123400000Y-39762500D01*
G75*
G02*
X123637500Y-39525000I237500J0D01*
G01*
X124237500Y-39525000D01*
G75*
G02*
X124475000Y-39762500I0J-237500D01*
G01*
G37*
G36*
G01*
X126200000Y-39762500D02*
X126200000Y-40237500D01*
G75*
G02*
X125962500Y-40475000I-237500J0D01*
G01*
X125362500Y-40475000D01*
G75*
G02*
X125125000Y-40237500I0J237500D01*
G01*
X125125000Y-39762500D01*
G75*
G02*
X125362500Y-39525000I237500J0D01*
G01*
X125962500Y-39525000D01*
G75*
G02*
X126200000Y-39762500I0J-237500D01*
G01*
G37*
%TD*%
%TO.C,C4*%
G36*
G01*
X109275000Y-56662500D02*
X109275000Y-57137500D01*
G75*
G02*
X109037500Y-57375000I-237500J0D01*
G01*
X108437500Y-57375000D01*
G75*
G02*
X108200000Y-57137500I0J237500D01*
G01*
X108200000Y-56662500D01*
G75*
G02*
X108437500Y-56425000I237500J0D01*
G01*
X109037500Y-56425000D01*
G75*
G02*
X109275000Y-56662500I0J-237500D01*
G01*
G37*
G36*
G01*
X111000000Y-56662500D02*
X111000000Y-57137500D01*
G75*
G02*
X110762500Y-57375000I-237500J0D01*
G01*
X110162500Y-57375000D01*
G75*
G02*
X109925000Y-57137500I0J237500D01*
G01*
X109925000Y-56662500D01*
G75*
G02*
X110162500Y-56425000I237500J0D01*
G01*
X110762500Y-56425000D01*
G75*
G02*
X111000000Y-56662500I0J-237500D01*
G01*
G37*
%TD*%
%TO.C,C3*%
G36*
G01*
X109260600Y-53954900D02*
X109260600Y-54429900D01*
G75*
G02*
X109023100Y-54667400I-237500J0D01*
G01*
X108423100Y-54667400D01*
G75*
G02*
X108185600Y-54429900I0J237500D01*
G01*
X108185600Y-53954900D01*
G75*
G02*
X108423100Y-53717400I237500J0D01*
G01*
X109023100Y-53717400D01*
G75*
G02*
X109260600Y-53954900I0J-237500D01*
G01*
G37*
G36*
G01*
X110985600Y-53954900D02*
X110985600Y-54429900D01*
G75*
G02*
X110748100Y-54667400I-237500J0D01*
G01*
X110148100Y-54667400D01*
G75*
G02*
X109910600Y-54429900I0J237500D01*
G01*
X109910600Y-53954900D01*
G75*
G02*
X110148100Y-53717400I237500J0D01*
G01*
X110748100Y-53717400D01*
G75*
G02*
X110985600Y-53954900I0J-237500D01*
G01*
G37*
%TD*%
%TO.C,C2*%
G36*
G01*
X109179400Y-45575100D02*
X109179400Y-46050100D01*
G75*
G02*
X108941900Y-46287600I-237500J0D01*
G01*
X108341900Y-46287600D01*
G75*
G02*
X108104400Y-46050100I0J237500D01*
G01*
X108104400Y-45575100D01*
G75*
G02*
X108341900Y-45337600I237500J0D01*
G01*
X108941900Y-45337600D01*
G75*
G02*
X109179400Y-45575100I0J-237500D01*
G01*
G37*
G36*
G01*
X110904400Y-45575100D02*
X110904400Y-46050100D01*
G75*
G02*
X110666900Y-46287600I-237500J0D01*
G01*
X110066900Y-46287600D01*
G75*
G02*
X109829400Y-46050100I0J237500D01*
G01*
X109829400Y-45575100D01*
G75*
G02*
X110066900Y-45337600I237500J0D01*
G01*
X110666900Y-45337600D01*
G75*
G02*
X110904400Y-45575100I0J-237500D01*
G01*
G37*
%TD*%
%TO.C,C1*%
G36*
G01*
X109303200Y-42649100D02*
X109303200Y-43124100D01*
G75*
G02*
X109065700Y-43361600I-237500J0D01*
G01*
X108465700Y-43361600D01*
G75*
G02*
X108228200Y-43124100I0J237500D01*
G01*
X108228200Y-42649100D01*
G75*
G02*
X108465700Y-42411600I237500J0D01*
G01*
X109065700Y-42411600D01*
G75*
G02*
X109303200Y-42649100I0J-237500D01*
G01*
G37*
G36*
G01*
X111028200Y-42649100D02*
X111028200Y-43124100D01*
G75*
G02*
X110790700Y-43361600I-237500J0D01*
G01*
X110190700Y-43361600D01*
G75*
G02*
X109953200Y-43124100I0J237500D01*
G01*
X109953200Y-42649100D01*
G75*
G02*
X110190700Y-42411600I237500J0D01*
G01*
X110790700Y-42411600D01*
G75*
G02*
X111028200Y-42649100I0J-237500D01*
G01*
G37*
%TD*%
M02*
