%TF.GenerationSoftware,KiCad,Pcbnew,(5.1.12)-1*%
%TF.CreationDate,2021-12-10T12:11:04+01:00*%
%TF.ProjectId,standalone,7374616e-6461-46c6-9f6e-652e6b696361,rev?*%
%TF.SameCoordinates,Original*%
%TF.FileFunction,Legend,Top*%
%TF.FilePolarity,Positive*%
%FSLAX46Y46*%
G04 Gerber Fmt 4.6, Leading zero omitted, Abs format (unit mm)*
G04 Created by KiCad (PCBNEW (5.1.12)-1) date 2021-12-10 12:11:04*
%MOMM*%
%LPD*%
G01*
G04 APERTURE LIST*
%ADD10C,0.150000*%
%ADD11C,0.120000*%
G04 APERTURE END LIST*
D10*
X103833333Y-29802380D02*
X103833333Y-28802380D01*
X104261904Y-29802380D02*
X104261904Y-29278571D01*
X104214285Y-29183333D01*
X104119047Y-29135714D01*
X103976190Y-29135714D01*
X103880952Y-29183333D01*
X103833333Y-29230952D01*
X104642857Y-29135714D02*
X104880952Y-29802380D01*
X105119047Y-29135714D02*
X104880952Y-29802380D01*
X104785714Y-30040476D01*
X104738095Y-30088095D01*
X104642857Y-30135714D01*
X105928571Y-29802380D02*
X105928571Y-28802380D01*
X105928571Y-29754761D02*
X105833333Y-29802380D01*
X105642857Y-29802380D01*
X105547619Y-29754761D01*
X105500000Y-29707142D01*
X105452380Y-29611904D01*
X105452380Y-29326190D01*
X105500000Y-29230952D01*
X105547619Y-29183333D01*
X105642857Y-29135714D01*
X105833333Y-29135714D01*
X105928571Y-29183333D01*
X106404761Y-29802380D02*
X106404761Y-29135714D01*
X106404761Y-29326190D02*
X106452380Y-29230952D01*
X106500000Y-29183333D01*
X106595238Y-29135714D01*
X106690476Y-29135714D01*
X107166666Y-29802380D02*
X107071428Y-29754761D01*
X107023809Y-29707142D01*
X106976190Y-29611904D01*
X106976190Y-29326190D01*
X107023809Y-29230952D01*
X107071428Y-29183333D01*
X107166666Y-29135714D01*
X107309523Y-29135714D01*
X107404761Y-29183333D01*
X107452380Y-29230952D01*
X107500000Y-29326190D01*
X107500000Y-29611904D01*
X107452380Y-29707142D01*
X107404761Y-29754761D01*
X107309523Y-29802380D01*
X107166666Y-29802380D01*
X107928571Y-29802380D02*
X107928571Y-29135714D01*
X107928571Y-29326190D02*
X107976190Y-29230952D01*
X108023809Y-29183333D01*
X108119047Y-29135714D01*
X108214285Y-29135714D01*
X108976190Y-29802380D02*
X108976190Y-29278571D01*
X108928571Y-29183333D01*
X108833333Y-29135714D01*
X108642857Y-29135714D01*
X108547619Y-29183333D01*
X108976190Y-29754761D02*
X108880952Y-29802380D01*
X108642857Y-29802380D01*
X108547619Y-29754761D01*
X108500000Y-29659523D01*
X108500000Y-29564285D01*
X108547619Y-29469047D01*
X108642857Y-29421428D01*
X108880952Y-29421428D01*
X108976190Y-29373809D01*
X109880952Y-29802380D02*
X109880952Y-28802380D01*
X109880952Y-29754761D02*
X109785714Y-29802380D01*
X109595238Y-29802380D01*
X109500000Y-29754761D01*
X109452380Y-29707142D01*
X109404761Y-29611904D01*
X109404761Y-29326190D01*
X109452380Y-29230952D01*
X109500000Y-29183333D01*
X109595238Y-29135714D01*
X109785714Y-29135714D01*
X109880952Y-29183333D01*
X110785714Y-29802380D02*
X110785714Y-29278571D01*
X110738095Y-29183333D01*
X110642857Y-29135714D01*
X110452380Y-29135714D01*
X110357142Y-29183333D01*
X110785714Y-29754761D02*
X110690476Y-29802380D01*
X110452380Y-29802380D01*
X110357142Y-29754761D01*
X110309523Y-29659523D01*
X110309523Y-29564285D01*
X110357142Y-29469047D01*
X110452380Y-29421428D01*
X110690476Y-29421428D01*
X110785714Y-29373809D01*
X111261904Y-29802380D02*
X111261904Y-29135714D01*
X111261904Y-29326190D02*
X111309523Y-29230952D01*
X111357142Y-29183333D01*
X111452380Y-29135714D01*
X111547619Y-29135714D01*
X104785714Y-31452380D02*
X104785714Y-30452380D01*
X104785714Y-30833333D02*
X104880952Y-30785714D01*
X105071428Y-30785714D01*
X105166666Y-30833333D01*
X105214285Y-30880952D01*
X105261904Y-30976190D01*
X105261904Y-31261904D01*
X105214285Y-31357142D01*
X105166666Y-31404761D01*
X105071428Y-31452380D01*
X104880952Y-31452380D01*
X104785714Y-31404761D01*
X106119047Y-31452380D02*
X106119047Y-30928571D01*
X106071428Y-30833333D01*
X105976190Y-30785714D01*
X105785714Y-30785714D01*
X105690476Y-30833333D01*
X106119047Y-31404761D02*
X106023809Y-31452380D01*
X105785714Y-31452380D01*
X105690476Y-31404761D01*
X105642857Y-31309523D01*
X105642857Y-31214285D01*
X105690476Y-31119047D01*
X105785714Y-31071428D01*
X106023809Y-31071428D01*
X106119047Y-31023809D01*
X107023809Y-31404761D02*
X106928571Y-31452380D01*
X106738095Y-31452380D01*
X106642857Y-31404761D01*
X106595238Y-31357142D01*
X106547619Y-31261904D01*
X106547619Y-30976190D01*
X106595238Y-30880952D01*
X106642857Y-30833333D01*
X106738095Y-30785714D01*
X106928571Y-30785714D01*
X107023809Y-30833333D01*
X107452380Y-31452380D02*
X107452380Y-30452380D01*
X107547619Y-31071428D02*
X107833333Y-31452380D01*
X107833333Y-30785714D02*
X107452380Y-31166666D01*
X108642857Y-31404761D02*
X108547619Y-31452380D01*
X108357142Y-31452380D01*
X108261904Y-31404761D01*
X108214285Y-31309523D01*
X108214285Y-30928571D01*
X108261904Y-30833333D01*
X108357142Y-30785714D01*
X108547619Y-30785714D01*
X108642857Y-30833333D01*
X108690476Y-30928571D01*
X108690476Y-31023809D01*
X108214285Y-31119047D01*
X109119047Y-30785714D02*
X109119047Y-31452380D01*
X109119047Y-30880952D02*
X109166666Y-30833333D01*
X109261904Y-30785714D01*
X109404761Y-30785714D01*
X109500000Y-30833333D01*
X109547619Y-30928571D01*
X109547619Y-31452380D01*
X110452380Y-31452380D02*
X110452380Y-30452380D01*
X110452380Y-31404761D02*
X110357142Y-31452380D01*
X110166666Y-31452380D01*
X110071428Y-31404761D01*
X110023809Y-31357142D01*
X109976190Y-31261904D01*
X109976190Y-30976190D01*
X110023809Y-30880952D01*
X110071428Y-30833333D01*
X110166666Y-30785714D01*
X110357142Y-30785714D01*
X110452380Y-30833333D01*
X107047619Y-32435714D02*
X107285714Y-33102380D01*
X107523809Y-32435714D01*
X107904761Y-33007142D02*
X107952380Y-33054761D01*
X107904761Y-33102380D01*
X107857142Y-33054761D01*
X107904761Y-33007142D01*
X107904761Y-33102380D01*
X108333333Y-32197619D02*
X108380952Y-32150000D01*
X108476190Y-32102380D01*
X108714285Y-32102380D01*
X108809523Y-32150000D01*
X108857142Y-32197619D01*
X108904761Y-32292857D01*
X108904761Y-32388095D01*
X108857142Y-32530952D01*
X108285714Y-33102380D01*
X108904761Y-33102380D01*
X105846446Y-54593316D02*
X105139339Y-53886209D01*
X106048477Y-53650507D02*
X105812774Y-53886209D01*
X106183164Y-54256599D02*
X105476057Y-53549492D01*
X105812774Y-53212774D01*
X107328003Y-53246446D02*
X107226988Y-53280118D01*
X107092301Y-53280118D01*
X106890270Y-53280118D01*
X106789255Y-53313790D01*
X106721912Y-53381133D01*
X106923942Y-53515820D02*
X106822927Y-53549492D01*
X106688240Y-53549492D01*
X106519881Y-53448477D01*
X106284179Y-53212774D01*
X106183164Y-53044416D01*
X106183164Y-52909729D01*
X106216835Y-52808713D01*
X106351522Y-52674026D01*
X106452538Y-52640355D01*
X106587225Y-52640355D01*
X106755583Y-52741370D01*
X106991286Y-52977072D01*
X107092301Y-53145431D01*
X107092301Y-53280118D01*
X107058629Y-53381133D01*
X106923942Y-53515820D01*
X105709729Y-52330034D02*
X105002622Y-51622927D01*
X105911759Y-51387225D02*
X105676057Y-51622927D01*
X106046446Y-51993316D02*
X105339339Y-51286209D01*
X105676057Y-50949492D01*
X107191286Y-50983164D02*
X107090270Y-51016835D01*
X106955583Y-51016835D01*
X106753553Y-51016835D01*
X106652538Y-51050507D01*
X106585194Y-51117851D01*
X106787225Y-51252538D02*
X106686209Y-51286209D01*
X106551522Y-51286209D01*
X106383164Y-51185194D01*
X106147461Y-50949492D01*
X106046446Y-50781133D01*
X106046446Y-50646446D01*
X106080118Y-50545431D01*
X106214805Y-50410744D01*
X106315820Y-50377072D01*
X106450507Y-50377072D01*
X106618866Y-50478087D01*
X106854568Y-50713790D01*
X106955583Y-50882148D01*
X106955583Y-51016835D01*
X106921912Y-51117851D01*
X106787225Y-51252538D01*
X106618866Y-50006683D02*
X107797377Y-50242385D01*
X107090270Y-49535278D02*
X107325973Y-50713790D01*
X105848477Y-49191286D02*
X105141370Y-48484179D01*
X106050507Y-48248477D02*
X105814805Y-48484179D01*
X106185194Y-48854568D02*
X105478087Y-48147461D01*
X105814805Y-47810744D01*
X106791286Y-48248477D02*
X106084179Y-47541370D01*
X105911759Y-47128003D02*
X105204652Y-46420896D01*
X106113790Y-46185194D02*
X105878087Y-46420896D01*
X106248477Y-46791286D02*
X105541370Y-46084179D01*
X105878087Y-45747461D01*
X106854568Y-46185194D02*
X106147461Y-45478087D01*
X106416835Y-45208713D02*
X107595347Y-45444416D01*
X106888240Y-44737309D02*
X107123942Y-45915820D01*
X134352380Y-68500000D02*
X134352380Y-68309523D01*
X134400000Y-68214285D01*
X134495238Y-68119047D01*
X134685714Y-68071428D01*
X135019047Y-68071428D01*
X135209523Y-68119047D01*
X135304761Y-68214285D01*
X135352380Y-68309523D01*
X135352380Y-68500000D01*
X135304761Y-68595238D01*
X135209523Y-68690476D01*
X135019047Y-68738095D01*
X134685714Y-68738095D01*
X134495238Y-68690476D01*
X134400000Y-68595238D01*
X134352380Y-68500000D01*
X134352380Y-67642857D02*
X135161904Y-67642857D01*
X135257142Y-67595238D01*
X135304761Y-67547619D01*
X135352380Y-67452380D01*
X135352380Y-67261904D01*
X135304761Y-67166666D01*
X135257142Y-67119047D01*
X135161904Y-67071428D01*
X134352380Y-67071428D01*
X134352380Y-66738095D02*
X134352380Y-66166666D01*
X135352380Y-66452380D02*
X134352380Y-66452380D01*
X132271428Y-68442857D02*
X132271428Y-67680952D01*
X132652380Y-67204761D02*
X131652380Y-67204761D01*
X132652380Y-66728571D02*
X131652380Y-66728571D01*
X132652380Y-66157142D01*
X131652380Y-66157142D01*
X129671428Y-68442857D02*
X129671428Y-67680952D01*
X130052380Y-68061904D02*
X129290476Y-68061904D01*
X130052380Y-67204761D02*
X129052380Y-67204761D01*
X130052380Y-66728571D02*
X129052380Y-66728571D01*
X130052380Y-66157142D01*
X129052380Y-66157142D01*
X125995238Y-61528571D02*
X126328571Y-61528571D01*
X126471428Y-62052380D02*
X125995238Y-62052380D01*
X125995238Y-61052380D01*
X126471428Y-61052380D01*
X126804761Y-61052380D02*
X127471428Y-62052380D01*
X127471428Y-61052380D02*
X126804761Y-62052380D01*
X127709523Y-61052380D02*
X128280952Y-61052380D01*
X127995238Y-62052380D02*
X127995238Y-61052380D01*
X129185714Y-62052380D02*
X128852380Y-61576190D01*
X128614285Y-62052380D02*
X128614285Y-61052380D01*
X128995238Y-61052380D01*
X129090476Y-61100000D01*
X129138095Y-61147619D01*
X129185714Y-61242857D01*
X129185714Y-61385714D01*
X129138095Y-61480952D01*
X129090476Y-61528571D01*
X128995238Y-61576190D01*
X128614285Y-61576190D01*
X129566666Y-61766666D02*
X130042857Y-61766666D01*
X129471428Y-62052380D02*
X129804761Y-61052380D01*
X130138095Y-62052380D01*
X131423809Y-61052380D02*
X131614285Y-61052380D01*
X131709523Y-61100000D01*
X131804761Y-61195238D01*
X131852380Y-61385714D01*
X131852380Y-61719047D01*
X131804761Y-61909523D01*
X131709523Y-62004761D01*
X131614285Y-62052380D01*
X131423809Y-62052380D01*
X131328571Y-62004761D01*
X131233333Y-61909523D01*
X131185714Y-61719047D01*
X131185714Y-61385714D01*
X131233333Y-61195238D01*
X131328571Y-61100000D01*
X131423809Y-61052380D01*
X132280952Y-62052380D02*
X132280952Y-61052380D01*
X132661904Y-61052380D01*
X132757142Y-61100000D01*
X132804761Y-61147619D01*
X132852380Y-61242857D01*
X132852380Y-61385714D01*
X132804761Y-61480952D01*
X132757142Y-61528571D01*
X132661904Y-61576190D01*
X132280952Y-61576190D01*
X133233333Y-61766666D02*
X133709523Y-61766666D01*
X133138095Y-62052380D02*
X133471428Y-61052380D01*
X133804761Y-62052380D01*
X134138095Y-62052380D02*
X134138095Y-61052380D01*
X134471428Y-61766666D01*
X134804761Y-61052380D01*
X134804761Y-62052380D01*
X135280952Y-62052380D02*
X135280952Y-61052380D01*
X135661904Y-61052380D01*
X135757142Y-61100000D01*
X135804761Y-61147619D01*
X135852380Y-61242857D01*
X135852380Y-61385714D01*
X135804761Y-61480952D01*
X135757142Y-61528571D01*
X135661904Y-61576190D01*
X135280952Y-61576190D01*
X140119047Y-44571428D02*
X140880952Y-44571428D01*
X140119047Y-41971428D02*
X140880952Y-41971428D01*
X140500000Y-42352380D02*
X140500000Y-41590476D01*
X137433333Y-38327380D02*
X137433333Y-37327380D01*
X138242857Y-37803571D02*
X137909523Y-37803571D01*
X137909523Y-38327380D02*
X137909523Y-37327380D01*
X138385714Y-37327380D01*
X138766666Y-38327380D02*
X138766666Y-37327380D01*
X136219047Y-39929761D02*
X136361904Y-39977380D01*
X136600000Y-39977380D01*
X136695238Y-39929761D01*
X136742857Y-39882142D01*
X136790476Y-39786904D01*
X136790476Y-39691666D01*
X136742857Y-39596428D01*
X136695238Y-39548809D01*
X136600000Y-39501190D01*
X136409523Y-39453571D01*
X136314285Y-39405952D01*
X136266666Y-39358333D01*
X136219047Y-39263095D01*
X136219047Y-39167857D01*
X136266666Y-39072619D01*
X136314285Y-39025000D01*
X136409523Y-38977380D01*
X136647619Y-38977380D01*
X136790476Y-39025000D01*
X137076190Y-38977380D02*
X137647619Y-38977380D01*
X137361904Y-39977380D02*
X137361904Y-38977380D01*
X138504761Y-39025000D02*
X138409523Y-38977380D01*
X138266666Y-38977380D01*
X138123809Y-39025000D01*
X138028571Y-39120238D01*
X137980952Y-39215476D01*
X137933333Y-39405952D01*
X137933333Y-39548809D01*
X137980952Y-39739285D01*
X138028571Y-39834523D01*
X138123809Y-39929761D01*
X138266666Y-39977380D01*
X138361904Y-39977380D01*
X138504761Y-39929761D01*
X138552380Y-39882142D01*
X138552380Y-39548809D01*
X138361904Y-39548809D01*
X138980952Y-39882142D02*
X139028571Y-39929761D01*
X138980952Y-39977380D01*
X138933333Y-39929761D01*
X138980952Y-39882142D01*
X138980952Y-39977380D01*
X139409523Y-39072619D02*
X139457142Y-39025000D01*
X139552380Y-38977380D01*
X139790476Y-38977380D01*
X139885714Y-39025000D01*
X139933333Y-39072619D01*
X139980952Y-39167857D01*
X139980952Y-39263095D01*
X139933333Y-39405952D01*
X139361904Y-39977380D01*
X139980952Y-39977380D01*
X140419047Y-56671428D02*
X141180952Y-56671428D01*
X140419047Y-53871428D02*
X141180952Y-53871428D01*
X140800000Y-54252380D02*
X140800000Y-53490476D01*
X137347619Y-49927380D02*
X137347619Y-48927380D01*
X138157142Y-49403571D02*
X137823809Y-49403571D01*
X137823809Y-49927380D02*
X137823809Y-48927380D01*
X138300000Y-48927380D01*
X139347619Y-50022619D02*
X139252380Y-49975000D01*
X139157142Y-49879761D01*
X139014285Y-49736904D01*
X138919047Y-49689285D01*
X138823809Y-49689285D01*
X138871428Y-49927380D02*
X138776190Y-49879761D01*
X138680952Y-49784523D01*
X138633333Y-49594047D01*
X138633333Y-49260714D01*
X138680952Y-49070238D01*
X138776190Y-48975000D01*
X138871428Y-48927380D01*
X139061904Y-48927380D01*
X139157142Y-48975000D01*
X139252380Y-49070238D01*
X139300000Y-49260714D01*
X139300000Y-49594047D01*
X139252380Y-49784523D01*
X139157142Y-49879761D01*
X139061904Y-49927380D01*
X138871428Y-49927380D01*
X136419047Y-51529761D02*
X136561904Y-51577380D01*
X136800000Y-51577380D01*
X136895238Y-51529761D01*
X136942857Y-51482142D01*
X136990476Y-51386904D01*
X136990476Y-51291666D01*
X136942857Y-51196428D01*
X136895238Y-51148809D01*
X136800000Y-51101190D01*
X136609523Y-51053571D01*
X136514285Y-51005952D01*
X136466666Y-50958333D01*
X136419047Y-50863095D01*
X136419047Y-50767857D01*
X136466666Y-50672619D01*
X136514285Y-50625000D01*
X136609523Y-50577380D01*
X136847619Y-50577380D01*
X136990476Y-50625000D01*
X137276190Y-50577380D02*
X137847619Y-50577380D01*
X137561904Y-51577380D02*
X137561904Y-50577380D01*
X138704761Y-50625000D02*
X138609523Y-50577380D01*
X138466666Y-50577380D01*
X138323809Y-50625000D01*
X138228571Y-50720238D01*
X138180952Y-50815476D01*
X138133333Y-51005952D01*
X138133333Y-51148809D01*
X138180952Y-51339285D01*
X138228571Y-51434523D01*
X138323809Y-51529761D01*
X138466666Y-51577380D01*
X138561904Y-51577380D01*
X138704761Y-51529761D01*
X138752380Y-51482142D01*
X138752380Y-51148809D01*
X138561904Y-51148809D01*
X139180952Y-51482142D02*
X139228571Y-51529761D01*
X139180952Y-51577380D01*
X139133333Y-51529761D01*
X139180952Y-51482142D01*
X139180952Y-51577380D01*
X139609523Y-50672619D02*
X139657142Y-50625000D01*
X139752380Y-50577380D01*
X139990476Y-50577380D01*
X140085714Y-50625000D01*
X140133333Y-50672619D01*
X140180952Y-50767857D01*
X140180952Y-50863095D01*
X140133333Y-51005952D01*
X139561904Y-51577380D01*
X140180952Y-51577380D01*
X117719047Y-62471428D02*
X118480952Y-62471428D01*
X120419047Y-62471428D02*
X121180952Y-62471428D01*
X120800000Y-62852380D02*
X120800000Y-62090476D01*
X118447619Y-64227380D02*
X118447619Y-63227380D01*
X119257142Y-63703571D02*
X118923809Y-63703571D01*
X118923809Y-64227380D02*
X118923809Y-63227380D01*
X119400000Y-63227380D01*
X120447619Y-64322619D02*
X120352380Y-64275000D01*
X120257142Y-64179761D01*
X120114285Y-64036904D01*
X120019047Y-63989285D01*
X119923809Y-63989285D01*
X119971428Y-64227380D02*
X119876190Y-64179761D01*
X119780952Y-64084523D01*
X119733333Y-63894047D01*
X119733333Y-63560714D01*
X119780952Y-63370238D01*
X119876190Y-63275000D01*
X119971428Y-63227380D01*
X120161904Y-63227380D01*
X120257142Y-63275000D01*
X120352380Y-63370238D01*
X120400000Y-63560714D01*
X120400000Y-63894047D01*
X120352380Y-64084523D01*
X120257142Y-64179761D01*
X120161904Y-64227380D01*
X119971428Y-64227380D01*
X117519047Y-65829761D02*
X117661904Y-65877380D01*
X117900000Y-65877380D01*
X117995238Y-65829761D01*
X118042857Y-65782142D01*
X118090476Y-65686904D01*
X118090476Y-65591666D01*
X118042857Y-65496428D01*
X117995238Y-65448809D01*
X117900000Y-65401190D01*
X117709523Y-65353571D01*
X117614285Y-65305952D01*
X117566666Y-65258333D01*
X117519047Y-65163095D01*
X117519047Y-65067857D01*
X117566666Y-64972619D01*
X117614285Y-64925000D01*
X117709523Y-64877380D01*
X117947619Y-64877380D01*
X118090476Y-64925000D01*
X118376190Y-64877380D02*
X118947619Y-64877380D01*
X118661904Y-65877380D02*
X118661904Y-64877380D01*
X119804761Y-64925000D02*
X119709523Y-64877380D01*
X119566666Y-64877380D01*
X119423809Y-64925000D01*
X119328571Y-65020238D01*
X119280952Y-65115476D01*
X119233333Y-65305952D01*
X119233333Y-65448809D01*
X119280952Y-65639285D01*
X119328571Y-65734523D01*
X119423809Y-65829761D01*
X119566666Y-65877380D01*
X119661904Y-65877380D01*
X119804761Y-65829761D01*
X119852380Y-65782142D01*
X119852380Y-65448809D01*
X119661904Y-65448809D01*
X120280952Y-65782142D02*
X120328571Y-65829761D01*
X120280952Y-65877380D01*
X120233333Y-65829761D01*
X120280952Y-65782142D01*
X120280952Y-65877380D01*
X121280952Y-65877380D02*
X120709523Y-65877380D01*
X120995238Y-65877380D02*
X120995238Y-64877380D01*
X120900000Y-65020238D01*
X120804761Y-65115476D01*
X120709523Y-65163095D01*
X136038095Y-32900000D02*
X135942857Y-32852380D01*
X135800000Y-32852380D01*
X135657142Y-32900000D01*
X135561904Y-32995238D01*
X135514285Y-33090476D01*
X135466666Y-33280952D01*
X135466666Y-33423809D01*
X135514285Y-33614285D01*
X135561904Y-33709523D01*
X135657142Y-33804761D01*
X135800000Y-33852380D01*
X135895238Y-33852380D01*
X136038095Y-33804761D01*
X136085714Y-33757142D01*
X136085714Y-33423809D01*
X135895238Y-33423809D01*
X136514285Y-33852380D02*
X136514285Y-32852380D01*
X137085714Y-33852380D01*
X137085714Y-32852380D01*
X137561904Y-33852380D02*
X137561904Y-32852380D01*
X137800000Y-32852380D01*
X137942857Y-32900000D01*
X138038095Y-32995238D01*
X138085714Y-33090476D01*
X138133333Y-33280952D01*
X138133333Y-33423809D01*
X138085714Y-33614285D01*
X138038095Y-33709523D01*
X137942857Y-33804761D01*
X137800000Y-33852380D01*
X137561904Y-33852380D01*
X117119047Y-33671428D02*
X117880952Y-33671428D01*
X120119047Y-33671428D02*
X120880952Y-33671428D01*
X120500000Y-34052380D02*
X120500000Y-33290476D01*
X118633333Y-30827380D02*
X118633333Y-29827380D01*
X119442857Y-30303571D02*
X119109523Y-30303571D01*
X119109523Y-30827380D02*
X119109523Y-29827380D01*
X119585714Y-29827380D01*
X119966666Y-30827380D02*
X119966666Y-29827380D01*
X117419047Y-32429761D02*
X117561904Y-32477380D01*
X117800000Y-32477380D01*
X117895238Y-32429761D01*
X117942857Y-32382142D01*
X117990476Y-32286904D01*
X117990476Y-32191666D01*
X117942857Y-32096428D01*
X117895238Y-32048809D01*
X117800000Y-32001190D01*
X117609523Y-31953571D01*
X117514285Y-31905952D01*
X117466666Y-31858333D01*
X117419047Y-31763095D01*
X117419047Y-31667857D01*
X117466666Y-31572619D01*
X117514285Y-31525000D01*
X117609523Y-31477380D01*
X117847619Y-31477380D01*
X117990476Y-31525000D01*
X118276190Y-31477380D02*
X118847619Y-31477380D01*
X118561904Y-32477380D02*
X118561904Y-31477380D01*
X119704761Y-31525000D02*
X119609523Y-31477380D01*
X119466666Y-31477380D01*
X119323809Y-31525000D01*
X119228571Y-31620238D01*
X119180952Y-31715476D01*
X119133333Y-31905952D01*
X119133333Y-32048809D01*
X119180952Y-32239285D01*
X119228571Y-32334523D01*
X119323809Y-32429761D01*
X119466666Y-32477380D01*
X119561904Y-32477380D01*
X119704761Y-32429761D01*
X119752380Y-32382142D01*
X119752380Y-32048809D01*
X119561904Y-32048809D01*
X120180952Y-32382142D02*
X120228571Y-32429761D01*
X120180952Y-32477380D01*
X120133333Y-32429761D01*
X120180952Y-32382142D01*
X120180952Y-32477380D01*
X121180952Y-32477380D02*
X120609523Y-32477380D01*
X120895238Y-32477380D02*
X120895238Y-31477380D01*
X120800000Y-31620238D01*
X120704761Y-31715476D01*
X120609523Y-31763095D01*
X135809523Y-30052380D02*
X135333333Y-30052380D01*
X135285714Y-30528571D01*
X135333333Y-30480952D01*
X135428571Y-30433333D01*
X135666666Y-30433333D01*
X135761904Y-30480952D01*
X135809523Y-30528571D01*
X135857142Y-30623809D01*
X135857142Y-30861904D01*
X135809523Y-30957142D01*
X135761904Y-31004761D01*
X135666666Y-31052380D01*
X135428571Y-31052380D01*
X135333333Y-31004761D01*
X135285714Y-30957142D01*
X136142857Y-30052380D02*
X136476190Y-31052380D01*
X136809523Y-30052380D01*
D11*
%TO.C,J7*%
X125870000Y-65430000D02*
X125870000Y-64100000D01*
X127200000Y-65430000D02*
X125870000Y-65430000D01*
X128470000Y-65430000D02*
X128470000Y-62770000D01*
X128470000Y-62770000D02*
X136150000Y-62770000D01*
X128470000Y-65430000D02*
X136150000Y-65430000D01*
X136150000Y-65430000D02*
X136150000Y-62770000D01*
%TO.C,C11*%
X120553733Y-52210000D02*
X120846267Y-52210000D01*
X120553733Y-51190000D02*
X120846267Y-51190000D01*
%TO.C,C10*%
X120236533Y-41258200D02*
X120529067Y-41258200D01*
X120236533Y-40238200D02*
X120529067Y-40238200D01*
%TO.C,C9*%
X132553733Y-38810000D02*
X132846267Y-38810000D01*
X132553733Y-37790000D02*
X132846267Y-37790000D01*
%TO.C,C8*%
X132549133Y-50572800D02*
X132841667Y-50572800D01*
X132549133Y-49552800D02*
X132841667Y-49552800D01*
%TO.C,U4*%
X130714200Y-57829800D02*
X132664200Y-57829800D01*
X130714200Y-57829800D02*
X128764200Y-57829800D01*
X130714200Y-52709800D02*
X132664200Y-52709800D01*
X130714200Y-52709800D02*
X127264200Y-52709800D01*
%TO.C,U3*%
X130993600Y-45841000D02*
X132943600Y-45841000D01*
X130993600Y-45841000D02*
X129043600Y-45841000D01*
X130993600Y-40721000D02*
X132943600Y-40721000D01*
X130993600Y-40721000D02*
X127543600Y-40721000D01*
%TO.C,U2*%
X120030200Y-57524800D02*
X118030200Y-57524800D01*
X119030200Y-54284800D02*
X116030200Y-54284800D01*
%TO.C,U1*%
X119376200Y-46559200D02*
X117376200Y-46559200D01*
X118376200Y-43319200D02*
X115376200Y-43319200D01*
%TO.C,R12*%
X130477500Y-34354724D02*
X130477500Y-33845276D01*
X131522500Y-34354724D02*
X131522500Y-33845276D01*
%TO.C,R11*%
X130467300Y-30841324D02*
X130467300Y-30331876D01*
X131512300Y-30841324D02*
X131512300Y-30331876D01*
%TO.C,R10*%
X125254724Y-49822500D02*
X124745276Y-49822500D01*
X125254724Y-48777500D02*
X124745276Y-48777500D01*
%TO.C,R9*%
X125154724Y-37822500D02*
X124645276Y-37822500D01*
X125154724Y-36777500D02*
X124645276Y-36777500D01*
%TO.C,R8*%
X125296724Y-55085700D02*
X124787276Y-55085700D01*
X125296724Y-54040700D02*
X124787276Y-54040700D01*
%TO.C,R7*%
X125154724Y-43222500D02*
X124645276Y-43222500D01*
X125154724Y-42177500D02*
X124645276Y-42177500D01*
%TO.C,R6*%
X113151900Y-55827876D02*
X113151900Y-56337324D01*
X112106900Y-55827876D02*
X112106900Y-56337324D01*
%TO.C,R5*%
X113158300Y-44862276D02*
X113158300Y-45371724D01*
X112113300Y-44862276D02*
X112113300Y-45371724D01*
%TO.C,R4*%
X109818524Y-60110900D02*
X109309076Y-60110900D01*
X109818524Y-59065900D02*
X109309076Y-59065900D01*
%TO.C,R3*%
X109754724Y-49022500D02*
X109245276Y-49022500D01*
X109754724Y-47977500D02*
X109245276Y-47977500D01*
%TO.C,R2*%
X109854724Y-51922500D02*
X109345276Y-51922500D01*
X109854724Y-50877500D02*
X109345276Y-50877500D01*
%TO.C,R1*%
X109854724Y-40722500D02*
X109345276Y-40722500D01*
X109854724Y-39677500D02*
X109345276Y-39677500D01*
%TO.C,J9*%
X136770000Y-45870000D02*
X139430000Y-45870000D01*
X136770000Y-43270000D02*
X136770000Y-45870000D01*
X139430000Y-43270000D02*
X139430000Y-45870000D01*
X136770000Y-43270000D02*
X139430000Y-43270000D01*
X136770000Y-42000000D02*
X136770000Y-40670000D01*
X136770000Y-40670000D02*
X138100000Y-40670000D01*
%TO.C,J8*%
X137070000Y-57870000D02*
X139730000Y-57870000D01*
X137070000Y-55270000D02*
X137070000Y-57870000D01*
X139730000Y-55270000D02*
X139730000Y-57870000D01*
X137070000Y-55270000D02*
X139730000Y-55270000D01*
X137070000Y-54000000D02*
X137070000Y-52670000D01*
X137070000Y-52670000D02*
X138400000Y-52670000D01*
%TO.C,J6*%
X159400000Y-52100000D02*
X159400000Y-67100000D01*
X159400000Y-67100000D02*
X144400000Y-67100000D01*
X144400000Y-67100000D02*
X144400000Y-52100000D01*
X144400000Y-52100000D02*
X159400000Y-52100000D01*
X159200000Y-59600000D02*
X158200000Y-58600000D01*
X159200000Y-59600000D02*
X158200000Y-60600000D01*
%TO.C,J5*%
X159400000Y-27200000D02*
X159400000Y-42200000D01*
X159400000Y-42200000D02*
X144400000Y-42200000D01*
X144400000Y-42200000D02*
X144400000Y-27200000D01*
X144400000Y-27200000D02*
X159400000Y-27200000D01*
X159200000Y-34700000D02*
X158200000Y-33700000D01*
X159200000Y-34700000D02*
X158200000Y-35700000D01*
%TO.C,J4*%
X116930000Y-58770000D02*
X116930000Y-61430000D01*
X119530000Y-58770000D02*
X116930000Y-58770000D01*
X119530000Y-61430000D02*
X116930000Y-61430000D01*
X119530000Y-58770000D02*
X119530000Y-61430000D01*
X120800000Y-58770000D02*
X122130000Y-58770000D01*
X122130000Y-58770000D02*
X122130000Y-60100000D01*
%TO.C,J3*%
X116430000Y-34870000D02*
X116430000Y-37530000D01*
X119030000Y-34870000D02*
X116430000Y-34870000D01*
X119030000Y-37530000D02*
X116430000Y-37530000D01*
X119030000Y-34870000D02*
X119030000Y-37530000D01*
X120300000Y-34870000D02*
X121630000Y-34870000D01*
X121630000Y-34870000D02*
X121630000Y-36200000D01*
%TO.C,J2*%
X132470000Y-34570000D02*
X135130000Y-34570000D01*
X132470000Y-31970000D02*
X132470000Y-34570000D01*
X135130000Y-31970000D02*
X135130000Y-34570000D01*
X132470000Y-31970000D02*
X135130000Y-31970000D01*
X132470000Y-30700000D02*
X132470000Y-29370000D01*
X132470000Y-29370000D02*
X133800000Y-29370000D01*
%TO.C,J1*%
X102270000Y-54950000D02*
X104930000Y-54950000D01*
X102270000Y-47270000D02*
X102270000Y-54950000D01*
X104930000Y-47270000D02*
X104930000Y-54950000D01*
X102270000Y-47270000D02*
X104930000Y-47270000D01*
X102270000Y-46000000D02*
X102270000Y-44670000D01*
X102270000Y-44670000D02*
X103600000Y-44670000D01*
%TO.C,C7*%
X127690000Y-34246267D02*
X127690000Y-33953733D01*
X128710000Y-34246267D02*
X128710000Y-33953733D01*
%TO.C,C6*%
X125146267Y-52510000D02*
X124853733Y-52510000D01*
X125146267Y-51490000D02*
X124853733Y-51490000D01*
%TO.C,C5*%
X124946267Y-40510000D02*
X124653733Y-40510000D01*
X124946267Y-39490000D02*
X124653733Y-39490000D01*
%TO.C,C4*%
X109746267Y-57410000D02*
X109453733Y-57410000D01*
X109746267Y-56390000D02*
X109453733Y-56390000D01*
%TO.C,C3*%
X109731867Y-54702400D02*
X109439333Y-54702400D01*
X109731867Y-53682400D02*
X109439333Y-53682400D01*
%TO.C,C2*%
X109650667Y-46322600D02*
X109358133Y-46322600D01*
X109650667Y-45302600D02*
X109358133Y-45302600D01*
%TO.C,C1*%
X109774467Y-43396600D02*
X109481933Y-43396600D01*
X109774467Y-42376600D02*
X109481933Y-42376600D01*
%TO.C,J7*%
D10*
X124322380Y-64433333D02*
X125036666Y-64433333D01*
X125179523Y-64480952D01*
X125274761Y-64576190D01*
X125322380Y-64719047D01*
X125322380Y-64814285D01*
X124322380Y-64052380D02*
X124322380Y-63385714D01*
X125322380Y-63814285D01*
%TO.C,C11*%
X120057142Y-50627142D02*
X120009523Y-50674761D01*
X119866666Y-50722380D01*
X119771428Y-50722380D01*
X119628571Y-50674761D01*
X119533333Y-50579523D01*
X119485714Y-50484285D01*
X119438095Y-50293809D01*
X119438095Y-50150952D01*
X119485714Y-49960476D01*
X119533333Y-49865238D01*
X119628571Y-49770000D01*
X119771428Y-49722380D01*
X119866666Y-49722380D01*
X120009523Y-49770000D01*
X120057142Y-49817619D01*
X121009523Y-50722380D02*
X120438095Y-50722380D01*
X120723809Y-50722380D02*
X120723809Y-49722380D01*
X120628571Y-49865238D01*
X120533333Y-49960476D01*
X120438095Y-50008095D01*
X121961904Y-50722380D02*
X121390476Y-50722380D01*
X121676190Y-50722380D02*
X121676190Y-49722380D01*
X121580952Y-49865238D01*
X121485714Y-49960476D01*
X121390476Y-50008095D01*
%TO.C,C10*%
X119739942Y-39675342D02*
X119692323Y-39722961D01*
X119549466Y-39770580D01*
X119454228Y-39770580D01*
X119311371Y-39722961D01*
X119216133Y-39627723D01*
X119168514Y-39532485D01*
X119120895Y-39342009D01*
X119120895Y-39199152D01*
X119168514Y-39008676D01*
X119216133Y-38913438D01*
X119311371Y-38818200D01*
X119454228Y-38770580D01*
X119549466Y-38770580D01*
X119692323Y-38818200D01*
X119739942Y-38865819D01*
X120692323Y-39770580D02*
X120120895Y-39770580D01*
X120406609Y-39770580D02*
X120406609Y-38770580D01*
X120311371Y-38913438D01*
X120216133Y-39008676D01*
X120120895Y-39056295D01*
X121311371Y-38770580D02*
X121406609Y-38770580D01*
X121501847Y-38818200D01*
X121549466Y-38865819D01*
X121597085Y-38961057D01*
X121644704Y-39151533D01*
X121644704Y-39389628D01*
X121597085Y-39580104D01*
X121549466Y-39675342D01*
X121501847Y-39722961D01*
X121406609Y-39770580D01*
X121311371Y-39770580D01*
X121216133Y-39722961D01*
X121168514Y-39675342D01*
X121120895Y-39580104D01*
X121073276Y-39389628D01*
X121073276Y-39151533D01*
X121120895Y-38961057D01*
X121168514Y-38865819D01*
X121216133Y-38818200D01*
X121311371Y-38770580D01*
%TO.C,C9*%
X132533333Y-37227142D02*
X132485714Y-37274761D01*
X132342857Y-37322380D01*
X132247619Y-37322380D01*
X132104761Y-37274761D01*
X132009523Y-37179523D01*
X131961904Y-37084285D01*
X131914285Y-36893809D01*
X131914285Y-36750952D01*
X131961904Y-36560476D01*
X132009523Y-36465238D01*
X132104761Y-36370000D01*
X132247619Y-36322380D01*
X132342857Y-36322380D01*
X132485714Y-36370000D01*
X132533333Y-36417619D01*
X133009523Y-37322380D02*
X133200000Y-37322380D01*
X133295238Y-37274761D01*
X133342857Y-37227142D01*
X133438095Y-37084285D01*
X133485714Y-36893809D01*
X133485714Y-36512857D01*
X133438095Y-36417619D01*
X133390476Y-36370000D01*
X133295238Y-36322380D01*
X133104761Y-36322380D01*
X133009523Y-36370000D01*
X132961904Y-36417619D01*
X132914285Y-36512857D01*
X132914285Y-36750952D01*
X132961904Y-36846190D01*
X133009523Y-36893809D01*
X133104761Y-36941428D01*
X133295238Y-36941428D01*
X133390476Y-36893809D01*
X133438095Y-36846190D01*
X133485714Y-36750952D01*
%TO.C,C8*%
X132528733Y-48989942D02*
X132481114Y-49037561D01*
X132338257Y-49085180D01*
X132243019Y-49085180D01*
X132100161Y-49037561D01*
X132004923Y-48942323D01*
X131957304Y-48847085D01*
X131909685Y-48656609D01*
X131909685Y-48513752D01*
X131957304Y-48323276D01*
X132004923Y-48228038D01*
X132100161Y-48132800D01*
X132243019Y-48085180D01*
X132338257Y-48085180D01*
X132481114Y-48132800D01*
X132528733Y-48180419D01*
X133100161Y-48513752D02*
X133004923Y-48466133D01*
X132957304Y-48418514D01*
X132909685Y-48323276D01*
X132909685Y-48275657D01*
X132957304Y-48180419D01*
X133004923Y-48132800D01*
X133100161Y-48085180D01*
X133290638Y-48085180D01*
X133385876Y-48132800D01*
X133433495Y-48180419D01*
X133481114Y-48275657D01*
X133481114Y-48323276D01*
X133433495Y-48418514D01*
X133385876Y-48466133D01*
X133290638Y-48513752D01*
X133100161Y-48513752D01*
X133004923Y-48561371D01*
X132957304Y-48608990D01*
X132909685Y-48704228D01*
X132909685Y-48894704D01*
X132957304Y-48989942D01*
X133004923Y-49037561D01*
X133100161Y-49085180D01*
X133290638Y-49085180D01*
X133385876Y-49037561D01*
X133433495Y-48989942D01*
X133481114Y-48894704D01*
X133481114Y-48704228D01*
X133433495Y-48608990D01*
X133385876Y-48561371D01*
X133290638Y-48513752D01*
%TO.C,U4*%
X129952295Y-51322180D02*
X129952295Y-52131704D01*
X129999914Y-52226942D01*
X130047533Y-52274561D01*
X130142771Y-52322180D01*
X130333247Y-52322180D01*
X130428485Y-52274561D01*
X130476104Y-52226942D01*
X130523723Y-52131704D01*
X130523723Y-51322180D01*
X131428485Y-51655514D02*
X131428485Y-52322180D01*
X131190390Y-51274561D02*
X130952295Y-51988847D01*
X131571342Y-51988847D01*
%TO.C,U3*%
X130231695Y-39333380D02*
X130231695Y-40142904D01*
X130279314Y-40238142D01*
X130326933Y-40285761D01*
X130422171Y-40333380D01*
X130612647Y-40333380D01*
X130707885Y-40285761D01*
X130755504Y-40238142D01*
X130803123Y-40142904D01*
X130803123Y-39333380D01*
X131184076Y-39333380D02*
X131803123Y-39333380D01*
X131469790Y-39714333D01*
X131612647Y-39714333D01*
X131707885Y-39761952D01*
X131755504Y-39809571D01*
X131803123Y-39904809D01*
X131803123Y-40142904D01*
X131755504Y-40238142D01*
X131707885Y-40285761D01*
X131612647Y-40333380D01*
X131326933Y-40333380D01*
X131231695Y-40285761D01*
X131184076Y-40238142D01*
%TO.C,U2*%
X118268295Y-52857180D02*
X118268295Y-53666704D01*
X118315914Y-53761942D01*
X118363533Y-53809561D01*
X118458771Y-53857180D01*
X118649247Y-53857180D01*
X118744485Y-53809561D01*
X118792104Y-53761942D01*
X118839723Y-53666704D01*
X118839723Y-52857180D01*
X119268295Y-52952419D02*
X119315914Y-52904800D01*
X119411152Y-52857180D01*
X119649247Y-52857180D01*
X119744485Y-52904800D01*
X119792104Y-52952419D01*
X119839723Y-53047657D01*
X119839723Y-53142895D01*
X119792104Y-53285752D01*
X119220676Y-53857180D01*
X119839723Y-53857180D01*
%TO.C,U1*%
X117614295Y-41891580D02*
X117614295Y-42701104D01*
X117661914Y-42796342D01*
X117709533Y-42843961D01*
X117804771Y-42891580D01*
X117995247Y-42891580D01*
X118090485Y-42843961D01*
X118138104Y-42796342D01*
X118185723Y-42701104D01*
X118185723Y-41891580D01*
X119185723Y-42891580D02*
X118614295Y-42891580D01*
X118900009Y-42891580D02*
X118900009Y-41891580D01*
X118804771Y-42034438D01*
X118709533Y-42129676D01*
X118614295Y-42177295D01*
%TO.C,R12*%
X130022380Y-34742857D02*
X129546190Y-35076190D01*
X130022380Y-35314285D02*
X129022380Y-35314285D01*
X129022380Y-34933333D01*
X129070000Y-34838095D01*
X129117619Y-34790476D01*
X129212857Y-34742857D01*
X129355714Y-34742857D01*
X129450952Y-34790476D01*
X129498571Y-34838095D01*
X129546190Y-34933333D01*
X129546190Y-35314285D01*
X130022380Y-33790476D02*
X130022380Y-34361904D01*
X130022380Y-34076190D02*
X129022380Y-34076190D01*
X129165238Y-34171428D01*
X129260476Y-34266666D01*
X129308095Y-34361904D01*
X129117619Y-33409523D02*
X129070000Y-33361904D01*
X129022380Y-33266666D01*
X129022380Y-33028571D01*
X129070000Y-32933333D01*
X129117619Y-32885714D01*
X129212857Y-32838095D01*
X129308095Y-32838095D01*
X129450952Y-32885714D01*
X130022380Y-33457142D01*
X130022380Y-32838095D01*
%TO.C,R11*%
X130012180Y-31229457D02*
X129535990Y-31562790D01*
X130012180Y-31800885D02*
X129012180Y-31800885D01*
X129012180Y-31419933D01*
X129059800Y-31324695D01*
X129107419Y-31277076D01*
X129202657Y-31229457D01*
X129345514Y-31229457D01*
X129440752Y-31277076D01*
X129488371Y-31324695D01*
X129535990Y-31419933D01*
X129535990Y-31800885D01*
X130012180Y-30277076D02*
X130012180Y-30848504D01*
X130012180Y-30562790D02*
X129012180Y-30562790D01*
X129155038Y-30658028D01*
X129250276Y-30753266D01*
X129297895Y-30848504D01*
X130012180Y-29324695D02*
X130012180Y-29896123D01*
X130012180Y-29610409D02*
X129012180Y-29610409D01*
X129155038Y-29705647D01*
X129250276Y-29800885D01*
X129297895Y-29896123D01*
%TO.C,R10*%
X124357142Y-51182380D02*
X124023809Y-50706190D01*
X123785714Y-51182380D02*
X123785714Y-50182380D01*
X124166666Y-50182380D01*
X124261904Y-50230000D01*
X124309523Y-50277619D01*
X124357142Y-50372857D01*
X124357142Y-50515714D01*
X124309523Y-50610952D01*
X124261904Y-50658571D01*
X124166666Y-50706190D01*
X123785714Y-50706190D01*
X125309523Y-51182380D02*
X124738095Y-51182380D01*
X125023809Y-51182380D02*
X125023809Y-50182380D01*
X124928571Y-50325238D01*
X124833333Y-50420476D01*
X124738095Y-50468095D01*
X125928571Y-50182380D02*
X126023809Y-50182380D01*
X126119047Y-50230000D01*
X126166666Y-50277619D01*
X126214285Y-50372857D01*
X126261904Y-50563333D01*
X126261904Y-50801428D01*
X126214285Y-50991904D01*
X126166666Y-51087142D01*
X126119047Y-51134761D01*
X126023809Y-51182380D01*
X125928571Y-51182380D01*
X125833333Y-51134761D01*
X125785714Y-51087142D01*
X125738095Y-50991904D01*
X125690476Y-50801428D01*
X125690476Y-50563333D01*
X125738095Y-50372857D01*
X125785714Y-50277619D01*
X125833333Y-50230000D01*
X125928571Y-50182380D01*
%TO.C,R9*%
X124733333Y-39182380D02*
X124400000Y-38706190D01*
X124161904Y-39182380D02*
X124161904Y-38182380D01*
X124542857Y-38182380D01*
X124638095Y-38230000D01*
X124685714Y-38277619D01*
X124733333Y-38372857D01*
X124733333Y-38515714D01*
X124685714Y-38610952D01*
X124638095Y-38658571D01*
X124542857Y-38706190D01*
X124161904Y-38706190D01*
X125209523Y-39182380D02*
X125400000Y-39182380D01*
X125495238Y-39134761D01*
X125542857Y-39087142D01*
X125638095Y-38944285D01*
X125685714Y-38753809D01*
X125685714Y-38372857D01*
X125638095Y-38277619D01*
X125590476Y-38230000D01*
X125495238Y-38182380D01*
X125304761Y-38182380D01*
X125209523Y-38230000D01*
X125161904Y-38277619D01*
X125114285Y-38372857D01*
X125114285Y-38610952D01*
X125161904Y-38706190D01*
X125209523Y-38753809D01*
X125304761Y-38801428D01*
X125495238Y-38801428D01*
X125590476Y-38753809D01*
X125638095Y-38706190D01*
X125685714Y-38610952D01*
%TO.C,R8*%
X124875333Y-56445580D02*
X124542000Y-55969390D01*
X124303904Y-56445580D02*
X124303904Y-55445580D01*
X124684857Y-55445580D01*
X124780095Y-55493200D01*
X124827714Y-55540819D01*
X124875333Y-55636057D01*
X124875333Y-55778914D01*
X124827714Y-55874152D01*
X124780095Y-55921771D01*
X124684857Y-55969390D01*
X124303904Y-55969390D01*
X125446761Y-55874152D02*
X125351523Y-55826533D01*
X125303904Y-55778914D01*
X125256285Y-55683676D01*
X125256285Y-55636057D01*
X125303904Y-55540819D01*
X125351523Y-55493200D01*
X125446761Y-55445580D01*
X125637238Y-55445580D01*
X125732476Y-55493200D01*
X125780095Y-55540819D01*
X125827714Y-55636057D01*
X125827714Y-55683676D01*
X125780095Y-55778914D01*
X125732476Y-55826533D01*
X125637238Y-55874152D01*
X125446761Y-55874152D01*
X125351523Y-55921771D01*
X125303904Y-55969390D01*
X125256285Y-56064628D01*
X125256285Y-56255104D01*
X125303904Y-56350342D01*
X125351523Y-56397961D01*
X125446761Y-56445580D01*
X125637238Y-56445580D01*
X125732476Y-56397961D01*
X125780095Y-56350342D01*
X125827714Y-56255104D01*
X125827714Y-56064628D01*
X125780095Y-55969390D01*
X125732476Y-55921771D01*
X125637238Y-55874152D01*
%TO.C,R7*%
X124733333Y-44582380D02*
X124400000Y-44106190D01*
X124161904Y-44582380D02*
X124161904Y-43582380D01*
X124542857Y-43582380D01*
X124638095Y-43630000D01*
X124685714Y-43677619D01*
X124733333Y-43772857D01*
X124733333Y-43915714D01*
X124685714Y-44010952D01*
X124638095Y-44058571D01*
X124542857Y-44106190D01*
X124161904Y-44106190D01*
X125066666Y-43582380D02*
X125733333Y-43582380D01*
X125304761Y-44582380D01*
%TO.C,R6*%
X114511780Y-56249266D02*
X114035590Y-56582600D01*
X114511780Y-56820695D02*
X113511780Y-56820695D01*
X113511780Y-56439742D01*
X113559400Y-56344504D01*
X113607019Y-56296885D01*
X113702257Y-56249266D01*
X113845114Y-56249266D01*
X113940352Y-56296885D01*
X113987971Y-56344504D01*
X114035590Y-56439742D01*
X114035590Y-56820695D01*
X113511780Y-55392123D02*
X113511780Y-55582600D01*
X113559400Y-55677838D01*
X113607019Y-55725457D01*
X113749876Y-55820695D01*
X113940352Y-55868314D01*
X114321304Y-55868314D01*
X114416542Y-55820695D01*
X114464161Y-55773076D01*
X114511780Y-55677838D01*
X114511780Y-55487361D01*
X114464161Y-55392123D01*
X114416542Y-55344504D01*
X114321304Y-55296885D01*
X114083209Y-55296885D01*
X113987971Y-55344504D01*
X113940352Y-55392123D01*
X113892733Y-55487361D01*
X113892733Y-55677838D01*
X113940352Y-55773076D01*
X113987971Y-55820695D01*
X114083209Y-55868314D01*
%TO.C,R5*%
X114518180Y-45283666D02*
X114041990Y-45617000D01*
X114518180Y-45855095D02*
X113518180Y-45855095D01*
X113518180Y-45474142D01*
X113565800Y-45378904D01*
X113613419Y-45331285D01*
X113708657Y-45283666D01*
X113851514Y-45283666D01*
X113946752Y-45331285D01*
X113994371Y-45378904D01*
X114041990Y-45474142D01*
X114041990Y-45855095D01*
X113518180Y-44378904D02*
X113518180Y-44855095D01*
X113994371Y-44902714D01*
X113946752Y-44855095D01*
X113899133Y-44759857D01*
X113899133Y-44521761D01*
X113946752Y-44426523D01*
X113994371Y-44378904D01*
X114089609Y-44331285D01*
X114327704Y-44331285D01*
X114422942Y-44378904D01*
X114470561Y-44426523D01*
X114518180Y-44521761D01*
X114518180Y-44759857D01*
X114470561Y-44855095D01*
X114422942Y-44902714D01*
%TO.C,R4*%
X109397133Y-61470780D02*
X109063800Y-60994590D01*
X108825704Y-61470780D02*
X108825704Y-60470780D01*
X109206657Y-60470780D01*
X109301895Y-60518400D01*
X109349514Y-60566019D01*
X109397133Y-60661257D01*
X109397133Y-60804114D01*
X109349514Y-60899352D01*
X109301895Y-60946971D01*
X109206657Y-60994590D01*
X108825704Y-60994590D01*
X110254276Y-60804114D02*
X110254276Y-61470780D01*
X110016180Y-60423161D02*
X109778085Y-61137447D01*
X110397133Y-61137447D01*
%TO.C,R3*%
X109333333Y-50382380D02*
X109000000Y-49906190D01*
X108761904Y-50382380D02*
X108761904Y-49382380D01*
X109142857Y-49382380D01*
X109238095Y-49430000D01*
X109285714Y-49477619D01*
X109333333Y-49572857D01*
X109333333Y-49715714D01*
X109285714Y-49810952D01*
X109238095Y-49858571D01*
X109142857Y-49906190D01*
X108761904Y-49906190D01*
X109666666Y-49382380D02*
X110285714Y-49382380D01*
X109952380Y-49763333D01*
X110095238Y-49763333D01*
X110190476Y-49810952D01*
X110238095Y-49858571D01*
X110285714Y-49953809D01*
X110285714Y-50191904D01*
X110238095Y-50287142D01*
X110190476Y-50334761D01*
X110095238Y-50382380D01*
X109809523Y-50382380D01*
X109714285Y-50334761D01*
X109666666Y-50287142D01*
%TO.C,R2*%
X109433333Y-53282380D02*
X109100000Y-52806190D01*
X108861904Y-53282380D02*
X108861904Y-52282380D01*
X109242857Y-52282380D01*
X109338095Y-52330000D01*
X109385714Y-52377619D01*
X109433333Y-52472857D01*
X109433333Y-52615714D01*
X109385714Y-52710952D01*
X109338095Y-52758571D01*
X109242857Y-52806190D01*
X108861904Y-52806190D01*
X109814285Y-52377619D02*
X109861904Y-52330000D01*
X109957142Y-52282380D01*
X110195238Y-52282380D01*
X110290476Y-52330000D01*
X110338095Y-52377619D01*
X110385714Y-52472857D01*
X110385714Y-52568095D01*
X110338095Y-52710952D01*
X109766666Y-53282380D01*
X110385714Y-53282380D01*
%TO.C,R1*%
X109433333Y-42082380D02*
X109100000Y-41606190D01*
X108861904Y-42082380D02*
X108861904Y-41082380D01*
X109242857Y-41082380D01*
X109338095Y-41130000D01*
X109385714Y-41177619D01*
X109433333Y-41272857D01*
X109433333Y-41415714D01*
X109385714Y-41510952D01*
X109338095Y-41558571D01*
X109242857Y-41606190D01*
X108861904Y-41606190D01*
X110385714Y-42082380D02*
X109814285Y-42082380D01*
X110100000Y-42082380D02*
X110100000Y-41082380D01*
X110004761Y-41225238D01*
X109909523Y-41320476D01*
X109814285Y-41368095D01*
%TO.C,J9*%
X136466666Y-46152380D02*
X136466666Y-46866666D01*
X136419047Y-47009523D01*
X136323809Y-47104761D01*
X136180952Y-47152380D01*
X136085714Y-47152380D01*
X136990476Y-47152380D02*
X137180952Y-47152380D01*
X137276190Y-47104761D01*
X137323809Y-47057142D01*
X137419047Y-46914285D01*
X137466666Y-46723809D01*
X137466666Y-46342857D01*
X137419047Y-46247619D01*
X137371428Y-46200000D01*
X137276190Y-46152380D01*
X137085714Y-46152380D01*
X136990476Y-46200000D01*
X136942857Y-46247619D01*
X136895238Y-46342857D01*
X136895238Y-46580952D01*
X136942857Y-46676190D01*
X136990476Y-46723809D01*
X137085714Y-46771428D01*
X137276190Y-46771428D01*
X137371428Y-46723809D01*
X137419047Y-46676190D01*
X137466666Y-46580952D01*
%TO.C,J8*%
X136966666Y-58252380D02*
X136966666Y-58966666D01*
X136919047Y-59109523D01*
X136823809Y-59204761D01*
X136680952Y-59252380D01*
X136585714Y-59252380D01*
X137585714Y-58680952D02*
X137490476Y-58633333D01*
X137442857Y-58585714D01*
X137395238Y-58490476D01*
X137395238Y-58442857D01*
X137442857Y-58347619D01*
X137490476Y-58300000D01*
X137585714Y-58252380D01*
X137776190Y-58252380D01*
X137871428Y-58300000D01*
X137919047Y-58347619D01*
X137966666Y-58442857D01*
X137966666Y-58490476D01*
X137919047Y-58585714D01*
X137871428Y-58633333D01*
X137776190Y-58680952D01*
X137585714Y-58680952D01*
X137490476Y-58728571D01*
X137442857Y-58776190D01*
X137395238Y-58871428D01*
X137395238Y-59061904D01*
X137442857Y-59157142D01*
X137490476Y-59204761D01*
X137585714Y-59252380D01*
X137776190Y-59252380D01*
X137871428Y-59204761D01*
X137919047Y-59157142D01*
X137966666Y-59061904D01*
X137966666Y-58871428D01*
X137919047Y-58776190D01*
X137871428Y-58728571D01*
X137776190Y-58680952D01*
%TO.C,J6*%
X142152380Y-59933333D02*
X142866666Y-59933333D01*
X143009523Y-59980952D01*
X143104761Y-60076190D01*
X143152380Y-60219047D01*
X143152380Y-60314285D01*
X142152380Y-59028571D02*
X142152380Y-59219047D01*
X142200000Y-59314285D01*
X142247619Y-59361904D01*
X142390476Y-59457142D01*
X142580952Y-59504761D01*
X142961904Y-59504761D01*
X143057142Y-59457142D01*
X143104761Y-59409523D01*
X143152380Y-59314285D01*
X143152380Y-59123809D01*
X143104761Y-59028571D01*
X143057142Y-58980952D01*
X142961904Y-58933333D01*
X142723809Y-58933333D01*
X142628571Y-58980952D01*
X142580952Y-59028571D01*
X142533333Y-59123809D01*
X142533333Y-59314285D01*
X142580952Y-59409523D01*
X142628571Y-59457142D01*
X142723809Y-59504761D01*
%TO.C,J5*%
X142152380Y-35033333D02*
X142866666Y-35033333D01*
X143009523Y-35080952D01*
X143104761Y-35176190D01*
X143152380Y-35319047D01*
X143152380Y-35414285D01*
X142152380Y-34080952D02*
X142152380Y-34557142D01*
X142628571Y-34604761D01*
X142580952Y-34557142D01*
X142533333Y-34461904D01*
X142533333Y-34223809D01*
X142580952Y-34128571D01*
X142628571Y-34080952D01*
X142723809Y-34033333D01*
X142961904Y-34033333D01*
X143057142Y-34080952D01*
X143104761Y-34128571D01*
X143152380Y-34223809D01*
X143152380Y-34461904D01*
X143104761Y-34557142D01*
X143057142Y-34604761D01*
%TO.C,J4*%
X122582380Y-60433333D02*
X123296666Y-60433333D01*
X123439523Y-60480952D01*
X123534761Y-60576190D01*
X123582380Y-60719047D01*
X123582380Y-60814285D01*
X122915714Y-59528571D02*
X123582380Y-59528571D01*
X122534761Y-59766666D02*
X123249047Y-60004761D01*
X123249047Y-59385714D01*
%TO.C,J3*%
X122082380Y-36533333D02*
X122796666Y-36533333D01*
X122939523Y-36580952D01*
X123034761Y-36676190D01*
X123082380Y-36819047D01*
X123082380Y-36914285D01*
X122082380Y-36152380D02*
X122082380Y-35533333D01*
X122463333Y-35866666D01*
X122463333Y-35723809D01*
X122510952Y-35628571D01*
X122558571Y-35580952D01*
X122653809Y-35533333D01*
X122891904Y-35533333D01*
X122987142Y-35580952D01*
X123034761Y-35628571D01*
X123082380Y-35723809D01*
X123082380Y-36009523D01*
X123034761Y-36104761D01*
X122987142Y-36152380D01*
%TO.C,J2*%
X133466666Y-27822380D02*
X133466666Y-28536666D01*
X133419047Y-28679523D01*
X133323809Y-28774761D01*
X133180952Y-28822380D01*
X133085714Y-28822380D01*
X133895238Y-27917619D02*
X133942857Y-27870000D01*
X134038095Y-27822380D01*
X134276190Y-27822380D01*
X134371428Y-27870000D01*
X134419047Y-27917619D01*
X134466666Y-28012857D01*
X134466666Y-28108095D01*
X134419047Y-28250952D01*
X133847619Y-28822380D01*
X134466666Y-28822380D01*
%TO.C,J1*%
X103266666Y-43122380D02*
X103266666Y-43836666D01*
X103219047Y-43979523D01*
X103123809Y-44074761D01*
X102980952Y-44122380D01*
X102885714Y-44122380D01*
X104266666Y-44122380D02*
X103695238Y-44122380D01*
X103980952Y-44122380D02*
X103980952Y-43122380D01*
X103885714Y-43265238D01*
X103790476Y-43360476D01*
X103695238Y-43408095D01*
%TO.C,C7*%
X127127142Y-34266666D02*
X127174761Y-34314285D01*
X127222380Y-34457142D01*
X127222380Y-34552380D01*
X127174761Y-34695238D01*
X127079523Y-34790476D01*
X126984285Y-34838095D01*
X126793809Y-34885714D01*
X126650952Y-34885714D01*
X126460476Y-34838095D01*
X126365238Y-34790476D01*
X126270000Y-34695238D01*
X126222380Y-34552380D01*
X126222380Y-34457142D01*
X126270000Y-34314285D01*
X126317619Y-34266666D01*
X126222380Y-33933333D02*
X126222380Y-33266666D01*
X127222380Y-33695238D01*
%TO.C,C6*%
X124833333Y-53787142D02*
X124785714Y-53834761D01*
X124642857Y-53882380D01*
X124547619Y-53882380D01*
X124404761Y-53834761D01*
X124309523Y-53739523D01*
X124261904Y-53644285D01*
X124214285Y-53453809D01*
X124214285Y-53310952D01*
X124261904Y-53120476D01*
X124309523Y-53025238D01*
X124404761Y-52930000D01*
X124547619Y-52882380D01*
X124642857Y-52882380D01*
X124785714Y-52930000D01*
X124833333Y-52977619D01*
X125690476Y-52882380D02*
X125500000Y-52882380D01*
X125404761Y-52930000D01*
X125357142Y-52977619D01*
X125261904Y-53120476D01*
X125214285Y-53310952D01*
X125214285Y-53691904D01*
X125261904Y-53787142D01*
X125309523Y-53834761D01*
X125404761Y-53882380D01*
X125595238Y-53882380D01*
X125690476Y-53834761D01*
X125738095Y-53787142D01*
X125785714Y-53691904D01*
X125785714Y-53453809D01*
X125738095Y-53358571D01*
X125690476Y-53310952D01*
X125595238Y-53263333D01*
X125404761Y-53263333D01*
X125309523Y-53310952D01*
X125261904Y-53358571D01*
X125214285Y-53453809D01*
%TO.C,C5*%
X124633333Y-41787142D02*
X124585714Y-41834761D01*
X124442857Y-41882380D01*
X124347619Y-41882380D01*
X124204761Y-41834761D01*
X124109523Y-41739523D01*
X124061904Y-41644285D01*
X124014285Y-41453809D01*
X124014285Y-41310952D01*
X124061904Y-41120476D01*
X124109523Y-41025238D01*
X124204761Y-40930000D01*
X124347619Y-40882380D01*
X124442857Y-40882380D01*
X124585714Y-40930000D01*
X124633333Y-40977619D01*
X125538095Y-40882380D02*
X125061904Y-40882380D01*
X125014285Y-41358571D01*
X125061904Y-41310952D01*
X125157142Y-41263333D01*
X125395238Y-41263333D01*
X125490476Y-41310952D01*
X125538095Y-41358571D01*
X125585714Y-41453809D01*
X125585714Y-41691904D01*
X125538095Y-41787142D01*
X125490476Y-41834761D01*
X125395238Y-41882380D01*
X125157142Y-41882380D01*
X125061904Y-41834761D01*
X125014285Y-41787142D01*
%TO.C,C4*%
X109433333Y-58687142D02*
X109385714Y-58734761D01*
X109242857Y-58782380D01*
X109147619Y-58782380D01*
X109004761Y-58734761D01*
X108909523Y-58639523D01*
X108861904Y-58544285D01*
X108814285Y-58353809D01*
X108814285Y-58210952D01*
X108861904Y-58020476D01*
X108909523Y-57925238D01*
X109004761Y-57830000D01*
X109147619Y-57782380D01*
X109242857Y-57782380D01*
X109385714Y-57830000D01*
X109433333Y-57877619D01*
X110290476Y-58115714D02*
X110290476Y-58782380D01*
X110052380Y-57734761D02*
X109814285Y-58449047D01*
X110433333Y-58449047D01*
%TO.C,C3*%
X109418933Y-55979542D02*
X109371314Y-56027161D01*
X109228457Y-56074780D01*
X109133219Y-56074780D01*
X108990361Y-56027161D01*
X108895123Y-55931923D01*
X108847504Y-55836685D01*
X108799885Y-55646209D01*
X108799885Y-55503352D01*
X108847504Y-55312876D01*
X108895123Y-55217638D01*
X108990361Y-55122400D01*
X109133219Y-55074780D01*
X109228457Y-55074780D01*
X109371314Y-55122400D01*
X109418933Y-55170019D01*
X109752266Y-55074780D02*
X110371314Y-55074780D01*
X110037980Y-55455733D01*
X110180838Y-55455733D01*
X110276076Y-55503352D01*
X110323695Y-55550971D01*
X110371314Y-55646209D01*
X110371314Y-55884304D01*
X110323695Y-55979542D01*
X110276076Y-56027161D01*
X110180838Y-56074780D01*
X109895123Y-56074780D01*
X109799885Y-56027161D01*
X109752266Y-55979542D01*
%TO.C,C2*%
X109337733Y-47599742D02*
X109290114Y-47647361D01*
X109147257Y-47694980D01*
X109052019Y-47694980D01*
X108909161Y-47647361D01*
X108813923Y-47552123D01*
X108766304Y-47456885D01*
X108718685Y-47266409D01*
X108718685Y-47123552D01*
X108766304Y-46933076D01*
X108813923Y-46837838D01*
X108909161Y-46742600D01*
X109052019Y-46694980D01*
X109147257Y-46694980D01*
X109290114Y-46742600D01*
X109337733Y-46790219D01*
X109718685Y-46790219D02*
X109766304Y-46742600D01*
X109861542Y-46694980D01*
X110099638Y-46694980D01*
X110194876Y-46742600D01*
X110242495Y-46790219D01*
X110290114Y-46885457D01*
X110290114Y-46980695D01*
X110242495Y-47123552D01*
X109671066Y-47694980D01*
X110290114Y-47694980D01*
%TO.C,C1*%
X109461533Y-44673742D02*
X109413914Y-44721361D01*
X109271057Y-44768980D01*
X109175819Y-44768980D01*
X109032961Y-44721361D01*
X108937723Y-44626123D01*
X108890104Y-44530885D01*
X108842485Y-44340409D01*
X108842485Y-44197552D01*
X108890104Y-44007076D01*
X108937723Y-43911838D01*
X109032961Y-43816600D01*
X109175819Y-43768980D01*
X109271057Y-43768980D01*
X109413914Y-43816600D01*
X109461533Y-43864219D01*
X110413914Y-44768980D02*
X109842485Y-44768980D01*
X110128200Y-44768980D02*
X110128200Y-43768980D01*
X110032961Y-43911838D01*
X109937723Y-44007076D01*
X109842485Y-44054695D01*
%TD*%
M02*
