M48
; DRILL file {KiCad (5.1.12)-1} date 12/10/21 12:11:02
; FORMAT={-:-/ absolute / inch / decimal}
; #@! TF.CreationDate,2021-12-10T12:11:02+01:00
; #@! TF.GenerationSoftware,Kicad,Pcbnew,(5.1.12)-1
; #@! TF.FileFunction,Plated,1,2,PTH
FMAT,2
INCH
T1C0.0157
T2C0.0350
T3C0.0394
T4C0.0791
%
G90
G05
T1
X4.689Y-2.185
X4.7402Y-1.5433
X4.7795Y-1.9173
X4.937Y-1.8465
X5.0079Y-1.1772
X5.0984Y-1.5236
X5.1378Y-2.1654
X5.1575Y-1.7205
X5.2559Y-1.874
X5.3268Y-1.5315
X5.3268Y-1.622
X5.3268Y-2.0984
X5.3307Y-1.9961
T2
X5.7756Y-1.2661
X5.7756Y-1.3661
X5.7756Y-2.2465
X5.7756Y-2.3465
T3
X4.0787Y-1.811
X4.0787Y-1.911
X4.0787Y-2.011
X4.0787Y-2.111
X4.6362Y-1.4252
X4.6559Y-2.3661
X4.7362Y-1.4252
X4.7559Y-2.3661
X5.0079Y-2.5236
X5.1079Y-2.5236
X5.2079Y-2.5236
X5.2677Y-1.2087
X5.2677Y-1.3087
X5.3079Y-2.5236
X5.437Y-1.6535
X5.437Y-1.7535
X5.4488Y-2.126
X5.4488Y-2.226
T4
X5.9756Y-1.1661
X5.9756Y-1.5661
X5.9756Y-2.1465
X5.9756Y-2.5465
T0
M30
